<ttFont>
    <TTGlyph name=".notdef" xMin="102" yMin="0" xMax="1038" yMax="1516">
      <contour>
        <pt x="102" y="1516" on="1"/>
        <pt x="1038" y="1516" on="1"/>
        <pt x="1038" y="0" on="1"/>
        <pt x="102" y="0" on="1"/>
      </contour>
      <contour>
        <pt x="205" y="102" on="1"/>
        <pt x="936" y="102" on="1"/>
        <pt x="936" y="1413" on="1"/>
        <pt x="205" y="1413" on="1"/>
      </contour>
    </TTGlyph>
    <TTGlyph name="A" xMin="10" yMin="0" xMax="1532" yMax="1516">
      <contour>
        <pt x="1040" y="172" on="1"/>
        <pt x="1166" y="172" on="1"/>
        <pt x="1046" y="516" on="1"/>
        <pt x="463" y="516" on="1"/>
        <pt x="346" y="172" on="1"/>
        <pt x="502" y="172" on="1"/>
        <pt x="502" y="0" on="1"/>
        <pt x="10" y="0" on="1"/>
        <pt x="10" y="172" on="1"/>
        <pt x="142" y="172" on="1"/>
        <pt x="614" y="1516" on="1"/>
        <pt x="909" y="1516" on="1"/>
        <pt x="1380" y="172" on="1"/>
        <pt x="1532" y="172" on="1"/>
        <pt x="1532" y="0" on="1"/>
        <pt x="1040" y="0" on="1"/>
      </contour>
      <contour>
        <pt x="520" y="682" on="1"/>
        <pt x="988" y="682" on="1"/>
        <pt x="752" y="1360" on="1"/>
      </contour>
    </TTGlyph>
    <TTGlyph name="AE" xMin="-2" yMin="0" xMax="1858" yMax="1516">
      <contour>
        <pt x="-2" y="172" on="1"/>
        <pt x="104" y="172" on="1"/>
        <pt x="920" y="1516" on="1"/>
        <pt x="1858" y="1516" on="1"/>
        <pt x="1858" y="1087" on="1"/>
        <pt x="1653" y="1087" on="1"/>
        <pt x="1653" y="1343" on="1"/>
        <pt x="1188" y="1343" on="1"/>
        <pt x="1188" y="862" on="1"/>
        <pt x="1567" y="862" on="1"/>
        <pt x="1567" y="690" on="1"/>
        <pt x="1188" y="690" on="1"/>
        <pt x="1188" y="172" on="1"/>
        <pt x="1653" y="172" on="1"/>
        <pt x="1653" y="428" on="1"/>
        <pt x="1858" y="428" on="1"/>
        <pt x="1858" y="0" on="1"/>
        <pt x="866" y="0" on="1"/>
        <pt x="866" y="172" on="1"/>
        <pt x="991" y="172" on="1"/>
        <pt x="991" y="426" on="1"/>
        <pt x="474" y="426" on="1"/>
        <pt x="326" y="172" on="1"/>
        <pt x="489" y="172" on="1"/>
        <pt x="489" y="0" on="1"/>
        <pt x="-2" y="0" on="1"/>
      </contour>
      <contour>
        <pt x="991" y="598" on="1"/>
        <pt x="991" y="1312" on="1"/>
        <pt x="575" y="598" on="1"/>
      </contour>
    </TTGlyph>
    <TTGlyph name="Aacute" xMin="10" yMin="0" xMax="1532" yMax="1956">
      <component glyphName="A" x="0" y="0" flags="0x204"/>
      <component glyphName="acute" x="532" y="479" flags="0x4"/>
    </TTGlyph>
    <TTGlyph name="Abreve" xMin="10" yMin="0" xMax="1532" yMax="1958">
      <component glyphName="A" x="0" y="0" flags="0x204"/>
      <component glyphName="breve" x="281" y="479" flags="0x4"/>
    </TTGlyph>
    <TTGlyph name="Acircumflex" xMin="10" yMin="0" xMax="1532" yMax="1968">
      <component glyphName="A" x="0" y="0" flags="0x204"/>
      <component glyphName="circumflex" x="281" y="479" flags="0x4"/>
    </TTGlyph>
    <TTGlyph name="Adieresis" xMin="10" yMin="0" xMax="1532" yMax="1968">
      <component glyphName="A" x="0" y="0" flags="0x204"/>
      <component glyphName="dieresis" x="344" y="479" flags="0x4"/>
    </TTGlyph>
    <TTGlyph name="Agrave" xMin="10" yMin="0" xMax="1532" yMax="1956">
      <component glyphName="A" x="0" y="0" flags="0x204"/>
      <component glyphName="grave" x="295" y="479" flags="0x4"/>
    </TTGlyph>
    <TTGlyph name="Amacron" xMin="10" yMin="0" xMax="1532" yMax="1825">
      <component glyphName="A" x="0" y="0" flags="0x204"/>
      <component glyphName="macron" x="313" y="479" flags="0x4"/>
    </TTGlyph>
    <TTGlyph name="Aogonek" xMin="10" yMin="-485" xMax="1511" yMax="1516">
      <contour>
        <pt x="10" y="172" on="1"/>
        <pt x="141" y="172" on="1"/>
        <pt x="614" y="1516" on="1"/>
        <pt x="909" y="1516" on="1"/>
        <pt x="1380" y="172" on="1"/>
        <pt x="1511" y="172" on="1"/>
        <pt x="1511" y="0" on="1"/>
        <pt x="1323" y="0" on="1"/>
        <pt x="1272" y="0" on="0"/>
        <pt x="1186" y="-33" on="0"/>
        <pt x="1122" y="-88" on="0"/>
        <pt x="1085" y="-160" on="0"/>
        <pt x="1085" y="-199" on="1"/>
        <pt x="1085" y="-246" on="0"/>
        <pt x="1167" y="-313" on="0"/>
        <pt x="1227" y="-313" on="1"/>
        <pt x="1266" y="-313" on="0"/>
        <pt x="1323" y="-303" on="0"/>
        <pt x="1343" y="-293" on="1"/>
        <pt x="1393" y="-444" on="1"/>
        <pt x="1370" y="-457" on="0"/>
        <pt x="1274" y="-485" on="0"/>
        <pt x="1221" y="-485" on="1"/>
        <pt x="1143" y="-485" on="0"/>
        <pt x="1026" y="-440" on="0"/>
        <pt x="950" y="-367" on="0"/>
        <pt x="913" y="-272" on="0"/>
        <pt x="913" y="-225" on="1"/>
        <pt x="913" y="-158" on="0"/>
        <pt x="979" y="-35" on="0"/>
        <pt x="1032" y="0" on="1"/>
        <pt x="1032" y="172" on="1"/>
        <pt x="1165" y="172" on="1"/>
        <pt x="1044" y="516" on="1"/>
        <pt x="463" y="516" on="1"/>
        <pt x="346" y="172" on="1"/>
        <pt x="502" y="172" on="1"/>
        <pt x="502" y="0" on="1"/>
        <pt x="10" y="0" on="1"/>
      </contour>
      <contour>
        <pt x="520" y="682" on="1"/>
        <pt x="987" y="682" on="1"/>
        <pt x="752" y="1360" on="1"/>
      </contour>
    </TTGlyph>
    <TTGlyph name="Aring" xMin="10" yMin="0" xMax="1532" yMax="1948">
      <contour>
        <pt x="1040" y="172" on="1"/>
        <pt x="1165" y="172" on="1"/>
        <pt x="1044" y="516" on="1"/>
        <pt x="463" y="516" on="1"/>
        <pt x="346" y="172" on="1"/>
        <pt x="502" y="172" on="1"/>
        <pt x="502" y="0" on="1"/>
        <pt x="10" y="0" on="1"/>
        <pt x="10" y="172" on="1"/>
        <pt x="141" y="172" on="1"/>
        <pt x="604" y="1489" on="1"/>
        <pt x="557" y="1524" on="0"/>
        <pt x="504" y="1630" on="0"/>
        <pt x="504" y="1692" on="1"/>
        <pt x="504" y="1743" on="0"/>
        <pt x="545" y="1837" on="0"/>
        <pt x="614" y="1907" on="0"/>
        <pt x="707" y="1948" on="0"/>
        <pt x="760" y="1948" on="1"/>
        <pt x="811" y="1948" on="0"/>
        <pt x="905" y="1907" on="0"/>
        <pt x="975" y="1837" on="0"/>
        <pt x="1016" y="1743" on="0"/>
        <pt x="1016" y="1692" on="1"/>
        <pt x="1016" y="1632" on="0"/>
        <pt x="963" y="1526" on="0"/>
        <pt x="918" y="1491" on="1"/>
        <pt x="1380" y="172" on="1"/>
        <pt x="1532" y="172" on="1"/>
        <pt x="1532" y="0" on="1"/>
        <pt x="1040" y="0" on="1"/>
      </contour>
      <contour>
        <pt x="520" y="682" on="1"/>
        <pt x="987" y="682" on="1"/>
        <pt x="752" y="1360" on="1"/>
      </contour>
      <contour>
        <pt x="655" y="1692" on="1"/>
        <pt x="655" y="1651" on="0"/>
        <pt x="719" y="1587" on="0"/>
        <pt x="760" y="1587" on="1"/>
        <pt x="801" y="1587" on="0"/>
        <pt x="864" y="1651" on="0"/>
        <pt x="864" y="1692" on="1"/>
        <pt x="864" y="1733" on="0"/>
        <pt x="801" y="1796" on="0"/>
        <pt x="760" y="1796" on="1"/>
        <pt x="719" y="1796" on="0"/>
        <pt x="655" y="1733" on="0"/>
        <pt x="655" y="1692" on="1"/>
      </contour>
    </TTGlyph>
    <TTGlyph name="Atilde" xMin="10" yMin="0" xMax="1532" yMax="1894">
      <component glyphName="A" x="0" y="0" flags="0x204"/>
      <component glyphName="tilde" x="313" y="479" flags="0x4"/>
    </TTGlyph>
    <TTGlyph name="B" xMin="143" yMin="0" xMax="1276" yMax="1518">
      <contour>
        <pt x="143" y="172" on="1"/>
        <pt x="287" y="172" on="1"/>
        <pt x="287" y="1343" on="1"/>
        <pt x="143" y="1343" on="1"/>
        <pt x="143" y="1518" on="1"/>
        <pt x="825" y="1516" on="1"/>
        <pt x="917" y="1516" on="0"/>
        <pt x="1079" y="1447" on="0"/>
        <pt x="1199" y="1328" on="0"/>
        <pt x="1268" y="1166" on="0"/>
        <pt x="1268" y="1073" on="1"/>
        <pt x="1268" y="976" on="0"/>
        <pt x="1160" y="816" on="0"/>
        <pt x="1060" y="768" on="1"/>
        <pt x="1109" y="742" on="0"/>
        <pt x="1189" y="673" on="0"/>
        <pt x="1245" y="591" on="0"/>
        <pt x="1276" y="499" on="0"/>
        <pt x="1276" y="451" on="1"/>
        <pt x="1276" y="356" on="0"/>
        <pt x="1207" y="192" on="0"/>
        <pt x="1087" y="70" on="0"/>
        <pt x="926" y="0" on="0"/>
        <pt x="834" y="0" on="1"/>
        <pt x="143" y="0" on="1"/>
      </contour>
      <contour>
        <pt x="483" y="674" on="1"/>
        <pt x="483" y="172" on="1"/>
        <pt x="836" y="172" on="1"/>
        <pt x="884" y="172" on="0"/>
        <pt x="966" y="220" on="0"/>
        <pt x="1028" y="297" on="0"/>
        <pt x="1063" y="395" on="0"/>
        <pt x="1063" y="446" on="1"/>
        <pt x="1063" y="490" on="0"/>
        <pt x="1027" y="572" on="0"/>
        <pt x="966" y="636" on="0"/>
        <pt x="883" y="674" on="0"/>
        <pt x="836" y="674" on="1"/>
      </contour>
      <contour>
        <pt x="483" y="1343" on="1"/>
        <pt x="483" y="848" on="1"/>
        <pt x="827" y="848" on="1"/>
        <pt x="875" y="848" on="0"/>
        <pt x="958" y="886" on="0"/>
        <pt x="1019" y="950" on="0"/>
        <pt x="1055" y="1034" on="0"/>
        <pt x="1055" y="1079" on="1"/>
        <pt x="1055" y="1128" on="0"/>
        <pt x="1019" y="1223" on="0"/>
        <pt x="957" y="1297" on="0"/>
        <pt x="874" y="1343" on="0"/>
        <pt x="827" y="1343" on="1"/>
      </contour>
    </TTGlyph>
    <TTGlyph name="C" xMin="72" yMin="-30" xMax="1446" yMax="1546">
      <contour>
        <pt x="1219" y="1116" on="1"/>
        <pt x="1152" y="1230" on="0"/>
        <pt x="931" y="1360" on="0"/>
        <pt x="795" y="1360" on="1"/>
        <pt x="679" y="1360" on="0"/>
        <pt x="487" y="1262" on="0"/>
        <pt x="350" y="1097" on="0"/>
        <pt x="274" y="880" on="0"/>
        <pt x="274" y="760" on="1"/>
        <pt x="274" y="618" on="0"/>
        <pt x="358" y="399" on="0"/>
        <pt x="493" y="254" on="0"/>
        <pt x="679" y="157" on="0"/>
        <pt x="795" y="157" on="1"/>
        <pt x="953" y="157" on="0"/>
        <pt x="1187" y="310" on="0"/>
        <pt x="1270" y="485" on="1"/>
        <pt x="1446" y="402" on="1"/>
        <pt x="1408" y="294" on="0"/>
        <pt x="1226" y="93" on="0"/>
        <pt x="959" y="-30" on="0"/>
        <pt x="797" y="-30" on="1"/>
        <pt x="642" y="-30" on="0"/>
        <pt x="382" y="87" on="0"/>
        <pt x="179" y="303" on="0"/>
        <pt x="72" y="599" on="0"/>
        <pt x="72" y="760" on="1"/>
        <pt x="72" y="922" on="0"/>
        <pt x="179" y="1210" on="0"/>
        <pt x="372" y="1423" on="0"/>
        <pt x="639" y="1546" on="0"/>
        <pt x="795" y="1546" on="1"/>
        <pt x="934" y="1546" on="0"/>
        <pt x="1136" y="1467" on="0"/>
        <pt x="1277" y="1358" on="0"/>
        <pt x="1328" y="1294" on="1"/>
        <pt x="1434" y="1294" on="1"/>
        <pt x="1434" y="1116" on="1"/>
      </contour>
    </TTGlyph>
    <TTGlyph name="Cacute" xMin="72" yMin="-30" xMax="1925" yMax="2435">
      <component glyphName="C" x="0" y="0" flags="0x204"/>
      <component glyphName="acute" x="559" y="479" flags="0x4"/>
    </TTGlyph>
    <TTGlyph name="Ccaron" xMin="72" yMin="-30" xMax="1446" yMax="1967">
      <component glyphName="C" x="0" y="0" flags="0x204"/>
      <component glyphName="caron" x="299" y="479" flags="0x4"/>
    </TTGlyph>
    <TTGlyph name="Ccedilla" xMin="72" yMin="-432" xMax="1446" yMax="1546">
      <component glyphName="C" x="0" y="0" flags="0x204"/>
      <component glyphName="cedilla" x="328" y="0" flags="0x4"/>
    </TTGlyph>
    <TTGlyph name="D" xMin="143" yMin="0" xMax="1436" yMax="1516">
      <contour>
        <pt x="143" y="1516" on="1"/>
        <pt x="707" y="1516" on="1"/>
        <pt x="811" y="1516" on="0"/>
        <pt x="999" y="1462" on="0"/>
        <pt x="1161" y="1364" on="0"/>
        <pt x="1293" y="1227" on="0"/>
        <pt x="1386" y="1059" on="0"/>
        <pt x="1436" y="866" on="0"/>
        <pt x="1436" y="762" on="1"/>
        <pt x="1436" y="656" on="0"/>
        <pt x="1386" y="462" on="0"/>
        <pt x="1293" y="292" on="0"/>
        <pt x="1161" y="153" on="0"/>
        <pt x="999" y="54" on="0"/>
        <pt x="811" y="0" on="0"/>
        <pt x="707" y="0" on="1"/>
        <pt x="143" y="0" on="1"/>
        <pt x="143" y="172" on="1"/>
        <pt x="287" y="172" on="1"/>
        <pt x="287" y="1343" on="1"/>
        <pt x="143" y="1343" on="1"/>
      </contour>
      <contour>
        <pt x="483" y="1343" on="1"/>
        <pt x="483" y="172" on="1"/>
        <pt x="719" y="172" on="1"/>
        <pt x="824" y="172" on="0"/>
        <pt x="1009" y="264" on="0"/>
        <pt x="1147" y="423" on="0"/>
        <pt x="1227" y="638" on="0"/>
        <pt x="1227" y="762" on="1"/>
        <pt x="1227" y="884" on="0"/>
        <pt x="1147" y="1096" on="0"/>
        <pt x="1009" y="1253" on="0"/>
        <pt x="824" y="1343" on="0"/>
        <pt x="719" y="1343" on="1"/>
      </contour>
    </TTGlyph>
    <TTGlyph name="D_E" xMin="85" yMin="0" xMax="1984" yMax="1516">
      <contour>
        <pt x="814" y="0" on="1"/>
        <pt x="659" y="0" on="0"/>
        <pt x="393" y="119" on="0"/>
        <pt x="196" y="326" on="0"/>
        <pt x="85" y="604" on="0"/>
        <pt x="85" y="762" on="1"/>
        <pt x="85" y="918" on="0"/>
        <pt x="196" y="1194" on="0"/>
        <pt x="393" y="1397" on="0"/>
        <pt x="659" y="1516" on="0"/>
        <pt x="814" y="1516" on="1"/>
        <pt x="1984" y="1516" on="1"/>
        <pt x="1984" y="1087" on="1"/>
        <pt x="1779" y="1087" on="1"/>
        <pt x="1779" y="1343" on="1"/>
        <pt x="1238" y="1343" on="1"/>
        <pt x="1238" y="858" on="1"/>
        <pt x="1693" y="858" on="1"/>
        <pt x="1693" y="686" on="1"/>
        <pt x="1238" y="686" on="1"/>
        <pt x="1238" y="172" on="1"/>
        <pt x="1779" y="172" on="1"/>
        <pt x="1779" y="428" on="1"/>
        <pt x="1984" y="428" on="1"/>
        <pt x="1984" y="0" on="1"/>
      </contour>
      <contour>
        <pt x="294" y="762" on="1"/>
        <pt x="294" y="639" on="0"/>
        <pt x="374" y="424" on="0"/>
        <pt x="511" y="264" on="0"/>
        <pt x="698" y="172" on="0"/>
        <pt x="802" y="172" on="1"/>
        <pt x="1042" y="172" on="1"/>
        <pt x="1042" y="1343" on="1"/>
        <pt x="802" y="1343" on="1"/>
        <pt x="698" y="1343" on="0"/>
        <pt x="511" y="1253" on="0"/>
        <pt x="374" y="1096" on="0"/>
        <pt x="294" y="885" on="0"/>
        <pt x="294" y="762" on="1"/>
      </contour>
    </TTGlyph>
    <TTGlyph name="Dcaron" xMin="143" yMin="0" xMax="1436" yMax="2364">
      <component glyphName="D" x="0" y="0" flags="0x204"/>
      <component glyphName="caron" x="150" y="397" flags="0x4"/>
    </TTGlyph>
    <TTGlyph name="Dcroat" xMin="127" yMin="0" xMax="1444" yMax="1516">
      <component glyphName="Eth" x="0" y="0" flags="0x204"/>
    </TTGlyph>
    <TTGlyph name="E" xMin="143" yMin="0" xMax="1229" yMax="1516">
      <contour>
        <pt x="143" y="1516" on="1"/>
        <pt x="1229" y="1516" on="1"/>
        <pt x="1229" y="1087" on="1"/>
        <pt x="1024" y="1087" on="1"/>
        <pt x="1024" y="1343" on="1"/>
        <pt x="483" y="1343" on="1"/>
        <pt x="483" y="858" on="1"/>
        <pt x="938" y="858" on="1"/>
        <pt x="938" y="686" on="1"/>
        <pt x="483" y="686" on="1"/>
        <pt x="483" y="172" on="1"/>
        <pt x="1024" y="172" on="1"/>
        <pt x="1024" y="428" on="1"/>
        <pt x="1229" y="428" on="1"/>
        <pt x="1229" y="0" on="1"/>
        <pt x="143" y="0" on="1"/>
        <pt x="143" y="172" on="1"/>
        <pt x="287" y="172" on="1"/>
        <pt x="287" y="1343" on="1"/>
        <pt x="143" y="1343" on="1"/>
      </contour>
    </TTGlyph>
    <TTGlyph name="Eacute" xMin="143" yMin="0" xMax="2814" yMax="2914">
      <component glyphName="E" x="0" y="0" flags="0x204"/>
      <component glyphName="acute" x="502" y="479" flags="0x4"/>
    </TTGlyph>
    <TTGlyph name="Ecaron" xMin="143" yMin="0" xMax="1594" yMax="2843">
      <component glyphName="E" x="0" y="0" flags="0x204"/>
      <component glyphName="caron" x="242" y="479" flags="0x4"/>
    </TTGlyph>
    <TTGlyph name="Ecircumflex" xMin="143" yMin="0" xMax="1358" yMax="2447">
      <component glyphName="E" x="0" y="0" flags="0x204"/>
      <component glyphName="circumflex" x="250" y="479" flags="0x4"/>
    </TTGlyph>
    <TTGlyph name="Edieresis" xMin="143" yMin="0" xMax="1518" yMax="2447">
      <component glyphName="E" x="0" y="0" flags="0x204"/>
      <component glyphName="dieresis" x="313" y="479" flags="0x4"/>
    </TTGlyph>
    <TTGlyph name="Edotaccent" xMin="143" yMin="0" xMax="1229" yMax="2011">
      <component glyphName="E" x="0" y="0" flags="0x204"/>
      <component glyphName="dotaccent" x="440" y="479" flags="0x4"/>
    </TTGlyph>
    <TTGlyph name="Egrave" xMin="143" yMin="0" xMax="1229" yMax="2435">
      <component glyphName="E" x="0" y="0" flags="0x204"/>
      <component glyphName="grave" x="264" y="479" flags="0x4"/>
    </TTGlyph>
    <TTGlyph name="Emacron" xMin="143" yMin="0" xMax="1471" yMax="2304">
      <component glyphName="E" x="0" y="0" flags="0x204"/>
      <component glyphName="macron" x="283" y="479" flags="0x4"/>
    </TTGlyph>
    <TTGlyph name="Eogonek" xMin="143" yMin="-471" xMax="1229" yMax="1516">
      <contour>
        <pt x="143" y="1516" on="1"/>
        <pt x="1229" y="1516" on="1"/>
        <pt x="1229" y="1087" on="1"/>
        <pt x="1024" y="1087" on="1"/>
        <pt x="1024" y="1343" on="1"/>
        <pt x="483" y="1343" on="1"/>
        <pt x="483" y="858" on="1"/>
        <pt x="938" y="858" on="1"/>
        <pt x="938" y="686" on="1"/>
        <pt x="483" y="686" on="1"/>
        <pt x="483" y="172" on="1"/>
        <pt x="1024" y="172" on="1"/>
        <pt x="1024" y="428" on="1"/>
        <pt x="1229" y="428" on="1"/>
        <pt x="1229" y="0" on="1"/>
        <pt x="1210" y="0" on="1"/>
        <pt x="1081" y="-43" on="0"/>
        <pt x="944" y="-150" on="0"/>
        <pt x="944" y="-225" on="1"/>
        <pt x="944" y="-266" on="0"/>
        <pt x="1006" y="-324" on="0"/>
        <pt x="1057" y="-324" on="1"/>
        <pt x="1096" y="-324" on="0"/>
        <pt x="1165" y="-311" on="0"/>
        <pt x="1186" y="-301" on="1"/>
        <pt x="1229" y="-428" on="1"/>
        <pt x="1202" y="-444" on="0"/>
        <pt x="1108" y="-471" on="0"/>
        <pt x="1051" y="-471" on="1"/>
        <pt x="989" y="-471" on="0"/>
        <pt x="887" y="-442" on="0"/>
        <pt x="813" y="-389" on="0"/>
        <pt x="770" y="-311" on="0"/>
        <pt x="770" y="-260" on="1"/>
        <pt x="770" y="-174" on="0"/>
        <pt x="860" y="-45" on="0"/>
        <pt x="924" y="0" on="1"/>
        <pt x="143" y="0" on="1"/>
        <pt x="143" y="172" on="1"/>
        <pt x="287" y="172" on="1"/>
        <pt x="287" y="1343" on="1"/>
        <pt x="143" y="1343" on="1"/>
      </contour>
    </TTGlyph>
    <TTGlyph name="Eth" xMin="127" yMin="0" xMax="1444" yMax="1516">
      <contour>
        <pt x="139" y="1516" on="1"/>
        <pt x="715" y="1516" on="1"/>
        <pt x="870" y="1516" on="0"/>
        <pt x="1137" y="1397" on="0"/>
        <pt x="1333" y="1194" on="0"/>
        <pt x="1444" y="918" on="0"/>
        <pt x="1444" y="762" on="1"/>
        <pt x="1444" y="604" on="0"/>
        <pt x="1333" y="326" on="0"/>
        <pt x="1137" y="119" on="0"/>
        <pt x="870" y="0" on="0"/>
        <pt x="715" y="0" on="1"/>
        <pt x="139" y="0" on="1"/>
        <pt x="139" y="172" on="1"/>
        <pt x="295" y="172" on="1"/>
        <pt x="295" y="676" on="1"/>
        <pt x="127" y="676" on="1"/>
        <pt x="127" y="848" on="1"/>
        <pt x="295" y="848" on="1"/>
        <pt x="295" y="1343" on="1"/>
        <pt x="139" y="1343" on="1"/>
      </contour>
      <contour>
        <pt x="492" y="676" on="1"/>
        <pt x="492" y="172" on="1"/>
        <pt x="727" y="172" on="1"/>
        <pt x="831" y="172" on="0"/>
        <pt x="1018" y="264" on="0"/>
        <pt x="1155" y="424" on="0"/>
        <pt x="1235" y="639" on="0"/>
        <pt x="1235" y="762" on="1"/>
        <pt x="1235" y="885" on="0"/>
        <pt x="1155" y="1096" on="0"/>
        <pt x="1018" y="1253" on="0"/>
        <pt x="831" y="1343" on="0"/>
        <pt x="727" y="1343" on="1"/>
        <pt x="492" y="1343" on="1"/>
        <pt x="492" y="848" on="1"/>
        <pt x="678" y="848" on="1"/>
        <pt x="678" y="676" on="1"/>
      </contour>
    </TTGlyph>
    <TTGlyph name="Euro" xMin="66" yMin="-25" xMax="1438" yMax="1544">
      <contour>
        <pt x="1212" y="1116" on="1"/>
        <pt x="1147" y="1231" on="0"/>
        <pt x="944" y="1358" on="0"/>
        <pt x="788" y="1358" on="1"/>
        <pt x="696" y="1358" on="0"/>
        <pt x="535" y="1298" on="0"/>
        <pt x="408" y="1192" on="0"/>
        <pt x="317" y="1047" on="0"/>
        <pt x="293" y="961" on="1"/>
        <pt x="901" y="961" on="1"/>
        <pt x="793" y="774" on="1"/>
        <pt x="268" y="774" on="1"/>
        <pt x="268" y="743" on="0"/>
        <pt x="274" y="682" on="0"/>
        <pt x="279" y="653" on="1"/>
        <pt x="901" y="653" on="1"/>
        <pt x="793" y="467" on="1"/>
        <pt x="338" y="467" on="1"/>
        <pt x="403" y="332" on="0"/>
        <pt x="635" y="164" on="0"/>
        <pt x="788" y="164" on="1"/>
        <pt x="874" y="164" on="0"/>
        <pt x="1014" y="205" on="0"/>
        <pt x="1126" y="289" on="0"/>
        <pt x="1219" y="412" on="0"/>
        <pt x="1257" y="494" on="1"/>
        <pt x="1438" y="412" on="1"/>
        <pt x="1391" y="313" on="0"/>
        <pt x="1266" y="154" on="0"/>
        <pt x="1102" y="39" on="0"/>
        <pt x="905" y="-25" on="0"/>
        <pt x="788" y="-25" on="1"/>
        <pt x="629" y="-25" on="0"/>
        <pt x="362" y="100" on="0"/>
        <pt x="172" y="315" on="0"/>
        <pt x="66" y="600" on="0"/>
        <pt x="66" y="760" on="1"/>
        <pt x="66" y="920" on="0"/>
        <pt x="172" y="1204" on="0"/>
        <pt x="365" y="1419" on="0"/>
        <pt x="629" y="1544" on="0"/>
        <pt x="788" y="1544" on="1"/>
        <pt x="883" y="1544" on="0"/>
        <pt x="1038" y="1509" on="0"/>
        <pt x="1169" y="1444" on="0"/>
        <pt x="1280" y="1352" on="0"/>
        <pt x="1333" y="1294" on="1"/>
        <pt x="1427" y="1294" on="1"/>
        <pt x="1427" y="1116" on="1"/>
      </contour>
    </TTGlyph>
    <TTGlyph name="F" xMin="143" yMin="0" xMax="1229" yMax="1516">
      <contour>
        <pt x="143" y="1516" on="1"/>
        <pt x="1229" y="1516" on="1"/>
        <pt x="1229" y="1087" on="1"/>
        <pt x="1024" y="1087" on="1"/>
        <pt x="1024" y="1343" on="1"/>
        <pt x="483" y="1343" on="1"/>
        <pt x="483" y="856" on="1"/>
        <pt x="1004" y="856" on="1"/>
        <pt x="1004" y="688" on="1"/>
        <pt x="483" y="688" on="1"/>
        <pt x="483" y="172" on="1"/>
        <pt x="635" y="172" on="1"/>
        <pt x="635" y="0" on="1"/>
        <pt x="143" y="0" on="1"/>
        <pt x="143" y="172" on="1"/>
        <pt x="287" y="172" on="1"/>
        <pt x="287" y="1343" on="1"/>
        <pt x="143" y="1343" on="1"/>
      </contour>
    </TTGlyph>
    <TTGlyph name="G" xMin="72" yMin="-12" xMax="1499" yMax="1546">
      <contour>
        <pt x="1313" y="-6" on="1"/>
        <pt x="1313" y="298" on="1"/>
        <pt x="1275" y="219" on="0"/>
        <pt x="1161" y="102" on="0"/>
        <pt x="1021" y="26" on="0"/>
        <pt x="862" y="-12" on="0"/>
        <pt x="780" y="-12" on="1"/>
        <pt x="632" y="-12" on="0"/>
        <pt x="382" y="87" on="0"/>
        <pt x="179" y="303" on="0"/>
        <pt x="72" y="599" on="0"/>
        <pt x="72" y="760" on="1"/>
        <pt x="72" y="922" on="0"/>
        <pt x="179" y="1210" on="0"/>
        <pt x="372" y="1424" on="0"/>
        <pt x="639" y="1546" on="0"/>
        <pt x="795" y="1546" on="1"/>
        <pt x="939" y="1546" on="0"/>
        <pt x="1146" y="1464" on="0"/>
        <pt x="1293" y="1347" on="0"/>
        <pt x="1337" y="1294" on="1"/>
        <pt x="1434" y="1294" on="1"/>
        <pt x="1434" y="1116" on="1"/>
        <pt x="1219" y="1116" on="1"/>
        <pt x="1152" y="1230" on="0"/>
        <pt x="931" y="1362" on="0"/>
        <pt x="794" y="1360" on="1"/>
        <pt x="679" y="1360" on="0"/>
        <pt x="487" y="1262" on="0"/>
        <pt x="350" y="1096" on="0"/>
        <pt x="274" y="880" on="0"/>
        <pt x="274" y="760" on="1"/>
        <pt x="274" y="627" on="0"/>
        <pt x="358" y="399" on="0"/>
        <pt x="488" y="257" on="0"/>
        <pt x="679" y="164" on="0"/>
        <pt x="795" y="164" on="1"/>
        <pt x="987" y="164" on="0"/>
        <pt x="1233" y="351" on="0"/>
        <pt x="1282" y="549" on="1"/>
        <pt x="858" y="549" on="1"/>
        <pt x="858" y="721" on="1"/>
        <pt x="1499" y="721" on="1"/>
        <pt x="1499" y="-6" on="1"/>
      </contour>
    </TTGlyph>
    <TTGlyph name="Gamma" xMin="143" yMin="0" xMax="1217" yMax="1516">
      <component glyphName="uni0413" x="0" y="0" flags="0x204"/>
    </TTGlyph>
    <TTGlyph name="Gbreve" xMin="72" yMin="-12" xMax="1532" yMax="2437">
      <component glyphName="G" x="0" y="0" flags="0x204"/>
      <component glyphName="breve" x="350" y="479" flags="0x4"/>
    </TTGlyph>
    <TTGlyph name="Gcommaaccent" xMin="72" yMin="-473" xMax="1499" yMax="1546">
      <component glyphName="G" x="0" y="0" flags="0x204"/>
      <component glyphName="commabelow" x="655" y="0" flags="0x4"/>
    </TTGlyph>
    <TTGlyph name="H" xMin="143" yMin="0" xMax="1700" yMax="1516">
      <contour>
        <pt x="1208" y="1516" on="1"/>
        <pt x="1700" y="1516" on="1"/>
        <pt x="1700" y="1344" on="1"/>
        <pt x="1556" y="1344" on="1"/>
        <pt x="1556" y="172" on="1"/>
        <pt x="1700" y="172" on="1"/>
        <pt x="1700" y="0" on="1"/>
        <pt x="1208" y="0" on="1"/>
        <pt x="1208" y="172" on="1"/>
        <pt x="1360" y="172" on="1"/>
        <pt x="1360" y="717" on="1"/>
        <pt x="483" y="717" on="1"/>
        <pt x="483" y="172" on="1"/>
        <pt x="635" y="172" on="1"/>
        <pt x="635" y="0" on="1"/>
        <pt x="143" y="0" on="1"/>
        <pt x="143" y="172" on="1"/>
        <pt x="287" y="172" on="1"/>
        <pt x="287" y="1344" on="1"/>
        <pt x="143" y="1344" on="1"/>
        <pt x="143" y="1516" on="1"/>
        <pt x="635" y="1516" on="1"/>
        <pt x="635" y="1344" on="1"/>
        <pt x="483" y="1344" on="1"/>
        <pt x="483" y="885" on="1"/>
        <pt x="1360" y="885" on="1"/>
        <pt x="1360" y="1344" on="1"/>
        <pt x="1208" y="1344" on="1"/>
      </contour>
    </TTGlyph>
    <TTGlyph name="I" xMin="143" yMin="0" xMax="627" yMax="1516">
      <contour>
        <pt x="143" y="1516" on="1"/>
        <pt x="627" y="1516" on="1"/>
        <pt x="627" y="1343" on="1"/>
        <pt x="483" y="1343" on="1"/>
        <pt x="483" y="172" on="1"/>
        <pt x="627" y="172" on="1"/>
        <pt x="627" y="0" on="1"/>
        <pt x="143" y="0" on="1"/>
        <pt x="143" y="172" on="1"/>
        <pt x="287" y="172" on="1"/>
        <pt x="287" y="1343" on="1"/>
        <pt x="143" y="1343" on="1"/>
      </contour>
    </TTGlyph>
    <TTGlyph name="Iacute" xMin="143" yMin="0" xMax="3332" yMax="3393">
      <component glyphName="I" x="0" y="0" flags="0x204"/>
      <component glyphName="acute" x="162" y="479" flags="0x4"/>
    </TTGlyph>
    <TTGlyph name="Icircumflex" xMin="143" yMin="0" xMax="1373" yMax="2926">
      <component glyphName="I" x="0" y="0" flags="0x204"/>
      <component glyphName="circumflex" x="-89" y="479" flags="0x4"/>
    </TTGlyph>
    <TTGlyph name="Idieresis" xMin="105" yMin="0" xMax="674" yMax="1968">
      <component glyphName="I" x="0" y="0" flags="0x204"/>
      <component glyphName="dieresis.i" x="-26" y="479" flags="0x4"/>
    </TTGlyph>
    <TTGlyph name="Idotaccent" xMin="143" yMin="0" xMax="3139" yMax="3757">
      <component glyphName="I" x="0" y="0" flags="0x204"/>
      <component glyphName="dotaccent" x="100" y="479" flags="0x4"/>
    </TTGlyph>
    <TTGlyph name="Igrave" xMin="143" yMin="0" xMax="1194" yMax="2914">
      <component glyphName="I" x="0" y="0" flags="0x204"/>
      <component glyphName="grave" x="-75" y="479" flags="0x4"/>
    </TTGlyph>
    <TTGlyph name="Imacron" xMin="143" yMin="0" xMax="1578" yMax="2783">
      <component glyphName="I" x="0" y="0" flags="0x204"/>
      <component glyphName="macron" x="-30" y="479" flags="0x4"/>
    </TTGlyph>
    <TTGlyph name="Iogonek" xMin="143" yMin="-471" xMax="637" yMax="1516">
      <contour>
        <pt x="145" y="1516" on="1"/>
        <pt x="637" y="1516" on="1"/>
        <pt x="637" y="1343" on="1"/>
        <pt x="479" y="1343" on="1"/>
        <pt x="479" y="172" on="1"/>
        <pt x="635" y="172" on="1"/>
        <pt x="635" y="0" on="1"/>
        <pt x="588" y="0" on="1"/>
        <pt x="549" y="-2" on="0"/>
        <pt x="465" y="-31" on="0"/>
        <pt x="397" y="-82" on="0"/>
        <pt x="352" y="-160" on="0"/>
        <pt x="352" y="-211" on="1"/>
        <pt x="352" y="-264" on="0"/>
        <pt x="414" y="-324" on="0"/>
        <pt x="465" y="-324" on="1"/>
        <pt x="504" y="-324" on="0"/>
        <pt x="573" y="-311" on="0"/>
        <pt x="594" y="-301" on="1"/>
        <pt x="637" y="-428" on="1"/>
        <pt x="610" y="-444" on="0"/>
        <pt x="516" y="-471" on="0"/>
        <pt x="459" y="-471" on="1"/>
        <pt x="336" y="-471" on="0"/>
        <pt x="178" y="-362" on="0"/>
        <pt x="178" y="-260" on="1"/>
        <pt x="178" y="-170" on="0"/>
        <pt x="264" y="-43" on="0"/>
        <pt x="326" y="0" on="1"/>
        <pt x="143" y="0" on="1"/>
        <pt x="143" y="172" on="1"/>
        <pt x="283" y="172" on="1"/>
        <pt x="283" y="1343" on="1"/>
        <pt x="145" y="1343" on="1"/>
      </contour>
    </TTGlyph>
    <TTGlyph name="J" xMin="87" yMin="-238" xMax="626" yMax="1516">
      <contour>
        <pt x="135" y="1516" on="1"/>
        <pt x="626" y="1516" on="1"/>
        <pt x="626" y="1343" on="1"/>
        <pt x="499" y="1343" on="1"/>
        <pt x="499" y="172" on="1"/>
        <pt x="499" y="150" on="0"/>
        <pt x="478" y="91" on="0"/>
        <pt x="445" y="25" on="0"/>
        <pt x="401" y="-44" on="0"/>
        <pt x="379" y="-77" on="1"/>
        <pt x="326" y="-154" on="0"/>
        <pt x="259" y="-238" on="1"/>
        <pt x="87" y="-223" on="1"/>
        <pt x="146" y="-133" on="0"/>
        <pt x="193" y="-51" on="1"/>
        <pt x="213" y="-16" on="0"/>
        <pt x="251" y="57" on="0"/>
        <pt x="281" y="125" on="0"/>
        <pt x="300" y="184" on="0"/>
        <pt x="300" y="205" on="1"/>
        <pt x="300" y="1343" on="1"/>
        <pt x="135" y="1343" on="1"/>
      </contour>
    </TTGlyph>
    <TTGlyph name="K" xMin="143" yMin="0" xMax="1495" yMax="1516">
      <contour>
        <pt x="1147" y="1343" on="1"/>
        <pt x="1147" y="1516" on="1"/>
        <pt x="1495" y="1516" on="1"/>
        <pt x="1495" y="1343" on="1"/>
        <pt x="1376" y="1343" on="1"/>
        <pt x="712" y="784" on="1"/>
        <pt x="1333" y="172" on="1"/>
        <pt x="1495" y="172" on="1"/>
        <pt x="1495" y="0" on="1"/>
        <pt x="1087" y="0" on="1"/>
        <pt x="1087" y="172" on="1"/>
        <pt x="485" y="774" on="1"/>
      </contour>
      <contour>
        <pt x="145" y="1516" on="1"/>
        <pt x="637" y="1516" on="1"/>
        <pt x="637" y="1343" on="1"/>
        <pt x="483" y="1343" on="1"/>
        <pt x="483" y="172" on="1"/>
        <pt x="635" y="172" on="1"/>
        <pt x="635" y="0" on="1"/>
        <pt x="143" y="0" on="1"/>
        <pt x="143" y="172" on="1"/>
        <pt x="287" y="172" on="1"/>
        <pt x="287" y="1343" on="1"/>
        <pt x="145" y="1343" on="1"/>
      </contour>
    </TTGlyph>
    <TTGlyph name="Kcommaaccent" xMin="143" yMin="-473" xMax="1597" yMax="1516">
      <component glyphName="K" x="0" y="0" flags="0x204"/>
      <component glyphName="commabelow" x="598" y="0" flags="0x4"/>
    </TTGlyph>
    <TTGlyph name="L" xMin="143" yMin="0" xMax="1286" yMax="1516">
      <contour>
        <pt x="143" y="1516" on="1"/>
        <pt x="635" y="1516" on="1"/>
        <pt x="635" y="1343" on="1"/>
        <pt x="483" y="1343" on="1"/>
        <pt x="483" y="172" on="1"/>
        <pt x="1006" y="172" on="1"/>
        <pt x="1022" y="172" on="0"/>
        <pt x="1054" y="187" on="0"/>
        <pt x="1080" y="211" on="0"/>
        <pt x="1096" y="242" on="0"/>
        <pt x="1096" y="258" on="1"/>
        <pt x="1096" y="449" on="1"/>
        <pt x="1286" y="449" on="1"/>
        <pt x="1286" y="0" on="1"/>
        <pt x="143" y="0" on="1"/>
        <pt x="143" y="172" on="1"/>
        <pt x="287" y="172" on="1"/>
        <pt x="287" y="1343" on="1"/>
        <pt x="143" y="1343" on="1"/>
      </contour>
    </TTGlyph>
    <TTGlyph name="Lacute" xMin="143" yMin="0" xMax="3654" yMax="3790">
      <component glyphName="L" x="0" y="0" flags="0x204"/>
      <component glyphName="acute" x="227" y="397" flags="0x4"/>
    </TTGlyph>
    <TTGlyph name="Lcaron" xMin="143" yMin="0" xMax="2274" yMax="1555">
      <component glyphName="L" x="0" y="0" flags="0x204"/>
      <component glyphName="quotesingle" x="887" y="-38" flags="0x4"/>
    </TTGlyph>
    <TTGlyph name="Lcommaaccent" xMin="143" yMin="-473" xMax="2517" yMax="1516">
      <component glyphName="L" x="0" y="0" flags="0x204"/>
      <component glyphName="commabelow" x="465" y="0" flags="0x4"/>
    </TTGlyph>
    <TTGlyph name="Lslash" xMin="143" yMin="0" xMax="1286" yMax="1516">
      <contour>
        <pt x="143" y="1516" on="1"/>
        <pt x="635" y="1516" on="1"/>
        <pt x="635" y="1343" on="1"/>
        <pt x="477" y="1343" on="1"/>
        <pt x="477" y="786" on="1"/>
        <pt x="1038" y="1090" on="1"/>
        <pt x="1038" y="881" on="1"/>
        <pt x="477" y="578" on="1"/>
        <pt x="477" y="172" on="1"/>
        <pt x="999" y="172" on="1"/>
        <pt x="1032" y="172" on="0"/>
        <pt x="1090" y="225" on="0"/>
        <pt x="1090" y="258" on="1"/>
        <pt x="1090" y="449" on="1"/>
        <pt x="1286" y="449" on="1"/>
        <pt x="1286" y="0" on="1"/>
        <pt x="143" y="0" on="1"/>
        <pt x="143" y="172" on="1"/>
        <pt x="281" y="172" on="1"/>
        <pt x="281" y="473" on="1"/>
        <pt x="143" y="399" on="1"/>
        <pt x="143" y="608" on="1"/>
        <pt x="281" y="682" on="1"/>
        <pt x="281" y="1343" on="1"/>
        <pt x="143" y="1343" on="1"/>
      </contour>
    </TTGlyph>
    <TTGlyph name="M" xMin="143" yMin="0" xMax="2046" yMax="1516">
      <contour>
        <pt x="143" y="172" on="1"/>
        <pt x="287" y="172" on="1"/>
        <pt x="287" y="1325" on="1"/>
        <pt x="143" y="1325" on="1"/>
        <pt x="143" y="1516" on="1"/>
        <pt x="623" y="1516" on="1"/>
        <pt x="1104" y="207" on="1"/>
        <pt x="1591" y="1516" on="1"/>
        <pt x="2046" y="1516" on="1"/>
        <pt x="2046" y="1325" on="1"/>
        <pt x="1903" y="1325" on="1"/>
        <pt x="1903" y="172" on="1"/>
        <pt x="2046" y="172" on="1"/>
        <pt x="2046" y="0" on="1"/>
        <pt x="1554" y="0" on="1"/>
        <pt x="1554" y="172" on="1"/>
        <pt x="1716" y="172" on="1"/>
        <pt x="1716" y="1336" on="1"/>
        <pt x="1186" y="0" on="1"/>
        <pt x="1016" y="0" on="1"/>
        <pt x="479" y="1339" on="1"/>
        <pt x="479" y="172" on="1"/>
        <pt x="635" y="172" on="1"/>
        <pt x="635" y="0" on="1"/>
        <pt x="143" y="0" on="1"/>
      </contour>
    </TTGlyph>
    <TTGlyph name="N" xMin="143" yMin="0" xMax="1573" yMax="1518">
      <contour>
        <pt x="1081" y="1516" on="1"/>
        <pt x="1573" y="1516" on="1"/>
        <pt x="1573" y="1343" on="1"/>
        <pt x="1444" y="1343" on="1"/>
        <pt x="1444" y="0" on="1"/>
        <pt x="1188" y="0" on="1"/>
        <pt x="483" y="1257" on="1"/>
        <pt x="483" y="172" on="1"/>
        <pt x="639" y="172" on="1"/>
        <pt x="639" y="0" on="1"/>
        <pt x="147" y="0" on="1"/>
        <pt x="147" y="172" on="1"/>
        <pt x="287" y="172" on="1"/>
        <pt x="287" y="1343" on="1"/>
        <pt x="143" y="1343" on="1"/>
        <pt x="143" y="1518" on="1"/>
        <pt x="551" y="1518" on="1"/>
        <pt x="1243" y="273" on="1"/>
        <pt x="1251" y="321" on="1"/>
        <pt x="1251" y="1343" on="1"/>
        <pt x="1081" y="1343" on="1"/>
      </contour>
    </TTGlyph>
    <TTGlyph name="Nacute" xMin="143" yMin="0" xMax="4381" yMax="4711">
      <component glyphName="N" x="0" y="0" flags="0x204"/>
      <component glyphName="acute" x="602" y="479" flags="0x4"/>
    </TTGlyph>
    <TTGlyph name="Ncaron" xMin="143" yMin="0" xMax="2032" yMax="3322">
      <component glyphName="N" x="0" y="0" flags="0x204"/>
      <component glyphName="caron" x="342" y="479" flags="0x4"/>
    </TTGlyph>
    <TTGlyph name="Ncommaaccent" xMin="143" yMin="-473" xMax="3296" yMax="1518">
      <component glyphName="N" x="0" y="0" flags="0x204"/>
      <component glyphName="commabelow" x="629" y="0" flags="0x4"/>
    </TTGlyph>
    <TTGlyph name="Ntilde" xMin="143" yMin="0" xMax="1583" yMax="2373">
      <component glyphName="N" x="0" y="0" flags="0x204"/>
      <component glyphName="tilde" x="383" y="479" flags="0x4"/>
    </TTGlyph>
    <TTGlyph name="O" xMin="72" yMin="-30" xMax="1526" yMax="1546">
      <contour>
        <pt x="799" y="-30" on="1"/>
        <pt x="642" y="-30" on="0"/>
        <pt x="382" y="87" on="0"/>
        <pt x="178" y="303" on="0"/>
        <pt x="72" y="599" on="0"/>
        <pt x="72" y="758" on="1"/>
        <pt x="72" y="922" on="0"/>
        <pt x="179" y="1210" on="0"/>
        <pt x="372" y="1423" on="0"/>
        <pt x="639" y="1546" on="0"/>
        <pt x="799" y="1546" on="1"/>
        <pt x="960" y="1546" on="0"/>
        <pt x="1228" y="1423" on="0"/>
        <pt x="1420" y="1210" on="0"/>
        <pt x="1526" y="922" on="0"/>
        <pt x="1526" y="758" on="1"/>
        <pt x="1526" y="594" on="0"/>
        <pt x="1419" y="307" on="0"/>
        <pt x="1226" y="93" on="0"/>
        <pt x="959" y="-30" on="0"/>
      </contour>
      <contour>
        <pt x="799" y="156" on="1"/>
        <pt x="918" y="156" on="0"/>
        <pt x="1111" y="254" on="0"/>
        <pt x="1247" y="419" on="0"/>
        <pt x="1321" y="637" on="0"/>
        <pt x="1321" y="758" on="1"/>
        <pt x="1321" y="882" on="0"/>
        <pt x="1240" y="1113" on="0"/>
        <pt x="1095" y="1273" on="0"/>
        <pt x="903" y="1360" on="0"/>
        <pt x="799" y="1360" on="1"/>
        <pt x="680" y="1360" on="0"/>
        <pt x="486" y="1262" on="0"/>
        <pt x="350" y="1097" on="0"/>
        <pt x="276" y="878" on="0"/>
        <pt x="276" y="758" on="1"/>
        <pt x="276" y="618" on="0"/>
        <pt x="358" y="399" on="0"/>
        <pt x="493" y="254" on="0"/>
        <pt x="680" y="156" on="0"/>
      </contour>
    </TTGlyph>
    <TTGlyph name="OE" xMin="72" yMin="-31" xMax="2277" yMax="1546">
      <contour>
        <pt x="801" y="-31" on="1"/>
        <pt x="641" y="-31" on="0"/>
        <pt x="373" y="92" on="0"/>
        <pt x="178" y="307" on="0"/>
        <pt x="72" y="594" on="0"/>
        <pt x="72" y="758" on="1"/>
        <pt x="72" y="922" on="0"/>
        <pt x="180" y="1210" on="0"/>
        <pt x="373" y="1423" on="0"/>
        <pt x="641" y="1546" on="0"/>
        <pt x="801" y="1546" on="1"/>
        <pt x="967" y="1546" on="0"/>
        <pt x="1237" y="1417" on="0"/>
        <pt x="1335" y="1305" on="1"/>
        <pt x="1335" y="1516" on="1"/>
        <pt x="2277" y="1516" on="1"/>
        <pt x="2277" y="1087" on="1"/>
        <pt x="2073" y="1087" on="1"/>
        <pt x="2073" y="1343" on="1"/>
        <pt x="1532" y="1343" on="1"/>
        <pt x="1532" y="858" on="1"/>
        <pt x="1987" y="858" on="1"/>
        <pt x="1987" y="686" on="1"/>
        <pt x="1532" y="686" on="1"/>
        <pt x="1532" y="172" on="1"/>
        <pt x="2073" y="172" on="1"/>
        <pt x="2073" y="428" on="1"/>
        <pt x="2277" y="428" on="1"/>
        <pt x="2277" y="0" on="1"/>
        <pt x="1335" y="0" on="1"/>
        <pt x="1335" y="213" on="1"/>
        <pt x="1237" y="98" on="0"/>
        <pt x="967" y="-31" on="0"/>
        <pt x="801" y="-31" on="1"/>
      </contour>
      <contour>
        <pt x="801" y="158" on="1"/>
        <pt x="920" y="158" on="0"/>
        <pt x="1112" y="254" on="0"/>
        <pt x="1247" y="420" on="0"/>
        <pt x="1321" y="637" on="0"/>
        <pt x="1321" y="758" on="1"/>
        <pt x="1321" y="877" on="0"/>
        <pt x="1247" y="1096" on="0"/>
        <pt x="1112" y="1262" on="0"/>
        <pt x="920" y="1360" on="0"/>
        <pt x="801" y="1360" on="1"/>
        <pt x="682" y="1360" on="0"/>
        <pt x="487" y="1262" on="0"/>
        <pt x="350" y="1096" on="0"/>
        <pt x="276" y="879" on="0"/>
        <pt x="276" y="758" on="1"/>
        <pt x="276" y="637" on="0"/>
        <pt x="352" y="420" on="0"/>
        <pt x="489" y="254" on="0"/>
        <pt x="682" y="158" on="0"/>
        <pt x="801" y="158" on="1"/>
      </contour>
    </TTGlyph>
    <TTGlyph name="Oacute" xMin="72" yMin="-30" xMax="5415" yMax="5190">
      <component glyphName="O" x="0" y="0" flags="0x204"/>
      <component glyphName="acute" x="573" y="479" flags="0x4"/>
    </TTGlyph>
    <TTGlyph name="Ocircumflex" xMin="72" yMin="-30" xMax="1695" yMax="3405">
      <component glyphName="O" x="0" y="0" flags="0x204"/>
      <component glyphName="circumflex" x="322" y="479" flags="0x4"/>
    </TTGlyph>
    <TTGlyph name="Odieresis" xMin="72" yMin="-30" xMax="2071" yMax="2926">
      <component glyphName="O" x="0" y="0" flags="0x204"/>
      <component glyphName="dieresis" x="385" y="479" flags="0x4"/>
    </TTGlyph>
    <TTGlyph name="Ograve" xMin="72" yMin="-30" xMax="1526" yMax="3393">
      <component glyphName="O" x="0" y="0" flags="0x204"/>
      <component glyphName="grave" x="336" y="479" flags="0x4"/>
    </TTGlyph>
    <TTGlyph name="Ohm" xMin="174" yMin="0" xMax="1763" yMax="1548">
      <component glyphName="uni2126" x="0" y="0" flags="0x204"/>
    </TTGlyph>
    <TTGlyph name="Ohungarumlaut" xMin="72" yMin="-30" xMax="1526" yMax="1957">
      <component glyphName="O" x="0" y="0" flags="0x204"/>
      <component glyphName="hungarumlaut" x="197" y="479" flags="0x4"/>
    </TTGlyph>
    <TTGlyph name="Omacron" xMin="72" yMin="-30" xMax="1842" yMax="3262">
      <component glyphName="O" x="0" y="0" flags="0x204"/>
      <component glyphName="macron" x="354" y="479" flags="0x4"/>
    </TTGlyph>
    <TTGlyph name="Oslash" xMin="67" yMin="-34" xMax="1542" yMax="1604">
      <contour>
        <pt x="263" y="218" on="1"/>
        <pt x="173" y="324" on="0"/>
        <pt x="76" y="600" on="0"/>
        <pt x="76" y="758" on="1"/>
        <pt x="76" y="867" on="0"/>
        <pt x="125" y="1069" on="0"/>
        <pt x="215" y="1245" on="0"/>
        <pt x="344" y="1388" on="0"/>
        <pt x="506" y="1490" on="0"/>
        <pt x="696" y="1546" on="0"/>
        <pt x="803" y="1546" on="1"/>
        <pt x="918" y="1546" on="0"/>
        <pt x="1118" y="1482" on="0"/>
        <pt x="1203" y="1425" on="1"/>
        <pt x="1343" y="1604" on="1"/>
        <pt x="1542" y="1604" on="1"/>
        <pt x="1322" y="1322" on="1"/>
        <pt x="1421" y="1214" on="0"/>
        <pt x="1530" y="926" on="0"/>
        <pt x="1530" y="758" on="1"/>
        <pt x="1530" y="649" on="0"/>
        <pt x="1481" y="447" on="0"/>
        <pt x="1391" y="272" on="0"/>
        <pt x="1262" y="128" on="0"/>
        <pt x="1100" y="25" on="0"/>
        <pt x="909" y="-31" on="0"/>
        <pt x="803" y="-31" on="1"/>
        <pt x="679" y="-31" on="0"/>
        <pt x="465" y="42" on="0"/>
        <pt x="377" y="109" on="1"/>
        <pt x="266" y="-34" on="1"/>
        <pt x="67" y="-34" on="1"/>
      </contour>
      <contour>
        <pt x="803" y="158" on="1"/>
        <pt x="922" y="158" on="0"/>
        <pt x="1114" y="255" on="0"/>
        <pt x="1250" y="420" on="0"/>
        <pt x="1323" y="637" on="0"/>
        <pt x="1323" y="758" on="1"/>
        <pt x="1323" y="871" on="0"/>
        <pt x="1257" y="1078" on="0"/>
        <pt x="1196" y="1159" on="1"/>
        <pt x="498" y="264" on="1"/>
        <pt x="560" y="213" on="0"/>
        <pt x="713" y="158" on="0"/>
      </contour>
      <contour>
        <pt x="391" y="381" on="1"/>
        <pt x="1083" y="1271" on="1"/>
        <pt x="1024" y="1313" on="0"/>
        <pt x="884" y="1360" on="0"/>
        <pt x="803" y="1360" on="1"/>
        <pt x="684" y="1360" on="0"/>
        <pt x="491" y="1262" on="0"/>
        <pt x="355" y="1097" on="0"/>
        <pt x="281" y="878" on="0"/>
        <pt x="281" y="758" on="1"/>
        <pt x="281" y="652" on="0"/>
        <pt x="337" y="460" on="0"/>
      </contour>
    </TTGlyph>
    <TTGlyph name="Otilde" xMin="72" yMin="-30" xMax="2179" yMax="2852">
      <component glyphName="O" x="0" y="0" flags="0x204"/>
      <component glyphName="tilde" x="354" y="479" flags="0x4"/>
    </TTGlyph>
    <TTGlyph name="P" xMin="143" yMin="0" xMax="1223" yMax="1516">
      <contour>
        <pt x="143" y="1516" on="1"/>
        <pt x="756" y="1516" on="1"/>
        <pt x="858" y="1516" on="0"/>
        <pt x="1029" y="1463" on="0"/>
        <pt x="1154" y="1360" on="0"/>
        <pt x="1223" y="1206" on="0"/>
        <pt x="1223" y="1106" on="1"/>
        <pt x="1223" y="1023" on="0"/>
        <pt x="1155" y="876" on="0"/>
        <pt x="1031" y="766" on="0"/>
        <pt x="858" y="702" on="0"/>
        <pt x="752" y="702" on="1"/>
        <pt x="483" y="702" on="1"/>
        <pt x="483" y="172" on="1"/>
        <pt x="635" y="172" on="1"/>
        <pt x="635" y="0" on="1"/>
        <pt x="143" y="0" on="1"/>
        <pt x="143" y="172" on="1"/>
        <pt x="287" y="172" on="1"/>
        <pt x="287" y="1343" on="1"/>
        <pt x="143" y="1343" on="1"/>
      </contour>
      <contour>
        <pt x="483" y="1343" on="1"/>
        <pt x="483" y="866" on="1"/>
        <pt x="756" y="866" on="1"/>
        <pt x="813" y="866" on="0"/>
        <pt x="908" y="897" on="0"/>
        <pt x="977" y="957" on="0"/>
        <pt x="1016" y="1047" on="0"/>
        <pt x="1016" y="1106" on="1"/>
        <pt x="1016" y="1218" on="0"/>
        <pt x="880" y="1343" on="0"/>
        <pt x="731" y="1343" on="1"/>
      </contour>
    </TTGlyph>
    <TTGlyph name="Pi" xMin="143" yMin="0" xMax="1618" yMax="1516">
      <component glyphName="uni041F" x="0" y="0" flags="0x204"/>
    </TTGlyph>
    <TTGlyph name="Q" xMin="72" yMin="-326" xMax="1526" yMax="1546">
      <contour>
        <pt x="698" y="-24" on="1"/>
        <pt x="558" y="-5" on="0"/>
        <pt x="327" y="131" on="0"/>
        <pt x="162" y="340" on="0"/>
        <pt x="72" y="608" on="0"/>
        <pt x="72" y="758" on="1"/>
        <pt x="72" y="922" on="0"/>
        <pt x="179" y="1210" on="0"/>
        <pt x="372" y="1423" on="0"/>
        <pt x="639" y="1546" on="0"/>
        <pt x="799" y="1546" on="1"/>
        <pt x="960" y="1546" on="0"/>
        <pt x="1228" y="1423" on="0"/>
        <pt x="1420" y="1210" on="0"/>
        <pt x="1526" y="922" on="0"/>
        <pt x="1526" y="758" on="1"/>
        <pt x="1526" y="606" on="0"/>
        <pt x="1433" y="337" on="0"/>
        <pt x="1265" y="128" on="0"/>
        <pt x="1031" y="-8" on="0"/>
        <pt x="890" y="-25" on="1"/>
        <pt x="955" y="-42" on="0"/>
        <pt x="1033" y="-88" on="0"/>
        <pt x="1151" y="-147" on="0"/>
        <pt x="1210" y="-147" on="1"/>
        <pt x="1267" y="-147" on="0"/>
        <pt x="1356" y="-90" on="0"/>
        <pt x="1370" y="-31" on="1"/>
        <pt x="1522" y="-100" on="1"/>
        <pt x="1510" y="-156" on="0"/>
        <pt x="1445" y="-241" on="0"/>
        <pt x="1358" y="-298" on="0"/>
        <pt x="1258" y="-326" on="0"/>
        <pt x="1210" y="-326" on="1"/>
        <pt x="1133" y="-326" on="0"/>
        <pt x="998" y="-270" on="0"/>
        <pt x="850" y="-190" on="0"/>
        <pt x="782" y="-190" on="1"/>
        <pt x="741" y="-190" on="0"/>
        <pt x="698" y="-203" on="1"/>
      </contour>
      <contour>
        <pt x="799" y="156" on="1"/>
        <pt x="918" y="156" on="0"/>
        <pt x="1111" y="254" on="0"/>
        <pt x="1247" y="419" on="0"/>
        <pt x="1321" y="637" on="0"/>
        <pt x="1321" y="758" on="1"/>
        <pt x="1321" y="882" on="0"/>
        <pt x="1240" y="1111" on="0"/>
        <pt x="1094" y="1273" on="0"/>
        <pt x="908" y="1360" on="0"/>
        <pt x="799" y="1360" on="1"/>
        <pt x="680" y="1360" on="0"/>
        <pt x="486" y="1262" on="0"/>
        <pt x="350" y="1097" on="0"/>
        <pt x="276" y="878" on="0"/>
        <pt x="276" y="758" on="1"/>
        <pt x="276" y="621" on="0"/>
        <pt x="357" y="401" on="0"/>
        <pt x="491" y="254" on="0"/>
        <pt x="690" y="156" on="0"/>
      </contour>
    </TTGlyph>
    <TTGlyph name="R" xMin="143" yMin="0" xMax="1354" yMax="1516">
      <contour>
        <pt x="143" y="1516" on="1"/>
        <pt x="774" y="1516" on="1"/>
        <pt x="875" y="1516" on="0"/>
        <pt x="1046" y="1463" on="0"/>
        <pt x="1171" y="1360" on="0"/>
        <pt x="1241" y="1206" on="0"/>
        <pt x="1241" y="1106" on="1"/>
        <pt x="1241" y="1049" on="0"/>
        <pt x="1200" y="938" on="0"/>
        <pt x="1127" y="843" on="0"/>
        <pt x="1027" y="769" on="0"/>
        <pt x="968" y="749" on="1"/>
        <pt x="993" y="738" on="0"/>
        <pt x="1044" y="697" on="0"/>
        <pt x="1089" y="638" on="0"/>
        <pt x="1126" y="563" on="0"/>
        <pt x="1137" y="520" on="1"/>
        <pt x="1221" y="190" on="1"/>
        <pt x="1352" y="190" on="1"/>
        <pt x="1354" y="0" on="1"/>
        <pt x="1059" y="0" on="1"/>
        <pt x="946" y="461" on="1"/>
        <pt x="915" y="585" on="0"/>
        <pt x="788" y="702" on="0"/>
        <pt x="678" y="702" on="1"/>
        <pt x="483" y="702" on="1"/>
        <pt x="483" y="172" on="1"/>
        <pt x="635" y="172" on="1"/>
        <pt x="635" y="0" on="1"/>
        <pt x="143" y="0" on="1"/>
        <pt x="143" y="172" on="1"/>
        <pt x="287" y="172" on="1"/>
        <pt x="287" y="1343" on="1"/>
        <pt x="143" y="1343" on="1"/>
      </contour>
      <contour>
        <pt x="483" y="1343" on="1"/>
        <pt x="483" y="866" on="1"/>
        <pt x="774" y="866" on="1"/>
        <pt x="831" y="866" on="0"/>
        <pt x="926" y="896" on="0"/>
        <pt x="995" y="956" on="0"/>
        <pt x="1034" y="1045" on="0"/>
        <pt x="1034" y="1104" on="1"/>
        <pt x="1034" y="1217" on="0"/>
        <pt x="898" y="1343" on="0"/>
        <pt x="750" y="1343" on="1"/>
      </contour>
    </TTGlyph>
    <TTGlyph name="Racute" xMin="143" yMin="0" xMax="6265" yMax="5671">
      <component glyphName="R" x="0" y="0" flags="0x204"/>
      <component glyphName="acute" x="465" y="481" flags="0x4"/>
    </TTGlyph>
    <TTGlyph name="Rcaron" xMin="143" yMin="0" xMax="2438" yMax="3803">
      <component glyphName="R" x="0" y="0" flags="0x204"/>
      <component glyphName="caron" x="205" y="481" flags="0x4"/>
    </TTGlyph>
    <TTGlyph name="Rcommaaccent" xMin="143" yMin="-473" xMax="4345" yMax="1516">
      <component glyphName="R" x="0" y="0" flags="0x204"/>
      <component glyphName="commabelow" x="549" y="0" flags="0x4"/>
    </TTGlyph>
    <TTGlyph name="S" xMin="80" yMin="-33" xMax="1165" yMax="1538">
      <contour>
        <pt x="920" y="1192" on="0"/>
        <pt x="856" y="1280" on="0"/>
        <pt x="779" y="1327" on="0"/>
        <pt x="687" y="1352" on="0"/>
        <pt x="641" y="1352" on="1"/>
        <pt x="565" y="1352" on="0"/>
        <pt x="451" y="1317" on="0"/>
        <pt x="376" y="1257" on="0"/>
        <pt x="338" y="1177" on="0"/>
        <pt x="338" y="1133" on="1"/>
        <pt x="338" y="1067" on="0"/>
        <pt x="385" y="986" on="0"/>
        <pt x="457" y="937" on="0"/>
        <pt x="544" y="909" on="0"/>
        <pt x="584" y="895" on="1"/>
        <pt x="786" y="829" on="1"/>
        <pt x="877" y="800" on="0"/>
        <pt x="1016" y="726" on="0"/>
        <pt x="1110" y="625" on="0"/>
        <pt x="1159" y="493" on="0"/>
        <pt x="1159" y="406" on="1"/>
        <pt x="1159" y="312" on="0"/>
        <pt x="1082" y="152" on="0"/>
        <pt x="944" y="34" on="0"/>
        <pt x="753" y="-33" on="0"/>
        <pt x="639" y="-33" on="1"/>
        <pt x="522" y="-33" on="0"/>
        <pt x="356" y="20" on="0"/>
        <pt x="243" y="109" on="0"/>
        <pt x="175" y="223" on="0"/>
        <pt x="156" y="283" on="1"/>
        <pt x="80" y="283" on="1"/>
        <pt x="80" y="455" on="1"/>
        <pt x="332" y="455" on="1"/>
        <pt x="332" y="344" on="0"/>
        <pt x="379" y="252" on="0"/>
        <pt x="463" y="191" on="0"/>
        <pt x="579" y="160" on="0"/>
        <pt x="649" y="160" on="1"/>
        <pt x="717" y="160" on="0"/>
        <pt x="826" y="192" on="0"/>
        <pt x="903" y="253" on="0"/>
        <pt x="944" y="340" on="0"/>
        <pt x="944" y="395" on="1"/>
        <pt x="944" y="456" on="0"/>
        <pt x="893" y="541" on="0"/>
        <pt x="813" y="601" on="0"/>
        <pt x="718" y="639" on="0"/>
        <pt x="674" y="653" on="1"/>
        <pt x="455" y="715" on="1"/>
        <pt x="383" y="737" on="0"/>
        <pt x="264" y="805" on="0"/>
        <pt x="179" y="903" on="0"/>
        <pt x="133" y="1034" on="0"/>
        <pt x="133" y="1120" on="1"/>
        <pt x="133" y="1207" on="0"/>
        <pt x="201" y="1359" on="0"/>
        <pt x="333" y="1473" on="0"/>
        <pt x="524" y="1538" on="0"/>
        <pt x="647" y="1538" on="1"/>
        <pt x="728" y="1538" on="0"/>
        <pt x="865" y="1500" on="0"/>
        <pt x="976" y="1431" on="0"/>
        <pt x="1061" y="1334" on="0"/>
        <pt x="1090" y="1276" on="1"/>
        <pt x="1165" y="1276" on="1"/>
        <pt x="1165" y="1104" on="1"/>
        <pt x="920" y="1104" on="1"/>
      </contour>
    </TTGlyph>
    <TTGlyph name="Sacute" xMin="80" yMin="-33" xMax="6869" yMax="6150">
      <component glyphName="S" x="0" y="0" flags="0x204"/>
      <component glyphName="acute" x="424" y="479" flags="0x4"/>
    </TTGlyph>
    <TTGlyph name="Scaron" xMin="80" yMin="-33" xMax="2523" yMax="4282">
      <component glyphName="S" x="0" y="0" flags="0x204"/>
      <component glyphName="caron" x="164" y="479" flags="0x4"/>
    </TTGlyph>
    <TTGlyph name="Scedilla" xMin="80" yMin="-432" xMax="1219" yMax="1538">
      <component glyphName="S" x="0" y="0" flags="0x204"/>
      <component glyphName="cedilla" x="156" y="0" flags="0x4"/>
    </TTGlyph>
    <TTGlyph name="Scommaaccent" xMin="80" yMin="-473" xMax="4949" yMax="1538">
      <component glyphName="S" x="0" y="0" flags="0x204"/>
      <component glyphName="commabelow" x="422" y="0" flags="0x4"/>
    </TTGlyph>
    <TTGlyph name="T" xMin="41" yMin="0" xMax="1393" yMax="1516">
      <contour>
        <pt x="453" y="172" on="1"/>
        <pt x="592" y="172" on="1"/>
        <pt x="592" y="1352" on="1"/>
        <pt x="246" y="1352" on="1"/>
        <pt x="246" y="1116" on="1"/>
        <pt x="41" y="1116" on="1"/>
        <pt x="41" y="1516" on="1"/>
        <pt x="1393" y="1516" on="1"/>
        <pt x="1393" y="1116" on="1"/>
        <pt x="1188" y="1116" on="1"/>
        <pt x="1188" y="1352" on="1"/>
        <pt x="788" y="1352" on="1"/>
        <pt x="788" y="172" on="1"/>
        <pt x="944" y="172" on="1"/>
        <pt x="944" y="0" on="1"/>
        <pt x="453" y="0" on="1"/>
      </contour>
    </TTGlyph>
    <TTGlyph name="Tcaron" xMin="41" yMin="0" xMax="2748" yMax="4761">
      <component glyphName="T" x="0" y="0" flags="0x204"/>
      <component glyphName="caron" x="217" y="479" flags="0x4"/>
    </TTGlyph>
    <TTGlyph name="Tcommaaccent" xMin="41" yMin="-473" xMax="5797" yMax="1516">
      <component glyphName="T" x="0" y="0" flags="0x204"/>
      <component glyphName="commabelow" x="535" y="0" flags="0x4"/>
    </TTGlyph>
    <TTGlyph name="Thorn" xMin="104" yMin="0" xMax="1235" yMax="1516">
      <contour>
        <pt x="106" y="1516" on="1"/>
        <pt x="598" y="1516" on="1"/>
        <pt x="598" y="1343" on="1"/>
        <pt x="440" y="1343" on="1"/>
        <pt x="440" y="1209" on="1"/>
        <pt x="768" y="1208" on="1"/>
        <pt x="869" y="1208" on="0"/>
        <pt x="1040" y="1156" on="0"/>
        <pt x="1165" y="1052" on="0"/>
        <pt x="1235" y="899" on="0"/>
        <pt x="1235" y="799" on="1"/>
        <pt x="1235" y="716" on="0"/>
        <pt x="1167" y="569" on="0"/>
        <pt x="1044" y="459" on="0"/>
        <pt x="870" y="395" on="0"/>
        <pt x="764" y="395" on="1"/>
        <pt x="440" y="395" on="1"/>
        <pt x="440" y="172" on="1"/>
        <pt x="596" y="172" on="1"/>
        <pt x="596" y="0" on="1"/>
        <pt x="104" y="0" on="1"/>
        <pt x="104" y="172" on="1"/>
        <pt x="244" y="172" on="1"/>
        <pt x="244" y="1343" on="1"/>
        <pt x="106" y="1343" on="1"/>
      </contour>
      <contour>
        <pt x="440" y="1036" on="1"/>
        <pt x="440" y="559" on="1"/>
        <pt x="768" y="559" on="1"/>
        <pt x="825" y="559" on="0"/>
        <pt x="920" y="590" on="0"/>
        <pt x="989" y="650" on="0"/>
        <pt x="1028" y="740" on="0"/>
        <pt x="1028" y="799" on="1"/>
        <pt x="1028" y="891" on="0"/>
        <pt x="953" y="989" on="0"/>
        <pt x="842" y="1036" on="0"/>
        <pt x="743" y="1036" on="1"/>
      </contour>
    </TTGlyph>
    <TTGlyph name="U" xMin="63" yMin="-20" xMax="1496" yMax="1516">
      <contour>
        <pt x="63" y="1516" on="1"/>
        <pt x="554" y="1516" on="1"/>
        <pt x="554" y="1343" on="1"/>
        <pt x="399" y="1343" on="1"/>
        <pt x="399" y="637" on="1"/>
        <pt x="399" y="510" on="0"/>
        <pt x="456" y="331" on="0"/>
        <pt x="557" y="218" on="0"/>
        <pt x="696" y="166" on="0"/>
        <pt x="779" y="166" on="1"/>
        <pt x="865" y="166" on="0"/>
        <pt x="1009" y="212" on="0"/>
        <pt x="1112" y="321" on="0"/>
        <pt x="1169" y="502" on="0"/>
        <pt x="1169" y="637" on="1"/>
        <pt x="1169" y="1343" on="1"/>
        <pt x="1005" y="1343" on="1"/>
        <pt x="1005" y="1516" on="1"/>
        <pt x="1496" y="1516" on="1"/>
        <pt x="1496" y="1343" on="1"/>
        <pt x="1361" y="1343" on="1"/>
        <pt x="1361" y="659" on="1"/>
        <pt x="1361" y="495" on="0"/>
        <pt x="1270" y="241" on="0"/>
        <pt x="1112" y="69" on="0"/>
        <pt x="898" y="-20" on="0"/>
        <pt x="775" y="-20" on="1"/>
        <pt x="655" y="-20" on="0"/>
        <pt x="446" y="68" on="0"/>
        <pt x="291" y="238" on="0"/>
        <pt x="202" y="483" on="0"/>
        <pt x="202" y="641" on="1"/>
        <pt x="202" y="1343" on="1"/>
        <pt x="63" y="1343" on="1"/>
      </contour>
    </TTGlyph>
    <TTGlyph name="Uacute" xMin="63" yMin="-20" xMax="7741" yMax="6629">
      <component glyphName="U" x="0" y="0" flags="0x204"/>
      <component glyphName="acute" x="604" y="479" flags="0x4"/>
    </TTGlyph>
    <TTGlyph name="Ucircumflex" xMin="63" yMin="-20" xMax="2128" yMax="3884">
      <component glyphName="U" x="0" y="0" flags="0x204"/>
      <component glyphName="circumflex" x="300" y="479" flags="0x4"/>
    </TTGlyph>
    <TTGlyph name="Udieresis" xMin="63" yMin="-20" xMax="2648" yMax="3405">
      <component glyphName="U" x="0" y="0" flags="0x204"/>
      <component glyphName="dieresis" x="380" y="479" flags="0x4"/>
    </TTGlyph>
    <TTGlyph name="Ugrave" xMin="63" yMin="-20" xMax="1909" yMax="3872">
      <component glyphName="U" x="0" y="0" flags="0x204"/>
      <component glyphName="grave" x="367" y="479" flags="0x4"/>
    </TTGlyph>
    <TTGlyph name="Uhungarumlaut" xMin="63" yMin="-20" xMax="1496" yMax="2436">
      <component glyphName="U" x="0" y="0" flags="0x204"/>
      <component glyphName="hungarumlaut" x="180" y="479" flags="0x4"/>
    </TTGlyph>
    <TTGlyph name="Umacron" xMin="63" yMin="-20" xMax="2383" yMax="3741">
      <component glyphName="U" x="0" y="0" flags="0x204"/>
      <component glyphName="macron" x="375" y="479" flags="0x4"/>
    </TTGlyph>
    <TTGlyph name="Uogonek" xMin="63" yMin="-471" xMax="1496" yMax="1516">
      <contour>
        <pt x="1005" y="1516" on="1"/>
        <pt x="1496" y="1516" on="1"/>
        <pt x="1496" y="1343" on="1"/>
        <pt x="1361" y="1343" on="1"/>
        <pt x="1361" y="659" on="1"/>
        <pt x="1361" y="467" on="0"/>
        <pt x="1238" y="188" on="0"/>
        <pt x="1134" y="102" on="1"/>
        <pt x="1091" y="59" on="0"/>
        <pt x="1025" y="-12" on="0"/>
        <pt x="982" y="-80" on="0"/>
        <pt x="962" y="-150" on="0"/>
        <pt x="962" y="-190" on="1"/>
        <pt x="962" y="-258" on="0"/>
        <pt x="1044" y="-324" on="0"/>
        <pt x="1095" y="-324" on="1"/>
        <pt x="1134" y="-324" on="0"/>
        <pt x="1216" y="-307" on="0"/>
        <pt x="1236" y="-297" on="1"/>
        <pt x="1279" y="-420" on="1"/>
        <pt x="1248" y="-436" on="0"/>
        <pt x="1142" y="-471" on="0"/>
        <pt x="1072" y="-471" on="1"/>
        <pt x="1017" y="-471" on="0"/>
        <pt x="915" y="-442" on="0"/>
        <pt x="835" y="-381" on="0"/>
        <pt x="788" y="-287" on="0"/>
        <pt x="788" y="-221" on="1"/>
        <pt x="788" y="-160" on="0"/>
        <pt x="827" y="-57" on="0"/>
        <pt x="861" y="-14" on="1"/>
        <pt x="839" y="-18" on="0"/>
        <pt x="798" y="-20" on="0"/>
        <pt x="775" y="-20" on="1"/>
        <pt x="655" y="-20" on="0"/>
        <pt x="444" y="70" on="0"/>
        <pt x="290" y="240" on="0"/>
        <pt x="202" y="485" on="0"/>
        <pt x="202" y="641" on="1"/>
        <pt x="202" y="1343" on="1"/>
        <pt x="63" y="1343" on="1"/>
        <pt x="63" y="1516" on="1"/>
        <pt x="554" y="1516" on="1"/>
        <pt x="554" y="1343" on="1"/>
        <pt x="399" y="1343" on="1"/>
        <pt x="399" y="641" on="1"/>
        <pt x="399" y="512" on="0"/>
        <pt x="456" y="332" on="0"/>
        <pt x="556" y="219" on="0"/>
        <pt x="698" y="166" on="0"/>
        <pt x="784" y="166" on="1"/>
        <pt x="870" y="166" on="0"/>
        <pt x="1013" y="215" on="0"/>
        <pt x="1113" y="328" on="0"/>
        <pt x="1169" y="510" on="0"/>
        <pt x="1169" y="641" on="1"/>
        <pt x="1169" y="1343" on="1"/>
        <pt x="1005" y="1343" on="1"/>
      </contour>
    </TTGlyph>
    <TTGlyph name="Uring" xMin="63" yMin="-20" xMax="1496" yMax="2079">
      <component glyphName="U" x="0" y="0" flags="0x204"/>
      <component glyphName="ring" x="170" y="480" flags="0x4"/>
    </TTGlyph>
    <TTGlyph name="V" xMin="-10" yMin="0" xMax="1505" yMax="1516">
      <contour>
        <pt x="1013" y="1516" on="1"/>
        <pt x="1505" y="1516" on="1"/>
        <pt x="1505" y="1343" on="1"/>
        <pt x="1374" y="1343" on="1"/>
        <pt x="883" y="0" on="1"/>
        <pt x="608" y="0" on="1"/>
        <pt x="124" y="1343" on="1"/>
        <pt x="-10" y="1343" on="1"/>
        <pt x="-10" y="1516" on="1"/>
        <pt x="482" y="1516" on="1"/>
        <pt x="482" y="1343" on="1"/>
        <pt x="350" y="1343" on="1"/>
        <pt x="739" y="174" on="1"/>
        <pt x="1156" y="1343" on="1"/>
        <pt x="1013" y="1343" on="1"/>
      </contour>
    </TTGlyph>
    <TTGlyph name="W" xMin="10" yMin="0" xMax="2550" yMax="1516">
      <contour>
        <pt x="2058" y="1516" on="1"/>
        <pt x="2550" y="1516" on="1"/>
        <pt x="2550" y="1343" on="1"/>
        <pt x="2418" y="1343" on="1"/>
        <pt x="1985" y="0" on="1"/>
        <pt x="1679" y="0" on="1"/>
        <pt x="1268" y="1321" on="1"/>
        <pt x="889" y="0" on="1"/>
        <pt x="586" y="0" on="1"/>
        <pt x="144" y="1343" on="1"/>
        <pt x="10" y="1343" on="1"/>
        <pt x="10" y="1516" on="1"/>
        <pt x="502" y="1516" on="1"/>
        <pt x="502" y="1343" on="1"/>
        <pt x="370" y="1343" on="1"/>
        <pt x="737" y="178" on="1"/>
        <pt x="1124" y="1516" on="1"/>
        <pt x="1423" y="1516" on="1"/>
        <pt x="1835" y="178" on="1"/>
        <pt x="2209" y="1343" on="1"/>
        <pt x="2058" y="1343" on="1"/>
      </contour>
    </TTGlyph>
    <TTGlyph name="X" xMin="170" yMin="0" xMax="1442" yMax="1516">
      <contour>
        <pt x="950" y="1516" on="1"/>
        <pt x="1442" y="1516" on="1"/>
        <pt x="1442" y="1343" on="1"/>
        <pt x="1330" y="1343" on="1"/>
        <pt x="920" y="774" on="1"/>
        <pt x="1348" y="172" on="1"/>
        <pt x="1442" y="172" on="1"/>
        <pt x="1442" y="0" on="1"/>
        <pt x="950" y="0" on="1"/>
        <pt x="950" y="172" on="1"/>
        <pt x="1135" y="172" on="1"/>
        <pt x="811" y="623" on="1"/>
        <pt x="485" y="172" on="1"/>
        <pt x="662" y="172" on="1"/>
        <pt x="662" y="0" on="1"/>
        <pt x="170" y="0" on="1"/>
        <pt x="170" y="172" on="1"/>
        <pt x="269" y="172" on="1"/>
        <pt x="701" y="775" on="1"/>
        <pt x="293" y="1343" on="1"/>
        <pt x="170" y="1343" on="1"/>
        <pt x="170" y="1516" on="1"/>
        <pt x="662" y="1516" on="1"/>
        <pt x="662" y="1343" on="1"/>
        <pt x="516" y="1343" on="1"/>
        <pt x="811" y="928" on="1"/>
        <pt x="1109" y="1343" on="1"/>
        <pt x="950" y="1343" on="1"/>
      </contour>
    </TTGlyph>
    <TTGlyph name="Y" xMin="51" yMin="0" xMax="1323" yMax="1516">
      <contour>
        <pt x="51" y="1516" on="1"/>
        <pt x="543" y="1516" on="1"/>
        <pt x="543" y="1343" on="1"/>
        <pt x="399" y="1343" on="1"/>
        <pt x="684" y="856" on="1"/>
        <pt x="989" y="1343" on="1"/>
        <pt x="831" y="1343" on="1"/>
        <pt x="831" y="1516" on="1"/>
        <pt x="1323" y="1516" on="1"/>
        <pt x="1323" y="1343" on="1"/>
        <pt x="1194" y="1343" on="1"/>
        <pt x="768" y="697" on="1"/>
        <pt x="768" y="172" on="1"/>
        <pt x="924" y="172" on="1"/>
        <pt x="924" y="0" on="1"/>
        <pt x="432" y="0" on="1"/>
        <pt x="432" y="172" on="1"/>
        <pt x="571" y="172" on="1"/>
        <pt x="571" y="702" on="1"/>
        <pt x="169" y="1343" on="1"/>
        <pt x="51" y="1343" on="1"/>
      </contour>
    </TTGlyph>
    <TTGlyph name="Yacute" xMin="51" yMin="0" xMax="8593" yMax="7108">
      <component glyphName="Y" x="0" y="0" flags="0x204"/>
      <component glyphName="acute" x="500" y="479" flags="0x4"/>
    </TTGlyph>
    <TTGlyph name="Ydieresis" xMin="51" yMin="0" xMax="3112" yMax="3884">
      <component glyphName="Y" x="0" y="0" flags="0x204"/>
      <component glyphName="dieresis" x="300" y="479" flags="0x4"/>
    </TTGlyph>
    <TTGlyph name="Z" xMin="51" yMin="0" xMax="1163" yMax="1516">
      <contour>
        <pt x="1163" y="1292" on="1"/>
        <pt x="250" y="172" on="1"/>
        <pt x="961" y="172" on="1"/>
        <pt x="961" y="424" on="1"/>
        <pt x="1157" y="424" on="1"/>
        <pt x="1157" y="0" on="1"/>
        <pt x="51" y="0" on="1"/>
        <pt x="51" y="227" on="1"/>
        <pt x="951" y="1343" on="1"/>
        <pt x="264" y="1343" on="1"/>
        <pt x="264" y="1087" on="1"/>
        <pt x="68" y="1087" on="1"/>
        <pt x="68" y="1516" on="1"/>
        <pt x="1163" y="1516" on="1"/>
      </contour>
    </TTGlyph>
    <TTGlyph name="Zacute" xMin="51" yMin="0" xMax="9318" yMax="7587">
      <component glyphName="Z" x="0" y="0" flags="0x204"/>
      <component glyphName="acute" x="393" y="479" flags="0x4"/>
    </TTGlyph>
    <TTGlyph name="Zcaron" xMin="51" yMin="0" xMax="2881" yMax="5240">
      <component glyphName="Z" x="0" y="0" flags="0x204"/>
      <component glyphName="caron" x="133" y="479" flags="0x4"/>
    </TTGlyph>
    <TTGlyph name="Zdotaccent" xMin="51" yMin="0" xMax="1501" yMax="2490">
      <component glyphName="Z" x="0" y="0" flags="0x204"/>
      <component glyphName="dotaccent" x="332" y="479" flags="0x4"/>
    </TTGlyph>
    <TTGlyph name="a" xMin="70" yMin="-29" xMax="1010" yMax="1059">
      <contour>
        <pt x="709" y="96" on="1"/>
        <pt x="650" y="41" on="0"/>
        <pt x="507" y="-29" on="0"/>
        <pt x="416" y="-29" on="1"/>
        <pt x="340" y="-29" on="0"/>
        <pt x="213" y="19" on="0"/>
        <pt x="121" y="102" on="0"/>
        <pt x="70" y="212" on="0"/>
        <pt x="70" y="274" on="1"/>
        <pt x="70" y="340" on="0"/>
        <pt x="109" y="442" on="0"/>
        <pt x="174" y="517" on="0"/>
        <pt x="261" y="568" on="0"/>
        <pt x="356" y="599" on="0"/>
        <pt x="455" y="612" on="0"/>
        <pt x="500" y="612" on="1"/>
        <pt x="572" y="612" on="0"/>
        <pt x="670" y="603" on="0"/>
        <pt x="710" y="595" on="1"/>
        <pt x="711" y="680" on="1"/>
        <pt x="711" y="735" on="0"/>
        <pt x="679" y="816" on="0"/>
        <pt x="621" y="869" on="0"/>
        <pt x="540" y="895" on="0"/>
        <pt x="490" y="895" on="1"/>
        <pt x="443" y="895" on="0"/>
        <pt x="357" y="882" on="0"/>
        <pt x="282" y="861" on="0"/>
        <pt x="219" y="834" on="0"/>
        <pt x="197" y="819" on="1"/>
        <pt x="136" y="948" on="1"/>
        <pt x="173" y="972" on="0"/>
        <pt x="261" y="1013" on="0"/>
        <pt x="358" y="1042" on="0"/>
        <pt x="459" y="1059" on="0"/>
        <pt x="508" y="1059" on="1"/>
        <pt x="598" y="1059" on="0"/>
        <pt x="742" y="1016" on="0"/>
        <pt x="842" y="926" on="0"/>
        <pt x="896" y="787" on="0"/>
        <pt x="896" y="690" on="1"/>
        <pt x="895" y="172" on="1"/>
        <pt x="1010" y="172" on="1"/>
        <pt x="1010" y="0" on="1"/>
        <pt x="709" y="0" on="1"/>
      </contour>
      <contour>
        <pt x="457" y="127" on="1"/>
        <pt x="494" y="127" on="0"/>
        <pt x="568" y="145" on="0"/>
        <pt x="634" y="176" on="0"/>
        <pt x="690" y="217" on="0"/>
        <pt x="709" y="239" on="1"/>
        <pt x="710" y="473" on="1"/>
        <pt x="494" y="473" on="1"/>
        <pt x="440" y="473" on="0"/>
        <pt x="351" y="449" on="0"/>
        <pt x="286" y="403" on="0"/>
        <pt x="250" y="335" on="0"/>
        <pt x="250" y="291" on="1"/>
        <pt x="250" y="250" on="0"/>
        <pt x="280" y="189" on="0"/>
        <pt x="335" y="148" on="0"/>
        <pt x="411" y="127" on="0"/>
      </contour>
    </TTGlyph>
    <TTGlyph name="aacute" xMin="70" yMin="-29" xMax="1366" yMax="1956">
      <component glyphName="a" x="0" y="0" flags="0x204"/>
      <component glyphName="acute" x="297" y="0" flags="0x4"/>
    </TTGlyph>
    <TTGlyph name="abreve" xMin="70" yMin="-29" xMax="1182" yMax="1958">
      <component glyphName="a" x="0" y="0" flags="0x204"/>
      <component glyphName="breve" x="45" y="0" flags="0x4"/>
    </TTGlyph>
    <TTGlyph name="acircumflex" xMin="70" yMin="-29" xMax="1108" yMax="1968">
      <component glyphName="a" x="0" y="0" flags="0x204"/>
      <component glyphName="circumflex" x="45" y="0" flags="0x4"/>
    </TTGlyph>
    <TTGlyph name="acute" xMin="84" yMin="1178" xMax="537" yMax="1477">
      <contour>
        <pt x="297" y="1477" on="1"/>
        <pt x="537" y="1477" on="1"/>
        <pt x="537" y="1460" on="1"/>
        <pt x="238" y="1178" on="1"/>
        <pt x="84" y="1178" on="1"/>
      </contour>
    </TTGlyph>
    <TTGlyph name="adieresis" xMin="70" yMin="-29" xMax="1205" yMax="1968">
      <component glyphName="a" x="0" y="0" flags="0x204"/>
      <component glyphName="dieresis" x="109" y="0" flags="0x4"/>
    </TTGlyph>
    <TTGlyph name="ae" xMin="51" yMin="-29" xMax="1620" yMax="1063">
      <contour>
        <pt x="481" y="606" on="1"/>
        <pt x="613" y="606" on="0"/>
        <pt x="693" y="585" on="1"/>
        <pt x="693" y="588" on="1"/>
        <pt x="694" y="680" on="1"/>
        <pt x="695" y="735" on="0"/>
        <pt x="663" y="816" on="0"/>
        <pt x="604" y="869" on="0"/>
        <pt x="521" y="895" on="0"/>
        <pt x="471" y="895" on="1"/>
        <pt x="424" y="895" on="0"/>
        <pt x="338" y="882" on="0"/>
        <pt x="263" y="861" on="0"/>
        <pt x="200" y="834" on="0"/>
        <pt x="178" y="819" on="1"/>
        <pt x="117" y="948" on="1"/>
        <pt x="154" y="972" on="0"/>
        <pt x="242" y="1013" on="0"/>
        <pt x="339" y="1042" on="0"/>
        <pt x="440" y="1059" on="0"/>
        <pt x="489" y="1059" on="1"/>
        <pt x="604" y="1059" on="0"/>
        <pt x="773" y="988" on="0"/>
        <pt x="821" y="913" on="1"/>
        <pt x="883" y="983" on="0"/>
        <pt x="1060" y="1063" on="0"/>
        <pt x="1178" y="1063" on="1"/>
        <pt x="1295" y="1063" on="0"/>
        <pt x="1452" y="992" on="0"/>
        <pt x="1551" y="875" on="0"/>
        <pt x="1602" y="725" on="0"/>
        <pt x="1612" y="647" on="1"/>
        <pt x="1617" y="609" on="0"/>
        <pt x="1620" y="531" on="0"/>
        <pt x="1620" y="494" on="1"/>
        <pt x="874" y="494" on="1"/>
        <pt x="874" y="440" on="0"/>
        <pt x="892" y="344" on="0"/>
        <pt x="936" y="244" on="0"/>
        <pt x="1099" y="143" on="0"/>
        <pt x="1202" y="143" on="1"/>
        <pt x="1283" y="143" on="0"/>
        <pt x="1436" y="188" on="0"/>
        <pt x="1520" y="236" on="1"/>
        <pt x="1595" y="109" on="1"/>
        <pt x="1493" y="39" on="0"/>
        <pt x="1287" y="-29" on="0"/>
        <pt x="1176" y="-29" on="1"/>
        <pt x="1058" y="-29" on="0"/>
        <pt x="866" y="56" on="0"/>
        <pt x="800" y="142" on="1"/>
        <pt x="768" y="103" on="0"/>
        <pt x="683" y="39" on="0"/>
        <pt x="583" y="-5" on="0"/>
        <pt x="473" y="-29" on="0"/>
        <pt x="418" y="-29" on="1"/>
        <pt x="334" y="-29" on="0"/>
        <pt x="199" y="19" on="0"/>
        <pt x="103" y="102" on="0"/>
        <pt x="51" y="212" on="0"/>
        <pt x="51" y="274" on="1"/>
        <pt x="51" y="339" on="0"/>
        <pt x="90" y="439" on="0"/>
        <pt x="155" y="513" on="0"/>
        <pt x="242" y="563" on="0"/>
        <pt x="337" y="593" on="0"/>
        <pt x="436" y="606" on="0"/>
      </contour>
      <contour>
        <pt x="438" y="127" on="1"/>
        <pt x="535" y="127" on="0"/>
        <pt x="684" y="200" on="0"/>
        <pt x="735" y="260" on="1"/>
        <pt x="697" y="354" on="0"/>
        <pt x="691" y="477" on="1"/>
        <pt x="475" y="477" on="1"/>
        <pt x="421" y="477" on="0"/>
        <pt x="332" y="453" on="0"/>
        <pt x="267" y="407" on="0"/>
        <pt x="231" y="339" on="0"/>
        <pt x="231" y="295" on="1"/>
        <pt x="231" y="253" on="0"/>
        <pt x="261" y="190" on="0"/>
        <pt x="316" y="148" on="0"/>
        <pt x="392" y="127" on="0"/>
      </contour>
      <contour>
        <pt x="1165" y="907" on="1"/>
        <pt x="1100" y="907" on="0"/>
        <pt x="1003" y="870" on="0"/>
        <pt x="935" y="801" on="0"/>
        <pt x="894" y="701" on="0"/>
        <pt x="884" y="639" on="1"/>
        <pt x="1421" y="639" on="1"/>
        <pt x="1417" y="697" on="0"/>
        <pt x="1388" y="795" on="0"/>
        <pt x="1328" y="867" on="0"/>
        <pt x="1234" y="907" on="0"/>
      </contour>
    </TTGlyph>
    <TTGlyph name="agrave" xMin="70" yMin="-29" xMax="1010" yMax="1956">
      <component glyphName="a" x="0" y="0" flags="0x204"/>
      <component glyphName="grave" x="59" y="0" flags="0x4"/>
    </TTGlyph>
    <TTGlyph name="amacron" xMin="70" yMin="-29" xMax="1188" yMax="1825">
      <component glyphName="a" x="0" y="0" flags="0x204"/>
      <component glyphName="macron" x="78" y="0" flags="0x4"/>
    </TTGlyph>
    <TTGlyph name="ampersand" xMin="143" yMin="-14" xMax="1427" yMax="1546">
      <contour>
        <pt x="1288" y="-6" on="1"/>
        <pt x="1052" y="222" on="1"/>
        <pt x="1010" y="170" on="0"/>
        <pt x="912" y="84" on="0"/>
        <pt x="801" y="21" on="0"/>
        <pt x="676" y="-14" on="0"/>
        <pt x="606" y="-14" on="1"/>
        <pt x="509" y="-14" on="0"/>
        <pt x="340" y="54" on="0"/>
        <pt x="215" y="172" on="0"/>
        <pt x="143" y="333" on="0"/>
        <pt x="143" y="426" on="1"/>
        <pt x="143" y="487" on="0"/>
        <pt x="180" y="602" on="0"/>
        <pt x="245" y="702" on="0"/>
        <pt x="332" y="782" on="0"/>
        <pt x="424" y="829" on="1"/>
        <pt x="358" y="893" on="1"/>
        <pt x="332" y="917" on="0"/>
        <pt x="283" y="979" on="0"/>
        <pt x="246" y="1051" on="0"/>
        <pt x="223" y="1129" on="0"/>
        <pt x="223" y="1167" on="1"/>
        <pt x="223" y="1247" on="0"/>
        <pt x="285" y="1385" on="0"/>
        <pt x="392" y="1487" on="0"/>
        <pt x="536" y="1546" on="0"/>
        <pt x="618" y="1546" on="1"/>
        <pt x="705" y="1546" on="0"/>
        <pt x="854" y="1484" on="0"/>
        <pt x="962" y="1380" on="0"/>
        <pt x="1024" y="1242" on="0"/>
        <pt x="1024" y="1167" on="1"/>
        <pt x="1024" y="1107" on="0"/>
        <pt x="1000" y="1016" on="0"/>
        <pt x="956" y="944" on="0"/>
        <pt x="895" y="885" on="0"/>
        <pt x="826" y="835" on="0"/>
        <pt x="754" y="794" on="0"/>
        <pt x="716" y="775" on="1"/>
        <pt x="1022" y="490" on="1"/>
        <pt x="1054" y="563" on="0"/>
        <pt x="1093" y="706" on="0"/>
        <pt x="1104" y="764" on="1"/>
        <pt x="1292" y="764" on="1"/>
        <pt x="1275" y="670" on="0"/>
        <pt x="1205" y="468" on="0"/>
        <pt x="1151" y="371" on="1"/>
        <pt x="1427" y="115" on="1"/>
      </contour>
      <contour>
        <pt x="473" y="666" on="1"/>
        <pt x="439" y="652" on="0"/>
        <pt x="384" y="603" on="0"/>
        <pt x="344" y="540" on="0"/>
        <pt x="322" y="467" on="0"/>
        <pt x="322" y="430" on="1"/>
        <pt x="322" y="372" on="0"/>
        <pt x="367" y="273" on="0"/>
        <pt x="446" y="201" on="0"/>
        <pt x="553" y="160" on="0"/>
        <pt x="614" y="160" on="1"/>
        <pt x="666" y="160" on="0"/>
        <pt x="758" y="186" on="0"/>
        <pt x="838" y="233" on="0"/>
        <pt x="905" y="298" on="0"/>
        <pt x="934" y="336" on="1"/>
        <pt x="554" y="703" on="1"/>
      </contour>
      <contour>
        <pt x="784" y="1026" on="1"/>
        <pt x="810" y="1054" on="0"/>
        <pt x="846" y="1127" on="0"/>
        <pt x="846" y="1167" on="1"/>
        <pt x="846" y="1209" on="0"/>
        <pt x="809" y="1287" on="0"/>
        <pt x="747" y="1347" on="0"/>
        <pt x="664" y="1382" on="0"/>
        <pt x="618" y="1382" on="1"/>
        <pt x="568" y="1382" on="0"/>
        <pt x="487" y="1349" on="0"/>
        <pt x="429" y="1291" on="0"/>
        <pt x="397" y="1214" on="0"/>
        <pt x="397" y="1169" on="1"/>
        <pt x="397" y="1127" on="0"/>
        <pt x="438" y="1034" on="0"/>
        <pt x="492" y="983" on="1"/>
        <pt x="581" y="900" on="1"/>
        <pt x="640" y="926" on="0"/>
        <pt x="744" y="986" on="0"/>
      </contour>
    </TTGlyph>
    <TTGlyph name="aogonek" xMin="51" yMin="-485" xMax="991" yMax="1059">
      <contour>
        <pt x="940" y="0" on="1"/>
        <pt x="868" y="0" on="0"/>
        <pt x="774" y="-47" on="0"/>
        <pt x="719" y="-117" on="0"/>
        <pt x="694" y="-195" on="0"/>
        <pt x="694" y="-225" on="1"/>
        <pt x="694" y="-279" on="0"/>
        <pt x="758" y="-326" on="0"/>
        <pt x="803" y="-326" on="1"/>
        <pt x="838" y="-326" on="0"/>
        <pt x="891" y="-313" on="0"/>
        <pt x="913" y="-303" on="1"/>
        <pt x="965" y="-442" on="1"/>
        <pt x="954" y="-449" on="0"/>
        <pt x="913" y="-465" on="0"/>
        <pt x="864" y="-477" on="0"/>
        <pt x="811" y="-485" on="0"/>
        <pt x="786" y="-485" on="1"/>
        <pt x="713" y="-485" on="0"/>
        <pt x="606" y="-446" on="0"/>
        <pt x="539" y="-383" on="0"/>
        <pt x="506" y="-307" on="0"/>
        <pt x="506" y="-270" on="1"/>
        <pt x="506" y="-256" on="0"/>
        <pt x="510" y="-188" on="0"/>
        <pt x="545" y="-111" on="0"/>
        <pt x="621" y="-31" on="0"/>
        <pt x="692" y="0" on="1"/>
        <pt x="690" y="0" on="1"/>
        <pt x="690" y="96" on="1"/>
        <pt x="631" y="43" on="0"/>
        <pt x="487" y="-29" on="0"/>
        <pt x="397" y="-29" on="1"/>
        <pt x="322" y="-29" on="0"/>
        <pt x="195" y="18" on="0"/>
        <pt x="102" y="102" on="0"/>
        <pt x="51" y="213" on="0"/>
        <pt x="51" y="274" on="1"/>
        <pt x="51" y="358" on="0"/>
        <pt x="115" y="475" on="0"/>
        <pt x="215" y="553" on="0"/>
        <pt x="340" y="594" on="0"/>
        <pt x="401" y="602" on="1"/>
        <pt x="424" y="606" on="0"/>
        <pt x="461" y="606" on="0"/>
        <pt x="481" y="606" on="1"/>
        <pt x="547" y="606" on="0"/>
        <pt x="651" y="596" on="0"/>
        <pt x="692" y="586" on="1"/>
        <pt x="692" y="680" on="1"/>
        <pt x="692" y="791" on="0"/>
        <pt x="571" y="895" on="0"/>
        <pt x="471" y="895" on="1"/>
        <pt x="377" y="895" on="0"/>
        <pt x="223" y="848" on="0"/>
        <pt x="178" y="819" on="1"/>
        <pt x="117" y="948" on="1"/>
        <pt x="190" y="995" on="0"/>
        <pt x="391" y="1059" on="0"/>
        <pt x="489" y="1059" on="1"/>
        <pt x="580" y="1059" on="0"/>
        <pt x="723" y="1016" on="0"/>
        <pt x="823" y="926" on="0"/>
        <pt x="877" y="786" on="0"/>
        <pt x="877" y="690" on="1"/>
        <pt x="877" y="561" on="0"/>
        <pt x="874" y="301" on="0"/>
        <pt x="874" y="172" on="1"/>
        <pt x="991" y="172" on="1"/>
        <pt x="991" y="0" on="1"/>
      </contour>
      <contour>
        <pt x="438" y="127" on="1"/>
        <pt x="512" y="127" on="0"/>
        <pt x="651" y="195" on="0"/>
        <pt x="690" y="238" on="1"/>
        <pt x="690" y="477" on="1"/>
        <pt x="475" y="477" on="1"/>
        <pt x="422" y="477" on="0"/>
        <pt x="334" y="453" on="0"/>
        <pt x="268" y="408" on="0"/>
        <pt x="231" y="338" on="0"/>
        <pt x="231" y="295" on="1"/>
        <pt x="231" y="211" on="0"/>
        <pt x="346" y="127" on="0"/>
        <pt x="438" y="127" on="1"/>
      </contour>
    </TTGlyph>
    <TTGlyph name="apostrophe" xMin="20" yMin="1087" xMax="344" yMax="1520">
      <contour>
        <pt x="133" y="1520" on="1"/>
        <pt x="344" y="1436" on="1"/>
        <pt x="164" y="1087" on="1"/>
        <pt x="20" y="1141" on="1"/>
      </contour>
    </TTGlyph>
    <TTGlyph name="approxequal" xMin="141" yMin="243" xMax="1087" yMax="749">
      <component glyphName="asciitilde" x="0" y="-126" flags="0x204"/>
      <component glyphName="asciitilde" x="0" y="207" flags="0x4"/>
    </TTGlyph>
    <TTGlyph name="aring" xMin="70" yMin="-29" xMax="1010" yMax="1599">
      <component glyphName="a" x="0" y="0" flags="0x204"/>
      <component glyphName="ring" x="-85" y="0" flags="0x4"/>
    </TTGlyph>
    <TTGlyph name="asciicircum" xMin="156" yMin="723" xMax="1075" yMax="1513">
      <contour>
        <pt x="672" y="1513" on="1"/>
        <pt x="1075" y="723" on="1"/>
        <pt x="932" y="723" on="1"/>
        <pt x="617" y="1349" on="1"/>
        <pt x="297" y="723" on="1"/>
        <pt x="156" y="723" on="1"/>
        <pt x="559" y="1513" on="1"/>
      </contour>
    </TTGlyph>
    <TTGlyph name="asciitilde" xMin="141" yMin="369" xMax="1087" yMax="668">
      <contour>
        <pt x="141" y="483" on="1"/>
        <pt x="186" y="567" on="0"/>
        <pt x="308" y="659" on="0"/>
        <pt x="397" y="659" on="1"/>
        <pt x="455" y="659" on="0"/>
        <pt x="578" y="614" on="0"/>
        <pt x="694" y="561" on="0"/>
        <pt x="796" y="516" on="0"/>
        <pt x="834" y="516" on="1"/>
        <pt x="877" y="516" on="0"/>
        <pt x="964" y="585" on="0"/>
        <pt x="1014" y="668" on="1"/>
        <pt x="1087" y="553" on="1"/>
        <pt x="1042" y="469" on="0"/>
        <pt x="921" y="377" on="0"/>
        <pt x="831" y="377" on="1"/>
        <pt x="792" y="377" on="0"/>
        <pt x="712" y="398" on="0"/>
        <pt x="631" y="430" on="0"/>
        <pt x="554" y="467" on="0"/>
        <pt x="483" y="499" on="0"/>
        <pt x="420" y="520" on="0"/>
        <pt x="395" y="520" on="1"/>
        <pt x="352" y="520" on="0"/>
        <pt x="265" y="452" on="0"/>
        <pt x="215" y="369" on="1"/>
      </contour>
    </TTGlyph>
    <TTGlyph name="asterisk" xMin="59" yMin="891" xMax="768" yMax="1546">
      <contour>
        <pt x="483" y="1295" on="1"/>
        <pt x="731" y="1376" on="1"/>
        <pt x="768" y="1257" on="1"/>
        <pt x="519" y="1177" on="1"/>
        <pt x="676" y="963" on="1"/>
        <pt x="567" y="891" on="1"/>
        <pt x="418" y="1097" on="1"/>
        <pt x="270" y="893" on="1"/>
        <pt x="162" y="963" on="1"/>
        <pt x="317" y="1175" on="1"/>
        <pt x="59" y="1257" on="1"/>
        <pt x="98" y="1382" on="1"/>
        <pt x="350" y="1300" on="1"/>
        <pt x="350" y="1546" on="1"/>
        <pt x="483" y="1546" on="1"/>
      </contour>
    </TTGlyph>
    <TTGlyph name="at" xMin="145" yMin="-506" xMax="2146" yMax="1491">
      <contour>
        <pt x="1589" y="956" on="1"/>
        <pt x="1589" y="293" on="1"/>
        <pt x="1589" y="232" on="0"/>
        <pt x="1624" y="170" on="0"/>
        <pt x="1672" y="141" on="0"/>
        <pt x="1709" y="141" on="1"/>
        <pt x="1783" y="141" on="0"/>
        <pt x="1881" y="222" on="0"/>
        <pt x="1939" y="336" on="0"/>
        <pt x="1962" y="457" on="0"/>
        <pt x="1962" y="547" on="1"/>
        <pt x="1962" y="649" on="0"/>
        <pt x="1904" y="840" on="0"/>
        <pt x="1799" y="1009" on="0"/>
        <pt x="1651" y="1150" on="0"/>
        <pt x="1469" y="1251" on="0"/>
        <pt x="1259" y="1307" on="0"/>
        <pt x="1145" y="1307" on="1"/>
        <pt x="1032" y="1307" on="0"/>
        <pt x="823" y="1249" on="0"/>
        <pt x="642" y="1143" on="0"/>
        <pt x="493" y="995" on="0"/>
        <pt x="388" y="814" on="0"/>
        <pt x="330" y="606" on="0"/>
        <pt x="330" y="494" on="1"/>
        <pt x="330" y="381" on="0"/>
        <pt x="388" y="172" on="0"/>
        <pt x="493" y="-10" on="0"/>
        <pt x="642" y="-158" on="0"/>
        <pt x="823" y="-264" on="0"/>
        <pt x="1032" y="-322" on="0"/>
        <pt x="1145" y="-322" on="1"/>
        <pt x="1260" y="-322" on="0"/>
        <pt x="1474" y="-261" on="0"/>
        <pt x="1567" y="-205" on="1"/>
        <pt x="1661" y="-362" on="1"/>
        <pt x="1548" y="-431" on="0"/>
        <pt x="1287" y="-506" on="0"/>
        <pt x="1145" y="-506" on="1"/>
        <pt x="1007" y="-506" on="0"/>
        <pt x="751" y="-435" on="0"/>
        <pt x="529" y="-305" on="0"/>
        <pt x="346" y="-122" on="0"/>
        <pt x="216" y="100" on="0"/>
        <pt x="145" y="356" on="0"/>
        <pt x="145" y="494" on="1"/>
        <pt x="145" y="631" on="0"/>
        <pt x="216" y="886" on="0"/>
        <pt x="346" y="1108" on="0"/>
        <pt x="529" y="1290" on="0"/>
        <pt x="751" y="1420" on="0"/>
        <pt x="1007" y="1491" on="0"/>
        <pt x="1145" y="1491" on="1"/>
        <pt x="1285" y="1491" on="0"/>
        <pt x="1542" y="1422" on="0"/>
        <pt x="1764" y="1298" on="0"/>
        <pt x="1946" y="1124" on="0"/>
        <pt x="2075" y="914" on="0"/>
        <pt x="2146" y="675" on="0"/>
        <pt x="2146" y="547" on="1"/>
        <pt x="2146" y="479" on="0"/>
        <pt x="2120" y="341" on="0"/>
        <pt x="2068" y="215" on="0"/>
        <pt x="1993" y="105" on="0"/>
        <pt x="1894" y="24" on="0"/>
        <pt x="1774" y="-23" on="0"/>
        <pt x="1704" y="-23" on="1"/>
        <pt x="1612" y="-23" on="0"/>
        <pt x="1488" y="57" on="0"/>
        <pt x="1453" y="120" on="1"/>
        <pt x="1390" y="68" on="0"/>
        <pt x="1232" y="10" on="0"/>
        <pt x="1141" y="10" on="1"/>
        <pt x="1036" y="10" on="0"/>
        <pt x="861" y="83" on="0"/>
        <pt x="733" y="211" on="0"/>
        <pt x="662" y="381" on="0"/>
        <pt x="662" y="479" on="1"/>
        <pt x="662" y="576" on="0"/>
        <pt x="736" y="747" on="0"/>
        <pt x="865" y="875" on="0"/>
        <pt x="1040" y="950" on="0"/>
        <pt x="1141" y="950" on="1"/>
        <pt x="1214" y="950" on="0"/>
        <pt x="1348" y="910" on="0"/>
        <pt x="1405" y="873" on="1"/>
        <pt x="1405" y="956" on="1"/>
      </contour>
      <contour>
        <pt x="1141" y="195" on="1"/>
        <pt x="1235" y="195" on="0"/>
        <pt x="1371" y="282" on="0"/>
        <pt x="1405" y="351" on="1"/>
        <pt x="1405" y="604" on="1"/>
        <pt x="1388" y="639" on="0"/>
        <pt x="1335" y="699" on="0"/>
        <pt x="1267" y="742" on="0"/>
        <pt x="1186" y="766" on="0"/>
        <pt x="1141" y="766" on="1"/>
        <pt x="1077" y="766" on="0"/>
        <pt x="969" y="720" on="0"/>
        <pt x="890" y="642" on="0"/>
        <pt x="846" y="537" on="0"/>
        <pt x="846" y="479" on="1"/>
        <pt x="846" y="420" on="0"/>
        <pt x="888" y="317" on="0"/>
        <pt x="965" y="240" on="0"/>
        <pt x="1074" y="195" on="0"/>
      </contour>
    </TTGlyph>
    <TTGlyph name="atilde" xMin="70" yMin="-29" xMax="1200" yMax="1894">
      <component glyphName="a" x="0" y="0" flags="0x204"/>
      <component glyphName="tilde" x="78" y="0" flags="0x4"/>
    </TTGlyph>
    <TTGlyph name="b" xMin="57" yMin="-16" xMax="1161" yMax="1556">
      <contour>
        <pt x="57" y="1556" on="1"/>
        <pt x="393" y="1556" on="1"/>
        <pt x="393" y="950" on="1"/>
        <pt x="459" y="1001" on="0"/>
        <pt x="615" y="1061" on="0"/>
        <pt x="698" y="1061" on="1"/>
        <pt x="800" y="1061" on="0"/>
        <pt x="970" y="985" on="0"/>
        <pt x="1093" y="847" on="0"/>
        <pt x="1161" y="654" on="0"/>
        <pt x="1161" y="537" on="1"/>
        <pt x="1161" y="412" on="0"/>
        <pt x="1085" y="209" on="0"/>
        <pt x="950" y="63" on="0"/>
        <pt x="764" y="-16" on="0"/>
        <pt x="653" y="-16" on="1"/>
        <pt x="576" y="-16" on="0"/>
        <pt x="441" y="29" on="0"/>
        <pt x="393" y="65" on="1"/>
        <pt x="393" y="0" on="1"/>
        <pt x="207" y="0" on="1"/>
        <pt x="207" y="1384" on="1"/>
        <pt x="57" y="1384" on="1"/>
      </contour>
      <contour>
        <pt x="649" y="897" on="1"/>
        <pt x="576" y="897" on="0"/>
        <pt x="442" y="837" on="0"/>
        <pt x="393" y="786" on="1"/>
        <pt x="393" y="229" on="1"/>
        <pt x="425" y="196" on="0"/>
        <pt x="549" y="145" on="0"/>
        <pt x="643" y="145" on="1"/>
        <pt x="707" y="145" on="0"/>
        <pt x="825" y="193" on="0"/>
        <pt x="915" y="290" on="0"/>
        <pt x="969" y="434" on="0"/>
        <pt x="969" y="530" on="1"/>
        <pt x="969" y="618" on="0"/>
        <pt x="918" y="754" on="0"/>
        <pt x="831" y="848" on="0"/>
        <pt x="715" y="897" on="0"/>
      </contour>
    </TTGlyph>
    <TTGlyph name="backslash" xMin="41" yMin="-25" xMax="907" yMax="1581">
      <contour>
        <pt x="41" y="1581" on="1"/>
        <pt x="203" y="1581" on="1"/>
        <pt x="907" y="-25" on="1"/>
        <pt x="745" y="-25" on="1"/>
      </contour>
    </TTGlyph>
    <TTGlyph name="bar" xMin="152" yMin="-270" xMax="307" yMax="1726">
      <contour>
        <pt x="152" y="1726" on="1"/>
        <pt x="307" y="1726" on="1"/>
        <pt x="307" y="-270" on="1"/>
        <pt x="152" y="-270" on="1"/>
      </contour>
    </TTGlyph>
    <TTGlyph name="braceleft" xMin="133" yMin="-377" xMax="649" yMax="1706">
      <contour>
        <pt x="133" y="723" on="1"/>
        <pt x="175" y="723" on="0"/>
        <pt x="238" y="769" on="0"/>
        <pt x="280" y="844" on="0"/>
        <pt x="301" y="940" on="0"/>
        <pt x="301" y="990" on="1"/>
        <pt x="301" y="1442" on="1"/>
        <pt x="301" y="1505" on="0"/>
        <pt x="338" y="1603" on="0"/>
        <pt x="397" y="1671" on="0"/>
        <pt x="473" y="1706" on="0"/>
        <pt x="512" y="1706" on="1"/>
        <pt x="649" y="1706" on="1"/>
        <pt x="649" y="1580" on="1"/>
        <pt x="580" y="1580" on="1"/>
        <pt x="526" y="1580" on="0"/>
        <pt x="485" y="1475" on="0"/>
        <pt x="485" y="1381" on="1"/>
        <pt x="485" y="953" on="1"/>
        <pt x="485" y="891" on="0"/>
        <pt x="459" y="795" on="0"/>
        <pt x="414" y="723" on="0"/>
        <pt x="353" y="675" on="0"/>
        <pt x="317" y="662" on="1"/>
        <pt x="317" y="658" on="1"/>
        <pt x="353" y="645" on="0"/>
        <pt x="414" y="597" on="0"/>
        <pt x="459" y="525" on="0"/>
        <pt x="485" y="428" on="0"/>
        <pt x="485" y="367" on="1"/>
        <pt x="485" y="-51" on="1"/>
        <pt x="485" y="-145" on="0"/>
        <pt x="526" y="-250" on="0"/>
        <pt x="580" y="-250" on="1"/>
        <pt x="649" y="-250" on="1"/>
        <pt x="649" y="-377" on="1"/>
        <pt x="512" y="-377" on="1"/>
        <pt x="473" y="-377" on="0"/>
        <pt x="397" y="-342" on="0"/>
        <pt x="338" y="-274" on="0"/>
        <pt x="301" y="-176" on="0"/>
        <pt x="301" y="-113" on="1"/>
        <pt x="301" y="330" on="1"/>
        <pt x="301" y="380" on="0"/>
        <pt x="280" y="475" on="0"/>
        <pt x="238" y="550" on="0"/>
        <pt x="175" y="596" on="0"/>
        <pt x="133" y="596" on="1"/>
      </contour>
    </TTGlyph>
    <TTGlyph name="braceright" xMin="72" yMin="-377" xMax="588" yMax="1706">
      <contour>
        <pt x="72" y="-377" on="1"/>
        <pt x="72" y="-250" on="1"/>
        <pt x="141" y="-250" on="1"/>
        <pt x="195" y="-250" on="0"/>
        <pt x="236" y="-145" on="0"/>
        <pt x="236" y="-51" on="1"/>
        <pt x="236" y="367" on="1"/>
        <pt x="236" y="428" on="0"/>
        <pt x="262" y="525" on="0"/>
        <pt x="307" y="597" on="0"/>
        <pt x="368" y="645" on="0"/>
        <pt x="403" y="658" on="1"/>
        <pt x="403" y="662" on="1"/>
        <pt x="368" y="675" on="0"/>
        <pt x="307" y="723" on="0"/>
        <pt x="262" y="795" on="0"/>
        <pt x="236" y="891" on="0"/>
        <pt x="236" y="953" on="1"/>
        <pt x="236" y="1381" on="1"/>
        <pt x="236" y="1475" on="0"/>
        <pt x="195" y="1580" on="0"/>
        <pt x="141" y="1580" on="1"/>
        <pt x="72" y="1580" on="1"/>
        <pt x="72" y="1706" on="1"/>
        <pt x="209" y="1706" on="1"/>
        <pt x="248" y="1706" on="0"/>
        <pt x="324" y="1671" on="0"/>
        <pt x="383" y="1603" on="0"/>
        <pt x="420" y="1505" on="0"/>
        <pt x="420" y="1442" on="1"/>
        <pt x="420" y="990" on="1"/>
        <pt x="420" y="940" on="0"/>
        <pt x="441" y="844" on="0"/>
        <pt x="483" y="769" on="0"/>
        <pt x="546" y="723" on="0"/>
        <pt x="588" y="723" on="1"/>
        <pt x="588" y="596" on="1"/>
        <pt x="546" y="596" on="0"/>
        <pt x="483" y="550" on="0"/>
        <pt x="441" y="475" on="0"/>
        <pt x="420" y="380" on="0"/>
        <pt x="420" y="330" on="1"/>
        <pt x="420" y="-113" on="1"/>
        <pt x="420" y="-176" on="0"/>
        <pt x="383" y="-274" on="0"/>
        <pt x="324" y="-342" on="0"/>
        <pt x="248" y="-377" on="0"/>
        <pt x="209" y="-377" on="1"/>
      </contour>
    </TTGlyph>
    <TTGlyph name="bracketleft" xMin="238" yMin="-377" xMax="641" yMax="1706">
      <contour>
        <pt x="238" y="1706" on="1"/>
        <pt x="641" y="1706" on="1"/>
        <pt x="641" y="1555" on="1"/>
        <pt x="422" y="1555" on="1"/>
        <pt x="422" y="-225" on="1"/>
        <pt x="641" y="-225" on="1"/>
        <pt x="641" y="-377" on="1"/>
        <pt x="238" y="-377" on="1"/>
      </contour>
    </TTGlyph>
    <TTGlyph name="bracketright" xMin="80" yMin="-377" xMax="483" yMax="1706">
      <contour>
        <pt x="299" y="1555" on="1"/>
        <pt x="80" y="1555" on="1"/>
        <pt x="80" y="1706" on="1"/>
        <pt x="483" y="1706" on="1"/>
        <pt x="483" y="-377" on="1"/>
        <pt x="80" y="-377" on="1"/>
        <pt x="80" y="-225" on="1"/>
        <pt x="299" y="-225" on="1"/>
      </contour>
    </TTGlyph>
    <TTGlyph name="breve" xMin="119" yMin="1149" xMax="856" yMax="1479">
      <contour>
        <pt x="487" y="1149" on="1"/>
        <pt x="411" y="1149" on="0"/>
        <pt x="280" y="1199" on="0"/>
        <pt x="181" y="1287" on="0"/>
        <pt x="122" y="1408" on="0"/>
        <pt x="119" y="1479" on="1"/>
        <pt x="240" y="1479" on="1"/>
        <pt x="241" y="1436" on="0"/>
        <pt x="279" y="1358" on="0"/>
        <pt x="345" y="1299" on="0"/>
        <pt x="435" y="1264" on="0"/>
        <pt x="487" y="1264" on="1"/>
        <pt x="539" y="1264" on="0"/>
        <pt x="629" y="1298" on="0"/>
        <pt x="695" y="1357" on="0"/>
        <pt x="733" y="1435" on="0"/>
        <pt x="735" y="1479" on="1"/>
        <pt x="856" y="1479" on="1"/>
        <pt x="853" y="1408" on="0"/>
        <pt x="793" y="1287" on="0"/>
        <pt x="694" y="1199" on="0"/>
        <pt x="562" y="1149" on="0"/>
      </contour>
    </TTGlyph>
    <TTGlyph name="breve.i" xMin="119" yMin="1149" xMax="856" yMax="1479">
      <contour>
        <pt x="487" y="1149" on="1"/>
        <pt x="412" y="1149" on="0"/>
        <pt x="279" y="1198" on="0"/>
        <pt x="180" y="1288" on="0"/>
        <pt x="121" y="1407" on="0"/>
        <pt x="119" y="1479" on="1"/>
        <pt x="260" y="1479" on="1"/>
        <pt x="262" y="1393" on="0"/>
        <pt x="383" y="1280" on="0"/>
        <pt x="487" y="1280" on="1"/>
        <pt x="592" y="1280" on="0"/>
        <pt x="711" y="1391" on="0"/>
        <pt x="715" y="1479" on="1"/>
        <pt x="856" y="1479" on="1"/>
        <pt x="852" y="1407" on="0"/>
        <pt x="793" y="1288" on="0"/>
        <pt x="694" y="1198" on="0"/>
        <pt x="563" y="1149" on="0"/>
        <pt x="487" y="1149" on="1"/>
      </contour>
    </TTGlyph>
    <TTGlyph name="brokenbar" xMin="152" yMin="-268" xMax="307" yMax="1729">
      <contour>
        <pt x="152" y="1729" on="1"/>
        <pt x="307" y="1729" on="1"/>
        <pt x="307" y="979" on="1"/>
        <pt x="152" y="979" on="1"/>
      </contour>
      <contour>
        <pt x="152" y="481" on="1"/>
        <pt x="307" y="481" on="1"/>
        <pt x="307" y="-268" on="1"/>
        <pt x="152" y="-268" on="1"/>
      </contour>
    </TTGlyph>
    <TTGlyph name="bullet" xMin="154" yMin="528" xMax="657" yMax="1032">
      <contour>
        <pt x="154" y="780" on="1"/>
        <pt x="154" y="832" on="0"/>
        <pt x="193" y="924" on="0"/>
        <pt x="261" y="993" on="0"/>
        <pt x="353" y="1032" on="0"/>
        <pt x="406" y="1032" on="1"/>
        <pt x="458" y="1032" on="0"/>
        <pt x="550" y="993" on="0"/>
        <pt x="618" y="925" on="0"/>
        <pt x="657" y="833" on="0"/>
        <pt x="657" y="780" on="1"/>
        <pt x="657" y="727" on="0"/>
        <pt x="618" y="635" on="0"/>
        <pt x="550" y="567" on="0"/>
        <pt x="458" y="528" on="0"/>
        <pt x="406" y="528" on="1"/>
        <pt x="353" y="528" on="0"/>
        <pt x="261" y="567" on="0"/>
        <pt x="193" y="635" on="0"/>
        <pt x="154" y="727" on="0"/>
      </contour>
    </TTGlyph>
    <TTGlyph name="c" xMin="92" yMin="-29" xMax="1036" yMax="1069">
      <contour>
        <pt x="848" y="760" on="1"/>
        <pt x="806" y="835" on="0"/>
        <pt x="677" y="905" on="0"/>
        <pt x="592" y="905" on="1"/>
        <pt x="527" y="905" on="0"/>
        <pt x="413" y="851" on="0"/>
        <pt x="328" y="751" on="0"/>
        <pt x="279" y="608" on="0"/>
        <pt x="279" y="520" on="1"/>
        <pt x="279" y="433" on="0"/>
        <pt x="328" y="293" on="0"/>
        <pt x="414" y="194" on="0"/>
        <pt x="527" y="141" on="0"/>
        <pt x="592" y="141" on="1"/>
        <pt x="688" y="141" on="0"/>
        <pt x="830" y="234" on="0"/>
        <pt x="872" y="324" on="1"/>
        <pt x="1026" y="248" on="1"/>
        <pt x="996" y="184" on="0"/>
        <pt x="908" y="82" on="0"/>
        <pt x="797" y="10" on="0"/>
        <pt x="664" y="-29" on="0"/>
        <pt x="590" y="-29" on="1"/>
        <pt x="482" y="-29" on="0"/>
        <pt x="299" y="52" on="0"/>
        <pt x="166" y="198" on="0"/>
        <pt x="92" y="400" on="0"/>
        <pt x="92" y="520" on="1"/>
        <pt x="92" y="640" on="0"/>
        <pt x="170" y="842" on="0"/>
        <pt x="306" y="987" on="0"/>
        <pt x="488" y="1069" on="0"/>
        <pt x="592" y="1069" on="1"/>
        <pt x="690" y="1069" on="0"/>
        <pt x="865" y="1001" on="0"/>
        <pt x="931" y="932" on="1"/>
        <pt x="1036" y="932" on="1"/>
        <pt x="1036" y="760" on="1"/>
      </contour>
    </TTGlyph>
    <TTGlyph name="cacute" xMin="92" yMin="-29" xMax="2312" yMax="2435">
      <component glyphName="c" x="0" y="0" flags="0x204"/>
      <component glyphName="acute" x="387" y="0" flags="0x4"/>
    </TTGlyph>
    <TTGlyph name="caron" xMin="223" yMin="1135" xMax="776" yMax="1488">
      <contour>
        <pt x="776" y="1488" on="1"/>
        <pt x="524" y="1135" on="1"/>
        <pt x="475" y="1135" on="1"/>
        <pt x="223" y="1488" on="1"/>
        <pt x="367" y="1488" on="1"/>
        <pt x="500" y="1292" on="1"/>
        <pt x="635" y="1488" on="1"/>
      </contour>
    </TTGlyph>
    <TTGlyph name="caron.i" xMin="223" yMin="1135" xMax="776" yMax="1468">
      <contour>
        <pt x="776" y="1468" on="1"/>
        <pt x="524" y="1135" on="1"/>
        <pt x="475" y="1135" on="1"/>
        <pt x="223" y="1468" on="1"/>
        <pt x="367" y="1468" on="1"/>
        <pt x="500" y="1292" on="1"/>
        <pt x="635" y="1468" on="1"/>
      </contour>
    </TTGlyph>
    <TTGlyph name="ccaron" xMin="92" yMin="-29" xMax="1202" yMax="1967">
      <component glyphName="c" x="0" y="0" flags="0x204"/>
      <component glyphName="caron" x="127" y="0" flags="0x4"/>
    </TTGlyph>
    <TTGlyph name="ccedilla" xMin="92" yMin="-432" xMax="1063" yMax="1069">
      <component glyphName="c" x="0" y="0" flags="0x204"/>
      <component glyphName="cedilla" x="141" y="0" flags="0x4"/>
    </TTGlyph>
    <TTGlyph name="cedilla" xMin="182" yMin="-432" xMax="594" yMax="-78">
      <contour>
        <pt x="182" y="-303" on="1"/>
        <pt x="237" y="-302" on="0"/>
        <pt x="326" y="-265" on="0"/>
        <pt x="393" y="-205" on="0"/>
        <pt x="436" y="-124" on="0"/>
        <pt x="444" y="-78" on="1"/>
        <pt x="594" y="-123" on="1"/>
        <pt x="576" y="-196" on="0"/>
        <pt x="500" y="-311" on="0"/>
        <pt x="395" y="-390" on="0"/>
        <pt x="265" y="-432" on="0"/>
        <pt x="193" y="-432" on="1"/>
      </contour>
    </TTGlyph>
    <TTGlyph name="cent" xMin="111" yMin="-186" xMax="1055" yMax="1579">
      <contour>
        <pt x="516" y="-186" on="1"/>
        <pt x="516" y="143" on="1"/>
        <pt x="426" y="159" on="0"/>
        <pt x="277" y="251" on="0"/>
        <pt x="170" y="392" on="0"/>
        <pt x="111" y="576" on="0"/>
        <pt x="111" y="684" on="1"/>
        <pt x="111" y="790" on="0"/>
        <pt x="173" y="972" on="0"/>
        <pt x="281" y="1113" on="0"/>
        <pt x="429" y="1207" on="0"/>
        <pt x="516" y="1224" on="1"/>
        <pt x="516" y="1579" on="1"/>
        <pt x="713" y="1579" on="1"/>
        <pt x="713" y="1223" on="1"/>
        <pt x="781" y="1209" on="0"/>
        <pt x="901" y="1147" on="0"/>
        <pt x="949" y="1096" on="1"/>
        <pt x="1055" y="1096" on="1"/>
        <pt x="1055" y="924" on="1"/>
        <pt x="872" y="924" on="1"/>
        <pt x="868" y="922" on="1"/>
        <pt x="867" y="922" on="0"/>
        <pt x="867" y="924" on="1"/>
        <pt x="866" y="924" on="1"/>
        <pt x="866" y="925" on="1"/>
        <pt x="823" y="999" on="0"/>
        <pt x="695" y="1069" on="0"/>
        <pt x="610" y="1069" on="1"/>
        <pt x="545" y="1069" on="0"/>
        <pt x="431" y="1015" on="0"/>
        <pt x="346" y="915" on="0"/>
        <pt x="297" y="772" on="0"/>
        <pt x="297" y="684" on="1"/>
        <pt x="297" y="597" on="0"/>
        <pt x="346" y="457" on="0"/>
        <pt x="432" y="358" on="0"/>
        <pt x="545" y="305" on="0"/>
        <pt x="610" y="305" on="1"/>
        <pt x="706" y="305" on="0"/>
        <pt x="849" y="398" on="0"/>
        <pt x="891" y="487" on="1"/>
        <pt x="1044" y="412" on="1"/>
        <pt x="995" y="307" on="0"/>
        <pt x="825" y="168" on="0"/>
        <pt x="713" y="145" on="1"/>
        <pt x="713" y="-186" on="1"/>
      </contour>
    </TTGlyph>
    <TTGlyph name="circumflex" xMin="217" yMin="1176" xMax="782" yMax="1489">
      <contour>
        <pt x="217" y="1176" on="1"/>
        <pt x="467" y="1489" on="1"/>
        <pt x="530" y="1489" on="1"/>
        <pt x="782" y="1176" on="1"/>
        <pt x="633" y="1176" on="1"/>
        <pt x="500" y="1331" on="1"/>
        <pt x="365" y="1176" on="1"/>
      </contour>
    </TTGlyph>
    <TTGlyph name="circumflex.i" xMin="252" yMin="1176" xMax="747" yMax="1489">
      <contour>
        <pt x="252" y="1176" on="1"/>
        <pt x="462" y="1489" on="1"/>
        <pt x="535" y="1489" on="1"/>
        <pt x="747" y="1176" on="1"/>
        <pt x="593" y="1176" on="1"/>
        <pt x="500" y="1331" on="1"/>
        <pt x="405" y="1176" on="1"/>
      </contour>
    </TTGlyph>
    <TTGlyph name="colon" xMin="96" yMin="-12" xMax="356" yMax="1036">
      <contour>
        <pt x="96" y="907" on="1"/>
        <pt x="96" y="933" on="0"/>
        <pt x="117" y="980" on="0"/>
        <pt x="153" y="1015" on="0"/>
        <pt x="200" y="1036" on="0"/>
        <pt x="227" y="1036" on="1"/>
        <pt x="253" y="1036" on="0"/>
        <pt x="300" y="1015" on="0"/>
        <pt x="335" y="980" on="0"/>
        <pt x="356" y="933" on="0"/>
        <pt x="356" y="907" on="1"/>
        <pt x="356" y="880" on="0"/>
        <pt x="335" y="832" on="0"/>
        <pt x="300" y="796" on="0"/>
        <pt x="253" y="774" on="0"/>
        <pt x="227" y="774" on="1"/>
        <pt x="200" y="774" on="0"/>
        <pt x="153" y="796" on="0"/>
        <pt x="117" y="832" on="0"/>
        <pt x="96" y="880" on="0"/>
      </contour>
      <contour>
        <pt x="96" y="121" on="1"/>
        <pt x="96" y="147" on="0"/>
        <pt x="117" y="194" on="0"/>
        <pt x="153" y="229" on="0"/>
        <pt x="200" y="250" on="0"/>
        <pt x="227" y="250" on="1"/>
        <pt x="253" y="250" on="0"/>
        <pt x="300" y="229" on="0"/>
        <pt x="335" y="194" on="0"/>
        <pt x="356" y="147" on="0"/>
        <pt x="356" y="121" on="1"/>
        <pt x="356" y="94" on="0"/>
        <pt x="335" y="46" on="0"/>
        <pt x="300" y="9" on="0"/>
        <pt x="253" y="-12" on="0"/>
        <pt x="227" y="-12" on="1"/>
        <pt x="200" y="-12" on="0"/>
        <pt x="153" y="9" on="0"/>
        <pt x="117" y="46" on="0"/>
        <pt x="96" y="94" on="0"/>
      </contour>
    </TTGlyph>
    <TTGlyph name="comma" xMin="20" yMin="-340" xMax="424" yMax="283">
      <contour>
        <pt x="205" y="283" on="1"/>
        <pt x="424" y="197" on="1"/>
        <pt x="164" y="-340" on="1"/>
        <pt x="20" y="-287" on="1"/>
      </contour>
    </TTGlyph>
    <TTGlyph name="commaaccent" xMin="20" yMin="1128" xMax="344" yMax="1561">
      <contour>
        <pt x="231" y="1128" on="1"/>
        <pt x="20" y="1212" on="1"/>
        <pt x="201" y="1561" on="1"/>
        <pt x="344" y="1507" on="1"/>
      </contour>
    </TTGlyph>
    <TTGlyph name="commabelow" xMin="20" yMin="-473" xMax="344" yMax="-41">
      <contour>
        <pt x="133" y="-41" on="1"/>
        <pt x="344" y="-125" on="1"/>
        <pt x="164" y="-473" on="1"/>
        <pt x="20" y="-420" on="1"/>
      </contour>
    </TTGlyph>
    <TTGlyph name="copyright" xMin="102" yMin="-25" xMax="1817" yMax="1686">
      <contour>
        <pt x="102" y="831" on="1"/>
        <pt x="102" y="949" on="0"/>
        <pt x="163" y="1168" on="0"/>
        <pt x="274" y="1358" on="0"/>
        <pt x="430" y="1514" on="0"/>
        <pt x="620" y="1625" on="0"/>
        <pt x="839" y="1686" on="0"/>
        <pt x="958" y="1686" on="1"/>
        <pt x="1076" y="1686" on="0"/>
        <pt x="1296" y="1625" on="0"/>
        <pt x="1487" y="1514" on="0"/>
        <pt x="1644" y="1358" on="0"/>
        <pt x="1756" y="1168" on="0"/>
        <pt x="1817" y="949" on="0"/>
        <pt x="1817" y="831" on="1"/>
        <pt x="1817" y="712" on="0"/>
        <pt x="1756" y="493" on="0"/>
        <pt x="1644" y="303" on="0"/>
        <pt x="1487" y="147" on="0"/>
        <pt x="1296" y="36" on="0"/>
        <pt x="1076" y="-25" on="0"/>
        <pt x="958" y="-25" on="1"/>
        <pt x="839" y="-25" on="0"/>
        <pt x="620" y="36" on="0"/>
        <pt x="430" y="147" on="0"/>
        <pt x="274" y="303" on="0"/>
        <pt x="163" y="493" on="0"/>
        <pt x="102" y="712" on="0"/>
      </contour>
      <contour>
        <pt x="283" y="831" on="1"/>
        <pt x="283" y="689" on="0"/>
        <pt x="388" y="442" on="0"/>
        <pt x="571" y="259" on="0"/>
        <pt x="817" y="154" on="0"/>
        <pt x="958" y="154" on="1"/>
        <pt x="1099" y="154" on="0"/>
        <pt x="1344" y="259" on="0"/>
        <pt x="1529" y="442" on="0"/>
        <pt x="1634" y="689" on="0"/>
        <pt x="1634" y="831" on="1"/>
        <pt x="1634" y="971" on="0"/>
        <pt x="1529" y="1230" on="0"/>
        <pt x="1344" y="1402" on="0"/>
        <pt x="1099" y="1507" on="0"/>
        <pt x="958" y="1507" on="1"/>
        <pt x="817" y="1507" on="0"/>
        <pt x="571" y="1402" on="0"/>
        <pt x="388" y="1230" on="0"/>
        <pt x="283" y="971" on="0"/>
      </contour>
      <contour>
        <pt x="1190" y="1059" on="1"/>
        <pt x="1142" y="1105" on="0"/>
        <pt x="1037" y="1147" on="0"/>
        <pt x="979" y="1147" on="1"/>
        <pt x="915" y="1147" on="0"/>
        <pt x="803" y="1098" on="0"/>
        <pt x="720" y="1012" on="0"/>
        <pt x="672" y="898" on="0"/>
        <pt x="672" y="834" on="1"/>
        <pt x="672" y="770" on="0"/>
        <pt x="720" y="658" on="0"/>
        <pt x="803" y="574" on="0"/>
        <pt x="915" y="526" on="0"/>
        <pt x="979" y="526" on="1"/>
        <pt x="1035" y="526" on="0"/>
        <pt x="1140" y="571" on="0"/>
        <pt x="1171" y="606" on="1"/>
        <pt x="1305" y="477" on="1"/>
        <pt x="1282" y="447" on="0"/>
        <pt x="1210" y="394" on="0"/>
        <pt x="1124" y="355" on="0"/>
        <pt x="1027" y="332" on="0"/>
        <pt x="979" y="332" on="1"/>
        <pt x="874" y="332" on="0"/>
        <pt x="691" y="410" on="0"/>
        <pt x="555" y="546" on="0"/>
        <pt x="477" y="729" on="0"/>
        <pt x="477" y="834" on="1"/>
        <pt x="477" y="938" on="0"/>
        <pt x="555" y="1121" on="0"/>
        <pt x="691" y="1258" on="0"/>
        <pt x="874" y="1337" on="0"/>
        <pt x="979" y="1337" on="1"/>
        <pt x="1037" y="1337" on="0"/>
        <pt x="1140" y="1312" on="0"/>
        <pt x="1229" y="1271" on="0"/>
        <pt x="1302" y="1218" on="0"/>
        <pt x="1331" y="1190" on="1"/>
      </contour>
    </TTGlyph>
    <TTGlyph name="currency" xMin="55" yMin="170" xMax="1077" yMax="1321">
      <contour>
        <pt x="125" y="743" on="1"/>
        <pt x="125" y="822" on="0"/>
        <pt x="176" y="964" on="0"/>
        <pt x="221" y="1021" on="1"/>
        <pt x="74" y="1198" on="1"/>
        <pt x="219" y="1321" on="1"/>
        <pt x="368" y="1142" on="1"/>
        <pt x="414" y="1166" on="0"/>
        <pt x="517" y="1192" on="0"/>
        <pt x="573" y="1192" on="1"/>
        <pt x="628" y="1192" on="0"/>
        <pt x="730" y="1166" on="0"/>
        <pt x="776" y="1143" on="1"/>
        <pt x="913" y="1307" on="1"/>
        <pt x="1073" y="1192" on="1"/>
        <pt x="928" y="1018" on="1"/>
        <pt x="973" y="961" on="0"/>
        <pt x="1022" y="821" on="0"/>
        <pt x="1022" y="743" on="1"/>
        <pt x="1022" y="666" on="0"/>
        <pt x="974" y="528" on="0"/>
        <pt x="930" y="471" on="1"/>
        <pt x="1077" y="295" on="1"/>
        <pt x="926" y="176" on="1"/>
        <pt x="783" y="347" on="1"/>
        <pt x="735" y="322" on="0"/>
        <pt x="630" y="295" on="0"/>
        <pt x="573" y="295" on="1"/>
        <pt x="516" y="295" on="0"/>
        <pt x="413" y="321" on="0"/>
        <pt x="366" y="345" on="1"/>
        <pt x="221" y="170" on="1"/>
        <pt x="55" y="281" on="1"/>
        <pt x="219" y="471" on="1"/>
        <pt x="173" y="529" on="0"/>
        <pt x="125" y="666" on="0"/>
      </contour>
      <contour>
        <pt x="295" y="748" on="1"/>
        <pt x="295" y="689" on="0"/>
        <pt x="339" y="587" on="0"/>
        <pt x="415" y="511" on="0"/>
        <pt x="517" y="467" on="0"/>
        <pt x="575" y="467" on="1"/>
        <pt x="633" y="467" on="0"/>
        <pt x="736" y="511" on="0"/>
        <pt x="812" y="587" on="0"/>
        <pt x="856" y="689" on="0"/>
        <pt x="856" y="748" on="1"/>
        <pt x="856" y="806" on="0"/>
        <pt x="812" y="908" on="0"/>
        <pt x="736" y="984" on="0"/>
        <pt x="633" y="1028" on="0"/>
        <pt x="575" y="1028" on="1"/>
        <pt x="517" y="1028" on="0"/>
        <pt x="415" y="984" on="0"/>
        <pt x="339" y="908" on="0"/>
        <pt x="295" y="806" on="0"/>
      </contour>
    </TTGlyph>
    <TTGlyph name="cyr.dotlessi" xMin="1087" yMin="0" xMax="1579" yMax="1036">
      <contour>
        <pt x="1087" y="1036" on="1"/>
        <pt x="1579" y="1036" on="1"/>
        <pt x="1579" y="864" on="1"/>
        <pt x="1423" y="864" on="1"/>
        <pt x="1423" y="172" on="1"/>
        <pt x="1579" y="172" on="1"/>
        <pt x="1579" y="0" on="1"/>
        <pt x="1087" y="0" on="1"/>
        <pt x="1087" y="172" on="1"/>
        <pt x="1235" y="172" on="1"/>
        <pt x="1235" y="864" on="1"/>
        <pt x="1087" y="864" on="1"/>
      </contour>
    </TTGlyph>
    <TTGlyph name="d" xMin="92" yMin="-23" xMax="1190" yMax="1556">
      <contour>
        <pt x="711" y="1556" on="1"/>
        <pt x="1038" y="1556" on="1"/>
        <pt x="1038" y="172" on="1"/>
        <pt x="1190" y="172" on="1"/>
        <pt x="1190" y="0" on="1"/>
        <pt x="852" y="0" on="1"/>
        <pt x="852" y="85" on="1"/>
        <pt x="802" y="34" on="0"/>
        <pt x="670" y="-23" on="0"/>
        <pt x="586" y="-23" on="1"/>
        <pt x="481" y="-23" on="0"/>
        <pt x="300" y="50" on="0"/>
        <pt x="167" y="191" on="0"/>
        <pt x="92" y="396" on="0"/>
        <pt x="92" y="528" on="1"/>
        <pt x="92" y="648" on="0"/>
        <pt x="164" y="845" on="0"/>
        <pt x="296" y="984" on="0"/>
        <pt x="482" y="1061" on="0"/>
        <pt x="596" y="1061" on="1"/>
        <pt x="671" y="1061" on="0"/>
        <pt x="795" y="1028" on="0"/>
        <pt x="852" y="987" on="1"/>
        <pt x="852" y="1384" on="1"/>
        <pt x="711" y="1384" on="1"/>
      </contour>
      <contour>
        <pt x="610" y="139" on="1"/>
        <pt x="693" y="139" on="0"/>
        <pt x="805" y="188" on="0"/>
        <pt x="852" y="237" on="1"/>
        <pt x="852" y="817" on="1"/>
        <pt x="802" y="859" on="0"/>
        <pt x="672" y="897" on="0"/>
        <pt x="604" y="897" on="1"/>
        <pt x="538" y="897" on="0"/>
        <pt x="422" y="848" on="0"/>
        <pt x="335" y="754" on="0"/>
        <pt x="285" y="618" on="0"/>
        <pt x="285" y="530" on="1"/>
        <pt x="285" y="434" on="0"/>
        <pt x="333" y="288" on="0"/>
        <pt x="419" y="189" on="0"/>
        <pt x="539" y="139" on="0"/>
      </contour>
    </TTGlyph>
    <TTGlyph name="dagger" xMin="51" yMin="-471" xMax="1075" yMax="1513">
      <contour>
        <pt x="51" y="1036" on="1"/>
        <pt x="467" y="1036" on="1"/>
        <pt x="467" y="1513" on="1"/>
        <pt x="664" y="1513" on="1"/>
        <pt x="664" y="1036" on="1"/>
        <pt x="1075" y="1036" on="1"/>
        <pt x="1075" y="864" on="1"/>
        <pt x="664" y="864" on="1"/>
        <pt x="664" y="-471" on="1"/>
        <pt x="467" y="-471" on="1"/>
        <pt x="467" y="864" on="1"/>
        <pt x="51" y="864" on="1"/>
      </contour>
    </TTGlyph>
    <TTGlyph name="daggerdbl" xMin="51" yMin="-471" xMax="1075" yMax="1513">
      <contour>
        <pt x="51" y="1036" on="1"/>
        <pt x="467" y="1036" on="1"/>
        <pt x="467" y="1513" on="1"/>
        <pt x="664" y="1513" on="1"/>
        <pt x="664" y="1036" on="1"/>
        <pt x="1075" y="1036" on="1"/>
        <pt x="1075" y="864" on="1"/>
        <pt x="664" y="864" on="1"/>
        <pt x="664" y="170" on="1"/>
        <pt x="1075" y="170" on="1"/>
        <pt x="1075" y="-2" on="1"/>
        <pt x="664" y="-2" on="1"/>
        <pt x="664" y="-471" on="1"/>
        <pt x="467" y="-471" on="1"/>
        <pt x="467" y="-2" on="1"/>
        <pt x="51" y="-2" on="1"/>
        <pt x="51" y="170" on="1"/>
        <pt x="467" y="170" on="1"/>
        <pt x="467" y="864" on="1"/>
        <pt x="51" y="864" on="1"/>
      </contour>
    </TTGlyph>
    <TTGlyph name="dcaron" xMin="92" yMin="-23" xMax="1387" yMax="1593">
      <component glyphName="d" x="0" y="0" flags="0x4"/>
      <component glyphName="quotesingle" x="1153" y="0" flags="0x4"/>
    </TTGlyph>
    <TTGlyph name="dcroat" xMin="92" yMin="-23" xMax="1190" yMax="1556">
      <contour>
        <pt x="1038" y="1120" on="1"/>
        <pt x="1038" y="172" on="1"/>
        <pt x="1190" y="172" on="1"/>
        <pt x="1190" y="0" on="1"/>
        <pt x="852" y="0" on="1"/>
        <pt x="852" y="84" on="1"/>
        <pt x="803" y="35" on="0"/>
        <pt x="670" y="-23" on="0"/>
        <pt x="586" y="-23" on="1"/>
        <pt x="481" y="-23" on="0"/>
        <pt x="299" y="51" on="0"/>
        <pt x="168" y="190" on="0"/>
        <pt x="92" y="395" on="0"/>
        <pt x="92" y="528" on="1"/>
        <pt x="92" y="647" on="0"/>
        <pt x="164" y="844" on="0"/>
        <pt x="297" y="985" on="0"/>
        <pt x="481" y="1061" on="0"/>
        <pt x="596" y="1061" on="1"/>
        <pt x="672" y="1061" on="0"/>
        <pt x="795" y="1028" on="0"/>
        <pt x="852" y="987" on="1"/>
        <pt x="852" y="1120" on="1"/>
        <pt x="657" y="1120" on="1"/>
        <pt x="657" y="1292" on="1"/>
        <pt x="852" y="1292" on="1"/>
        <pt x="852" y="1384" on="1"/>
        <pt x="711" y="1384" on="1"/>
        <pt x="711" y="1556" on="1"/>
        <pt x="1038" y="1556" on="1"/>
        <pt x="1038" y="1292" on="1"/>
        <pt x="1190" y="1292" on="1"/>
        <pt x="1190" y="1120" on="1"/>
      </contour>
      <contour>
        <pt x="610" y="139" on="1"/>
        <pt x="698" y="139" on="0"/>
        <pt x="817" y="199" on="0"/>
        <pt x="852" y="238" on="1"/>
        <pt x="852" y="817" on="1"/>
        <pt x="803" y="858" on="0"/>
        <pt x="672" y="897" on="0"/>
        <pt x="604" y="897" on="1"/>
        <pt x="539" y="897" on="0"/>
        <pt x="422" y="848" on="0"/>
        <pt x="336" y="754" on="0"/>
        <pt x="285" y="618" on="0"/>
        <pt x="285" y="530" on="1"/>
        <pt x="285" y="434" on="0"/>
        <pt x="334" y="289" on="0"/>
        <pt x="420" y="190" on="0"/>
        <pt x="539" y="139" on="0"/>
        <pt x="610" y="139" on="1"/>
      </contour>
    </TTGlyph>
    <TTGlyph name="degree" xMin="102" yMin="1260" xMax="580" yMax="1737">
      <contour>
        <pt x="340" y="1737" on="1"/>
        <pt x="389" y="1737" on="0"/>
        <pt x="476" y="1699" on="0"/>
        <pt x="542" y="1633" on="0"/>
        <pt x="580" y="1546" on="0"/>
        <pt x="580" y="1497" on="1"/>
        <pt x="580" y="1448" on="0"/>
        <pt x="542" y="1362" on="0"/>
        <pt x="476" y="1297" on="0"/>
        <pt x="389" y="1260" on="0"/>
        <pt x="340" y="1260" on="1"/>
        <pt x="291" y="1260" on="0"/>
        <pt x="204" y="1297" on="0"/>
        <pt x="140" y="1362" on="0"/>
        <pt x="102" y="1448" on="0"/>
        <pt x="102" y="1497" on="1"/>
        <pt x="102" y="1546" on="0"/>
        <pt x="140" y="1633" on="0"/>
        <pt x="204" y="1699" on="0"/>
        <pt x="291" y="1737" on="0"/>
      </contour>
      <contour>
        <pt x="205" y="1497" on="1"/>
        <pt x="205" y="1469" on="0"/>
        <pt x="226" y="1420" on="0"/>
        <pt x="263" y="1383" on="0"/>
        <pt x="312" y="1362" on="0"/>
        <pt x="340" y="1362" on="1"/>
        <pt x="368" y="1362" on="0"/>
        <pt x="417" y="1383" on="0"/>
        <pt x="455" y="1420" on="0"/>
        <pt x="477" y="1469" on="0"/>
        <pt x="477" y="1497" on="1"/>
        <pt x="477" y="1525" on="0"/>
        <pt x="455" y="1574" on="0"/>
        <pt x="417" y="1612" on="0"/>
        <pt x="368" y="1634" on="0"/>
        <pt x="340" y="1634" on="1"/>
        <pt x="312" y="1634" on="0"/>
        <pt x="263" y="1612" on="0"/>
        <pt x="226" y="1574" on="0"/>
        <pt x="205" y="1525" on="0"/>
      </contour>
    </TTGlyph>
    <TTGlyph name="dieresis" xMin="39" yMin="1227" xMax="752" yMax="1489">
      <contour>
        <pt x="39" y="1360" on="1"/>
        <pt x="39" y="1386" on="0"/>
        <pt x="60" y="1433" on="0"/>
        <pt x="95" y="1468" on="0"/>
        <pt x="142" y="1489" on="0"/>
        <pt x="168" y="1489" on="1"/>
        <pt x="193" y="1489" on="0"/>
        <pt x="239" y="1468" on="0"/>
        <pt x="273" y="1433" on="0"/>
        <pt x="293" y="1386" on="0"/>
        <pt x="293" y="1360" on="1"/>
        <pt x="293" y="1333" on="0"/>
        <pt x="273" y="1285" on="0"/>
        <pt x="239" y="1248" on="0"/>
        <pt x="193" y="1227" on="0"/>
        <pt x="168" y="1227" on="1"/>
        <pt x="142" y="1227" on="0"/>
        <pt x="95" y="1248" on="0"/>
        <pt x="60" y="1285" on="0"/>
        <pt x="39" y="1333" on="0"/>
      </contour>
      <contour>
        <pt x="498" y="1360" on="1"/>
        <pt x="498" y="1386" on="0"/>
        <pt x="519" y="1433" on="0"/>
        <pt x="554" y="1468" on="0"/>
        <pt x="601" y="1489" on="0"/>
        <pt x="627" y="1489" on="1"/>
        <pt x="652" y="1489" on="0"/>
        <pt x="697" y="1468" on="0"/>
        <pt x="732" y="1433" on="0"/>
        <pt x="752" y="1386" on="0"/>
        <pt x="752" y="1360" on="1"/>
        <pt x="752" y="1333" on="0"/>
        <pt x="732" y="1285" on="0"/>
        <pt x="697" y="1248" on="0"/>
        <pt x="652" y="1227" on="0"/>
        <pt x="627" y="1227" on="1"/>
        <pt x="601" y="1227" on="0"/>
        <pt x="554" y="1248" on="0"/>
        <pt x="519" y="1285" on="0"/>
        <pt x="498" y="1333" on="0"/>
      </contour>
    </TTGlyph>
    <TTGlyph name="dieresis.i" xMin="131" yMin="1227" xMax="700" yMax="1489">
      <contour>
        <pt x="131" y="1360" on="1"/>
        <pt x="131" y="1413" on="0"/>
        <pt x="207" y="1489" on="0"/>
        <pt x="260" y="1489" on="1"/>
        <pt x="285" y="1489" on="0"/>
        <pt x="332" y="1468" on="0"/>
        <pt x="365" y="1434" on="0"/>
        <pt x="385" y="1386" on="0"/>
        <pt x="385" y="1360" on="1"/>
        <pt x="385" y="1333" on="0"/>
        <pt x="365" y="1284" on="0"/>
        <pt x="332" y="1247" on="0"/>
        <pt x="285" y="1227" on="0"/>
        <pt x="260" y="1227" on="1"/>
        <pt x="207" y="1227" on="0"/>
        <pt x="131" y="1307" on="0"/>
        <pt x="131" y="1360" on="1"/>
      </contour>
      <contour>
        <pt x="446" y="1360" on="1"/>
        <pt x="446" y="1413" on="0"/>
        <pt x="522" y="1489" on="0"/>
        <pt x="575" y="1489" on="1"/>
        <pt x="600" y="1489" on="0"/>
        <pt x="647" y="1468" on="0"/>
        <pt x="680" y="1434" on="0"/>
        <pt x="700" y="1386" on="0"/>
        <pt x="700" y="1360" on="1"/>
        <pt x="700" y="1333" on="0"/>
        <pt x="680" y="1284" on="0"/>
        <pt x="647" y="1247" on="0"/>
        <pt x="600" y="1227" on="0"/>
        <pt x="575" y="1227" on="1"/>
        <pt x="522" y="1227" on="0"/>
        <pt x="446" y="1307" on="0"/>
        <pt x="446" y="1360" on="1"/>
      </contour>
    </TTGlyph>
    <TTGlyph name="divide" xMin="51" yMin="-12" xMax="1075" yMax="1036">
      <contour>
        <pt x="414" y="907" on="1"/>
        <pt x="414" y="933" on="0"/>
        <pt x="435" y="980" on="0"/>
        <pt x="470" y="1015" on="0"/>
        <pt x="518" y="1036" on="0"/>
        <pt x="545" y="1036" on="1"/>
        <pt x="571" y="1036" on="0"/>
        <pt x="618" y="1015" on="0"/>
        <pt x="653" y="980" on="0"/>
        <pt x="674" y="933" on="0"/>
        <pt x="674" y="907" on="1"/>
        <pt x="674" y="880" on="0"/>
        <pt x="653" y="832" on="0"/>
        <pt x="618" y="795" on="0"/>
        <pt x="571" y="774" on="0"/>
        <pt x="545" y="774" on="1"/>
        <pt x="518" y="774" on="0"/>
        <pt x="470" y="795" on="0"/>
        <pt x="435" y="832" on="0"/>
        <pt x="414" y="880" on="0"/>
      </contour>
      <contour>
        <pt x="414" y="121" on="1"/>
        <pt x="414" y="147" on="0"/>
        <pt x="435" y="194" on="0"/>
        <pt x="470" y="229" on="0"/>
        <pt x="518" y="250" on="0"/>
        <pt x="545" y="250" on="1"/>
        <pt x="571" y="250" on="0"/>
        <pt x="618" y="229" on="0"/>
        <pt x="653" y="194" on="0"/>
        <pt x="674" y="147" on="0"/>
        <pt x="674" y="121" on="1"/>
        <pt x="674" y="94" on="0"/>
        <pt x="653" y="46" on="0"/>
        <pt x="618" y="9" on="0"/>
        <pt x="571" y="-12" on="0"/>
        <pt x="545" y="-12" on="1"/>
        <pt x="518" y="-12" on="0"/>
        <pt x="470" y="9" on="0"/>
        <pt x="435" y="46" on="0"/>
        <pt x="414" y="94" on="0"/>
      </contour>
      <contour>
        <pt x="51" y="614" on="1"/>
        <pt x="1075" y="614" on="1"/>
        <pt x="1075" y="452" on="1"/>
        <pt x="51" y="452" on="1"/>
      </contour>
    </TTGlyph>
    <TTGlyph name="divisionslash" xMin="-203" yMin="-61" xMax="956" yMax="1167">
      <contour>
        <pt x="758" y="1167" on="1"/>
        <pt x="956" y="1167" on="1"/>
        <pt x="-4" y="-61" on="1"/>
        <pt x="-203" y="-61" on="1"/>
      </contour>
    </TTGlyph>
    <TTGlyph name="dollar" xMin="150" yMin="-186" xMax="1061" yMax="1579">
      <contour>
        <pt x="516" y="-186" on="1"/>
        <pt x="516" y="136" on="1"/>
        <pt x="417" y="152" on="0"/>
        <pt x="302" y="242" on="0"/>
        <pt x="269" y="303" on="1"/>
        <pt x="150" y="303" on="1"/>
        <pt x="150" y="475" on="1"/>
        <pt x="401" y="475" on="1"/>
        <pt x="401" y="464" on="1"/>
        <pt x="403" y="465" on="1"/>
        <pt x="403" y="384" on="0"/>
        <pt x="515" y="299" on="0"/>
        <pt x="625" y="299" on="1"/>
        <pt x="725" y="299" on="0"/>
        <pt x="842" y="377" on="0"/>
        <pt x="842" y="449" on="1"/>
        <pt x="842" y="486" on="0"/>
        <pt x="803" y="536" on="0"/>
        <pt x="744" y="569" on="0"/>
        <pt x="672" y="589" on="0"/>
        <pt x="639" y="598" on="1"/>
        <pt x="463" y="645" on="1"/>
        <pt x="406" y="660" on="0"/>
        <pt x="310" y="709" on="0"/>
        <pt x="241" y="781" on="0"/>
        <pt x="203" y="879" on="0"/>
        <pt x="203" y="944" on="1"/>
        <pt x="203" y="1002" on="0"/>
        <pt x="245" y="1101" on="0"/>
        <pt x="325" y="1177" on="0"/>
        <pt x="442" y="1227" on="0"/>
        <pt x="516" y="1238" on="1"/>
        <pt x="516" y="1579" on="1"/>
        <pt x="713" y="1579" on="1"/>
        <pt x="713" y="1237" on="1"/>
        <pt x="798" y="1222" on="0"/>
        <pt x="922" y="1144" on="0"/>
        <pt x="960" y="1090" on="1"/>
        <pt x="1061" y="1090" on="1"/>
        <pt x="1061" y="918" on="1"/>
        <pt x="852" y="918" on="1"/>
        <pt x="829" y="915" on="1"/>
        <pt x="829" y="918" on="1"/>
        <pt x="827" y="918" on="1"/>
        <pt x="827" y="940" on="1"/>
        <pt x="817" y="1005" on="0"/>
        <pt x="707" y="1085" on="0"/>
        <pt x="616" y="1085" on="1"/>
        <pt x="507" y="1085" on="0"/>
        <pt x="393" y="1014" on="0"/>
        <pt x="393" y="952" on="1"/>
        <pt x="393" y="910" on="0"/>
        <pt x="430" y="860" on="0"/>
        <pt x="486" y="829" on="0"/>
        <pt x="553" y="812" on="0"/>
        <pt x="584" y="803" on="1"/>
        <pt x="758" y="750" on="1"/>
        <pt x="824" y="730" on="0"/>
        <pt x="929" y="679" on="0"/>
        <pt x="1001" y="611" on="0"/>
        <pt x="1040" y="520" on="0"/>
        <pt x="1040" y="459" on="1"/>
        <pt x="1040" y="397" on="0"/>
        <pt x="993" y="290" on="0"/>
        <pt x="907" y="206" on="0"/>
        <pt x="786" y="148" on="0"/>
        <pt x="713" y="136" on="1"/>
        <pt x="713" y="-186" on="1"/>
      </contour>
    </TTGlyph>
    <TTGlyph name="dotaccent" xMin="174" yMin="1270" xMax="434" yMax="1532">
      <contour>
        <pt x="174" y="1403" on="1"/>
        <pt x="174" y="1429" on="0"/>
        <pt x="195" y="1476" on="0"/>
        <pt x="230" y="1511" on="0"/>
        <pt x="278" y="1532" on="0"/>
        <pt x="305" y="1532" on="1"/>
        <pt x="331" y="1532" on="0"/>
        <pt x="378" y="1511" on="0"/>
        <pt x="413" y="1476" on="0"/>
        <pt x="434" y="1429" on="0"/>
        <pt x="434" y="1403" on="1"/>
        <pt x="434" y="1376" on="0"/>
        <pt x="413" y="1328" on="0"/>
        <pt x="378" y="1291" on="0"/>
        <pt x="331" y="1270" on="0"/>
        <pt x="305" y="1270" on="1"/>
        <pt x="278" y="1270" on="0"/>
        <pt x="230" y="1291" on="0"/>
        <pt x="195" y="1328" on="0"/>
        <pt x="174" y="1376" on="0"/>
      </contour>
    </TTGlyph>
    <TTGlyph name="dotlessi" xMin="92" yMin="0" xMax="586" yMax="1036">
      <contour>
        <pt x="92" y="1036" on="1"/>
        <pt x="430" y="1036" on="1"/>
        <pt x="430" y="172" on="1"/>
        <pt x="586" y="172" on="1"/>
        <pt x="586" y="0" on="1"/>
        <pt x="94" y="0" on="1"/>
        <pt x="94" y="172" on="1"/>
        <pt x="242" y="172" on="1"/>
        <pt x="242" y="864" on="1"/>
        <pt x="92" y="864" on="1"/>
      </contour>
    </TTGlyph>
    <TTGlyph name="e" xMin="92" yMin="-29" xMax="1022" yMax="1063">
      <contour>
        <pt x="276" y="494" on="1"/>
        <pt x="276" y="450" on="0"/>
        <pt x="289" y="377" on="0"/>
        <pt x="301" y="344" on="1"/>
        <pt x="338" y="244" on="0"/>
        <pt x="501" y="143" on="0"/>
        <pt x="604" y="143" on="1"/>
        <pt x="685" y="143" on="0"/>
        <pt x="838" y="188" on="0"/>
        <pt x="922" y="236" on="1"/>
        <pt x="997" y="109" on="1"/>
        <pt x="895" y="39" on="0"/>
        <pt x="689" y="-29" on="0"/>
        <pt x="578" y="-29" on="1"/>
        <pt x="473" y="-29" on="0"/>
        <pt x="294" y="41" on="0"/>
        <pt x="165" y="179" on="0"/>
        <pt x="92" y="385" on="0"/>
        <pt x="92" y="522" on="1"/>
        <pt x="92" y="633" on="0"/>
        <pt x="154" y="830" on="0"/>
        <pt x="277" y="977" on="0"/>
        <pt x="459" y="1063" on="0"/>
        <pt x="580" y="1063" on="1"/>
        <pt x="697" y="1063" on="0"/>
        <pt x="854" y="992" on="0"/>
        <pt x="953" y="875" on="0"/>
        <pt x="1004" y="725" on="0"/>
        <pt x="1014" y="647" on="1"/>
        <pt x="1019" y="609" on="0"/>
        <pt x="1022" y="531" on="0"/>
        <pt x="1022" y="494" on="1"/>
      </contour>
      <contour>
        <pt x="567" y="907" on="1"/>
        <pt x="502" y="907" on="0"/>
        <pt x="405" y="870" on="0"/>
        <pt x="337" y="801" on="0"/>
        <pt x="296" y="701" on="0"/>
        <pt x="286" y="639" on="1"/>
        <pt x="823" y="639" on="1"/>
        <pt x="819" y="697" on="0"/>
        <pt x="790" y="795" on="0"/>
        <pt x="730" y="867" on="0"/>
        <pt x="636" y="907" on="0"/>
      </contour>
    </TTGlyph>
    <TTGlyph name="eacute" xMin="946" yMin="-29" xMax="3170" yMax="2914">
      <component glyphName="e" x="0" y="0" flags="0x204"/>
      <component glyphName="acute" x="356" y="0" flags="0x4"/>
    </TTGlyph>
    <TTGlyph name="ecaron" xMin="946" yMin="-29" xMax="1876" yMax="2843">
      <component glyphName="e" x="0" y="0" flags="0x204"/>
      <component glyphName="caron" x="96" y="0" flags="0x4"/>
    </TTGlyph>
    <TTGlyph name="ecircumflex" xMin="897" yMin="-29" xMax="1876" yMax="2447">
      <component glyphName="e" x="0" y="0" flags="0x204"/>
      <component glyphName="circumflex" x="104" y="0" flags="0x4"/>
    </TTGlyph>
    <TTGlyph name="edieresis" xMin="946" yMin="-29" xMax="1876" yMax="2447">
      <component glyphName="e" x="0" y="0" flags="0x204"/>
      <component glyphName="dieresis" x="168" y="0" flags="0x4"/>
    </TTGlyph>
    <TTGlyph name="edotaccent" xMin="909" yMin="-29" xMax="1876" yMax="2011">
      <component glyphName="e" x="0" y="0" flags="0x204"/>
      <component glyphName="dotaccent" x="295" y="0" flags="0x4"/>
    </TTGlyph>
    <TTGlyph name="egrave" xMin="837" yMin="-29" xMax="1876" yMax="2435">
      <component glyphName="e" x="0" y="0" flags="0x204"/>
      <component glyphName="grave" x="119" y="0" flags="0x4"/>
    </TTGlyph>
    <TTGlyph name="eight" xMin="139" yMin="-16" xMax="1112" yMax="1544">
      <contour>
        <pt x="631" y="1544" on="1"/>
        <pt x="717" y="1544" on="0"/>
        <pt x="870" y="1482" on="0"/>
        <pt x="986" y="1374" on="0"/>
        <pt x="1053" y="1229" on="0"/>
        <pt x="1053" y="1147" on="1"/>
        <pt x="1053" y="1049" on="0"/>
        <pt x="961" y="883" on="0"/>
        <pt x="884" y="829" on="1"/>
        <pt x="935" y="799" on="0"/>
        <pt x="1019" y="716" on="0"/>
        <pt x="1079" y="617" on="0"/>
        <pt x="1112" y="503" on="0"/>
        <pt x="1112" y="442" on="1"/>
        <pt x="1112" y="347" on="0"/>
        <pt x="1035" y="181" on="0"/>
        <pt x="903" y="56" on="0"/>
        <pt x="727" y="-16" on="0"/>
        <pt x="627" y="-16" on="1"/>
        <pt x="526" y="-16" on="0"/>
        <pt x="348" y="56" on="0"/>
        <pt x="216" y="181" on="0"/>
        <pt x="139" y="347" on="0"/>
        <pt x="139" y="442" on="1"/>
        <pt x="139" y="503" on="0"/>
        <pt x="172" y="618" on="0"/>
        <pt x="233" y="717" on="0"/>
        <pt x="318" y="800" on="0"/>
        <pt x="370" y="830" on="1"/>
        <pt x="294" y="885" on="0"/>
        <pt x="205" y="1050" on="0"/>
        <pt x="205" y="1147" on="1"/>
        <pt x="205" y="1229" on="0"/>
        <pt x="271" y="1374" on="0"/>
        <pt x="386" y="1482" on="0"/>
        <pt x="542" y="1544" on="0"/>
      </contour>
      <contour>
        <pt x="322" y="446" on="1"/>
        <pt x="322" y="387" on="0"/>
        <pt x="370" y="282" on="0"/>
        <pt x="453" y="204" on="0"/>
        <pt x="564" y="158" on="0"/>
        <pt x="627" y="158" on="1"/>
        <pt x="689" y="158" on="0"/>
        <pt x="799" y="204" on="0"/>
        <pt x="882" y="282" on="0"/>
        <pt x="930" y="387" on="0"/>
        <pt x="930" y="446" on="1"/>
        <pt x="930" y="504" on="0"/>
        <pt x="882" y="608" on="0"/>
        <pt x="799" y="686" on="0"/>
        <pt x="689" y="731" on="0"/>
        <pt x="627" y="731" on="1"/>
        <pt x="564" y="731" on="0"/>
        <pt x="453" y="686" on="0"/>
        <pt x="370" y="608" on="0"/>
        <pt x="322" y="504" on="0"/>
      </contour>
      <contour>
        <pt x="377" y="1143" on="1"/>
        <pt x="377" y="1093" on="0"/>
        <pt x="415" y="1006" on="0"/>
        <pt x="483" y="941" on="0"/>
        <pt x="576" y="903" on="0"/>
        <pt x="631" y="903" on="1"/>
        <pt x="682" y="903" on="0"/>
        <pt x="772" y="941" on="0"/>
        <pt x="841" y="1006" on="0"/>
        <pt x="881" y="1093" on="0"/>
        <pt x="881" y="1143" on="1"/>
        <pt x="881" y="1192" on="0"/>
        <pt x="841" y="1279" on="0"/>
        <pt x="772" y="1344" on="0"/>
        <pt x="682" y="1382" on="0"/>
        <pt x="631" y="1382" on="1"/>
        <pt x="576" y="1382" on="0"/>
        <pt x="483" y="1344" on="0"/>
        <pt x="415" y="1279" on="0"/>
        <pt x="377" y="1192" on="0"/>
      </contour>
    </TTGlyph>
    <TTGlyph name="ellipsis" xMin="205" yMin="-25" xMax="1845" yMax="270">
      <contour>
        <pt x="205" y="123" on="1"/>
        <pt x="205" y="153" on="0"/>
        <pt x="228" y="206" on="0"/>
        <pt x="269" y="247" on="0"/>
        <pt x="322" y="270" on="0"/>
        <pt x="352" y="270" on="1"/>
        <pt x="383" y="270" on="0"/>
        <pt x="437" y="247" on="0"/>
        <pt x="478" y="206" on="0"/>
        <pt x="502" y="153" on="0"/>
        <pt x="502" y="123" on="1"/>
        <pt x="502" y="93" on="0"/>
        <pt x="478" y="39" on="0"/>
        <pt x="437" y="-1" on="0"/>
        <pt x="383" y="-25" on="0"/>
        <pt x="352" y="-25" on="1"/>
        <pt x="322" y="-25" on="0"/>
        <pt x="269" y="-1" on="0"/>
        <pt x="228" y="39" on="0"/>
        <pt x="205" y="93" on="0"/>
      </contour>
      <contour>
        <pt x="877" y="123" on="1"/>
        <pt x="877" y="153" on="0"/>
        <pt x="900" y="206" on="0"/>
        <pt x="941" y="247" on="0"/>
        <pt x="994" y="270" on="0"/>
        <pt x="1024" y="270" on="1"/>
        <pt x="1055" y="270" on="0"/>
        <pt x="1109" y="247" on="0"/>
        <pt x="1150" y="206" on="0"/>
        <pt x="1174" y="153" on="0"/>
        <pt x="1174" y="123" on="1"/>
        <pt x="1174" y="93" on="0"/>
        <pt x="1150" y="39" on="0"/>
        <pt x="1109" y="-1" on="0"/>
        <pt x="1055" y="-25" on="0"/>
        <pt x="1024" y="-25" on="1"/>
        <pt x="994" y="-25" on="0"/>
        <pt x="941" y="-1" on="0"/>
        <pt x="900" y="39" on="0"/>
        <pt x="877" y="93" on="0"/>
      </contour>
      <contour>
        <pt x="1548" y="123" on="1"/>
        <pt x="1548" y="153" on="0"/>
        <pt x="1572" y="206" on="0"/>
        <pt x="1612" y="247" on="0"/>
        <pt x="1666" y="270" on="0"/>
        <pt x="1696" y="270" on="1"/>
        <pt x="1727" y="270" on="0"/>
        <pt x="1781" y="247" on="0"/>
        <pt x="1821" y="206" on="0"/>
        <pt x="1845" y="153" on="0"/>
        <pt x="1845" y="123" on="1"/>
        <pt x="1845" y="93" on="0"/>
        <pt x="1821" y="39" on="0"/>
        <pt x="1781" y="-1" on="0"/>
        <pt x="1727" y="-25" on="0"/>
        <pt x="1696" y="-25" on="1"/>
        <pt x="1666" y="-25" on="0"/>
        <pt x="1612" y="-1" on="0"/>
        <pt x="1572" y="39" on="0"/>
        <pt x="1548" y="93" on="0"/>
      </contour>
    </TTGlyph>
    <TTGlyph name="emacron" xMin="850" yMin="-29" xMax="1876" yMax="2304">
      <component glyphName="e" x="0" y="0" flags="0x204"/>
      <component glyphName="macron" x="137" y="0" flags="0x4"/>
    </TTGlyph>
    <TTGlyph name="emdash" xMin="0" yMin="485" xMax="2048" yMax="647">
      <contour>
        <pt x="0" y="647" on="1"/>
        <pt x="2048" y="647" on="1"/>
        <pt x="2048" y="485" on="1"/>
        <pt x="0" y="485" on="1"/>
      </contour>
    </TTGlyph>
    <TTGlyph name="endash" xMin="0" yMin="485" xMax="1024" yMax="647">
      <contour>
        <pt x="0" y="647" on="1"/>
        <pt x="1024" y="647" on="1"/>
        <pt x="1024" y="485" on="1"/>
        <pt x="0" y="485" on="1"/>
      </contour>
    </TTGlyph>
    <TTGlyph name="eogonek" xMin="92" yMin="-471" xMax="1022" yMax="1063">
      <contour>
        <pt x="899" y="49" on="1"/>
        <pt x="877" y="37" on="0"/>
        <pt x="836" y="10" on="0"/>
        <pt x="815" y="-4" on="1"/>
        <pt x="776" y="-31" on="0"/>
        <pt x="713" y="-86" on="0"/>
        <pt x="670" y="-141" on="0"/>
        <pt x="645" y="-197" on="0"/>
        <pt x="645" y="-225" on="1"/>
        <pt x="645" y="-272" on="0"/>
        <pt x="713" y="-324" on="0"/>
        <pt x="774" y="-324" on="1"/>
        <pt x="815" y="-324" on="0"/>
        <pt x="874" y="-307" on="0"/>
        <pt x="897" y="-297" on="1"/>
        <pt x="940" y="-424" on="1"/>
        <pt x="913" y="-440" on="0"/>
        <pt x="809" y="-471" on="0"/>
        <pt x="743" y="-471" on="1"/>
        <pt x="623" y="-471" on="0"/>
        <pt x="471" y="-362" on="0"/>
        <pt x="471" y="-260" on="1"/>
        <pt x="471" y="-188" on="0"/>
        <pt x="541" y="-72" on="0"/>
        <pt x="594" y="-29" on="1"/>
        <pt x="578" y="-29" on="1"/>
        <pt x="473" y="-29" on="0"/>
        <pt x="295" y="41" on="0"/>
        <pt x="166" y="178" on="0"/>
        <pt x="92" y="385" on="0"/>
        <pt x="92" y="522" on="1"/>
        <pt x="92" y="633" on="0"/>
        <pt x="154" y="829" on="0"/>
        <pt x="276" y="977" on="0"/>
        <pt x="459" y="1063" on="0"/>
        <pt x="580" y="1063" on="1"/>
        <pt x="725" y="1063" on="0"/>
        <pt x="899" y="954" on="0"/>
        <pt x="993" y="788" on="0"/>
        <pt x="1022" y="588" on="0"/>
        <pt x="1022" y="494" on="1"/>
        <pt x="276" y="494" on="1"/>
        <pt x="276" y="408" on="0"/>
        <pt x="328" y="276" on="0"/>
        <pt x="416" y="188" on="0"/>
        <pt x="537" y="143" on="0"/>
        <pt x="604" y="143" on="1"/>
        <pt x="684" y="143" on="0"/>
        <pt x="838" y="188" on="0"/>
        <pt x="922" y="236" on="1"/>
        <pt x="997" y="109" on="1"/>
        <pt x="991" y="104" on="0"/>
        <pt x="979" y="96" on="0"/>
        <pt x="967" y="88" on="0"/>
        <pt x="954" y="80" on="0"/>
        <pt x="948" y="76" on="1"/>
        <pt x="936" y="68" on="0"/>
        <pt x="911" y="55" on="0"/>
        <pt x="899" y="49" on="1"/>
      </contour>
      <contour>
        <pt x="567" y="907" on="1"/>
        <pt x="502" y="907" on="0"/>
        <pt x="406" y="870" on="0"/>
        <pt x="338" y="801" on="0"/>
        <pt x="297" y="700" on="0"/>
        <pt x="287" y="639" on="1"/>
        <pt x="823" y="639" on="1"/>
        <pt x="819" y="696" on="0"/>
        <pt x="791" y="795" on="0"/>
        <pt x="729" y="866" on="0"/>
        <pt x="635" y="907" on="0"/>
        <pt x="567" y="907" on="1"/>
      </contour>
    </TTGlyph>
    <TTGlyph name="equal" xMin="86" yMin="305" xMax="836" yMax="784">
      <contour>
        <pt x="86" y="446" on="1"/>
        <pt x="836" y="446" on="1"/>
        <pt x="836" y="305" on="1"/>
        <pt x="86" y="305" on="1"/>
      </contour>
      <contour>
        <pt x="86" y="784" on="1"/>
        <pt x="836" y="784" on="1"/>
        <pt x="836" y="643" on="1"/>
        <pt x="86" y="643" on="1"/>
      </contour>
    </TTGlyph>
    <TTGlyph name="estimated" xMin="102" yMin="-31" xMax="1559" yMax="1300">
      <contour>
        <pt x="829" y="-31" on="1"/>
        <pt x="676" y="-31" on="0"/>
        <pt x="410" y="61" on="0"/>
        <pt x="215" y="233" on="0"/>
        <pt x="102" y="479" on="0"/>
        <pt x="102" y="633" on="1"/>
        <pt x="102" y="797" on="0"/>
        <pt x="223" y="1047" on="0"/>
        <pt x="422" y="1214" on="0"/>
        <pt x="684" y="1300" on="0"/>
        <pt x="825" y="1300" on="1"/>
        <pt x="993" y="1300" on="0"/>
        <pt x="1260" y="1202" on="0"/>
        <pt x="1448" y="1022" on="0"/>
        <pt x="1552" y="768" on="0"/>
        <pt x="1559" y="614" on="1"/>
        <pt x="399" y="614" on="1"/>
        <pt x="387" y="614" on="0"/>
        <pt x="371" y="604" on="0"/>
        <pt x="371" y="582" on="1"/>
        <pt x="371" y="244" on="1"/>
        <pt x="371" y="215" on="0"/>
        <pt x="436" y="139" on="0"/>
        <pt x="557" y="72" on="0"/>
        <pt x="725" y="23" on="0"/>
        <pt x="829" y="23" on="1"/>
        <pt x="975" y="23" on="0"/>
        <pt x="1219" y="139" on="0"/>
        <pt x="1292" y="231" on="1"/>
        <pt x="1425" y="231" on="1"/>
        <pt x="1294" y="90" on="0"/>
        <pt x="1006" y="-31" on="0"/>
        <pt x="829" y="-31" on="1"/>
      </contour>
      <contour>
        <pt x="825" y="1247" on="1"/>
        <pt x="739" y="1247" on="0"/>
        <pt x="575" y="1210" on="0"/>
        <pt x="449" y="1153" on="0"/>
        <pt x="371" y="1079" on="0"/>
        <pt x="371" y="1040" on="1"/>
        <pt x="371" y="700" on="1"/>
        <pt x="371" y="668" on="0"/>
        <pt x="401" y="668" on="1"/>
        <pt x="1253" y="668" on="1"/>
        <pt x="1276" y="668" on="0"/>
        <pt x="1288" y="684" on="0"/>
        <pt x="1288" y="700" on="1"/>
        <pt x="1288" y="1040" on="1"/>
        <pt x="1288" y="1079" on="0"/>
        <pt x="1202" y="1155" on="0"/>
        <pt x="1067" y="1212" on="0"/>
        <pt x="903" y="1247" on="0"/>
        <pt x="825" y="1247" on="1"/>
      </contour>
    </TTGlyph>
    <TTGlyph name="eth" xMin="94" yMin="-4" xMax="1151" yMax="1526">
      <contour>
        <pt x="666" y="1526" on="1"/>
        <pt x="755" y="1364" on="1"/>
        <pt x="925" y="1419" on="1"/>
        <pt x="978" y="1255" on="1"/>
        <pt x="840" y="1210" on="1"/>
        <pt x="1034" y="858" on="1"/>
        <pt x="1085" y="765" on="0"/>
        <pt x="1151" y="593" on="0"/>
        <pt x="1151" y="504" on="1"/>
        <pt x="1151" y="390" on="0"/>
        <pt x="1064" y="203" on="0"/>
        <pt x="918" y="70" on="0"/>
        <pt x="729" y="-4" on="0"/>
        <pt x="627" y="-4" on="1"/>
        <pt x="519" y="-4" on="0"/>
        <pt x="326" y="67" on="0"/>
        <pt x="180" y="204" on="0"/>
        <pt x="94" y="402" on="0"/>
        <pt x="94" y="529" on="1"/>
        <pt x="94" y="632" on="0"/>
        <pt x="174" y="806" on="0"/>
        <pt x="307" y="930" on="0"/>
        <pt x="479" y="1000" on="0"/>
        <pt x="571" y="1000" on="1"/>
        <pt x="610" y="1000" on="0"/>
        <pt x="708" y="992" on="0"/>
        <pt x="770" y="966" on="1"/>
        <pt x="658" y="1152" on="1"/>
        <pt x="509" y="1104" on="1"/>
        <pt x="457" y="1268" on="1"/>
        <pt x="566" y="1303" on="1"/>
        <pt x="432" y="1526" on="1"/>
      </contour>
      <contour>
        <pt x="649" y="836" on="1"/>
        <pt x="575" y="836" on="0"/>
        <pt x="442" y="793" on="0"/>
        <pt x="341" y="709" on="0"/>
        <pt x="281" y="584" on="0"/>
        <pt x="281" y="502" on="1"/>
        <pt x="281" y="428" on="0"/>
        <pt x="336" y="306" on="0"/>
        <pt x="430" y="218" on="0"/>
        <pt x="554" y="170" on="0"/>
        <pt x="623" y="170" on="1"/>
        <pt x="696" y="170" on="0"/>
        <pt x="821" y="215" on="0"/>
        <pt x="913" y="300" on="0"/>
        <pt x="965" y="424" on="0"/>
        <pt x="965" y="502" on="1"/>
        <pt x="965" y="579" on="0"/>
        <pt x="912" y="703" on="0"/>
        <pt x="823" y="790" on="0"/>
        <pt x="709" y="836" on="0"/>
      </contour>
    </TTGlyph>
    <TTGlyph name="exclam" xMin="211" yMin="-12" xMax="471" yMax="1577">
      <contour>
        <pt x="211" y="121" on="1"/>
        <pt x="211" y="147" on="0"/>
        <pt x="232" y="194" on="0"/>
        <pt x="267" y="229" on="0"/>
        <pt x="315" y="250" on="0"/>
        <pt x="342" y="250" on="1"/>
        <pt x="368" y="250" on="0"/>
        <pt x="415" y="229" on="0"/>
        <pt x="450" y="194" on="0"/>
        <pt x="471" y="147" on="0"/>
        <pt x="471" y="121" on="1"/>
        <pt x="471" y="94" on="0"/>
        <pt x="450" y="46" on="0"/>
        <pt x="415" y="9" on="0"/>
        <pt x="368" y="-12" on="0"/>
        <pt x="342" y="-12" on="1"/>
        <pt x="315" y="-12" on="0"/>
        <pt x="267" y="9" on="0"/>
        <pt x="232" y="46" on="0"/>
        <pt x="211" y="94" on="0"/>
      </contour>
      <contour>
        <pt x="211" y="1577" on="1"/>
        <pt x="471" y="1577" on="1"/>
        <pt x="430" y="410" on="1"/>
        <pt x="252" y="410" on="1"/>
      </contour>
    </TTGlyph>
    <TTGlyph name="exclamdown" xMin="211" yMin="-471" xMax="471" yMax="1139">
      <contour>
        <pt x="211" y="1010" on="1"/>
        <pt x="211" y="1036" on="0"/>
        <pt x="232" y="1083" on="0"/>
        <pt x="267" y="1118" on="0"/>
        <pt x="315" y="1139" on="0"/>
        <pt x="342" y="1139" on="1"/>
        <pt x="368" y="1139" on="0"/>
        <pt x="415" y="1118" on="0"/>
        <pt x="450" y="1083" on="0"/>
        <pt x="471" y="1036" on="0"/>
        <pt x="471" y="1010" on="1"/>
        <pt x="471" y="983" on="0"/>
        <pt x="450" y="935" on="0"/>
        <pt x="415" y="898" on="0"/>
        <pt x="368" y="877" on="0"/>
        <pt x="342" y="877" on="1"/>
        <pt x="315" y="877" on="0"/>
        <pt x="267" y="898" on="0"/>
        <pt x="232" y="935" on="0"/>
        <pt x="211" y="983" on="0"/>
      </contour>
      <contour>
        <pt x="252" y="696" on="1"/>
        <pt x="430" y="696" on="1"/>
        <pt x="471" y="-471" on="1"/>
        <pt x="211" y="-471" on="1"/>
      </contour>
    </TTGlyph>
    <TTGlyph name="f" xMin="85" yMin="0" xMax="868" yMax="1556">
      <contour>
        <pt x="442" y="1036" on="1"/>
        <pt x="682" y="1036" on="1"/>
        <pt x="682" y="885" on="1"/>
        <pt x="442" y="885" on="1"/>
        <pt x="442" y="172" on="1"/>
        <pt x="604" y="172" on="1"/>
        <pt x="604" y="0" on="1"/>
        <pt x="100" y="0" on="1"/>
        <pt x="100" y="172" on="1"/>
        <pt x="256" y="172" on="1"/>
        <pt x="256" y="885" on="1"/>
        <pt x="85" y="885" on="1"/>
        <pt x="85" y="1036" on="1"/>
        <pt x="256" y="1036" on="1"/>
        <pt x="256" y="1198" on="1"/>
        <pt x="258" y="1288" on="0"/>
        <pt x="306" y="1422" on="0"/>
        <pt x="394" y="1512" on="0"/>
        <pt x="518" y="1556" on="0"/>
        <pt x="594" y="1556" on="1"/>
        <pt x="647" y="1556" on="0"/>
        <pt x="731" y="1546" on="0"/>
        <pt x="797" y="1529" on="0"/>
        <pt x="848" y="1509" on="0"/>
        <pt x="868" y="1499" on="1"/>
        <pt x="811" y="1366" on="1"/>
        <pt x="779" y="1383" on="0"/>
        <pt x="676" y="1407" on="0"/>
        <pt x="620" y="1407" on="1"/>
        <pt x="537" y="1407" on="0"/>
        <pt x="442" y="1304" on="0"/>
        <pt x="442" y="1204" on="1"/>
      </contour>
    </TTGlyph>
    <TTGlyph name="fi" xMin="70" yMin="0" xMax="1315" yMax="1556">
      <contour>
        <pt x="70" y="1036" on="1"/>
        <pt x="240" y="1036" on="1"/>
        <pt x="240" y="1198" on="1"/>
        <pt x="240" y="1288" on="0"/>
        <pt x="289" y="1423" on="0"/>
        <pt x="377" y="1511" on="0"/>
        <pt x="502" y="1556" on="0"/>
        <pt x="578" y="1556" on="1"/>
        <pt x="684" y="1556" on="0"/>
        <pt x="811" y="1520" on="0"/>
        <pt x="852" y="1499" on="1"/>
        <pt x="795" y="1366" on="1"/>
        <pt x="762" y="1382" on="0"/>
        <pt x="659" y="1407" on="0"/>
        <pt x="604" y="1407" on="1"/>
        <pt x="520" y="1407" on="0"/>
        <pt x="426" y="1305" on="0"/>
        <pt x="426" y="1204" on="1"/>
        <pt x="426" y="1036" on="1"/>
        <pt x="666" y="1036" on="1"/>
        <pt x="666" y="885" on="1"/>
        <pt x="426" y="885" on="1"/>
        <pt x="426" y="172" on="1"/>
        <pt x="588" y="172" on="1"/>
        <pt x="588" y="0" on="1"/>
        <pt x="96" y="0" on="1"/>
        <pt x="96" y="172" on="1"/>
        <pt x="240" y="172" on="1"/>
        <pt x="240" y="885" on="1"/>
        <pt x="70" y="885" on="1"/>
      </contour>
      <contour>
        <pt x="821" y="1036" on="1"/>
        <pt x="1159" y="1036" on="1"/>
        <pt x="1159" y="172" on="1"/>
        <pt x="1315" y="172" on="1"/>
        <pt x="1315" y="0" on="1"/>
        <pt x="823" y="0" on="1"/>
        <pt x="823" y="172" on="1"/>
        <pt x="971" y="172" on="1"/>
        <pt x="971" y="864" on="1"/>
        <pt x="821" y="864" on="1"/>
      </contour>
      <contour>
        <pt x="936" y="1403" on="1"/>
        <pt x="936" y="1456" on="0"/>
        <pt x="1014" y="1532" on="0"/>
        <pt x="1067" y="1532" on="1"/>
        <pt x="1094" y="1532" on="0"/>
        <pt x="1141" y="1511" on="0"/>
        <pt x="1176" y="1477" on="0"/>
        <pt x="1196" y="1430" on="0"/>
        <pt x="1196" y="1403" on="1"/>
        <pt x="1196" y="1376" on="0"/>
        <pt x="1176" y="1327" on="0"/>
        <pt x="1141" y="1290" on="0"/>
        <pt x="1094" y="1270" on="0"/>
        <pt x="1067" y="1270" on="1"/>
        <pt x="1014" y="1270" on="0"/>
        <pt x="936" y="1350" on="0"/>
        <pt x="936" y="1403" on="1"/>
      </contour>
    </TTGlyph>
    <TTGlyph name="five" xMin="74" yMin="-31" xMax="1077" yMax="1516">
      <contour>
        <pt x="317" y="894" on="1"/>
        <pt x="373" y="932" on="0"/>
        <pt x="491" y="971" on="0"/>
        <pt x="567" y="971" on="1"/>
        <pt x="679" y="971" on="0"/>
        <pt x="867" y="891" on="0"/>
        <pt x="1002" y="755" on="0"/>
        <pt x="1077" y="574" on="0"/>
        <pt x="1077" y="473" on="1"/>
        <pt x="1077" y="371" on="0"/>
        <pt x="1003" y="188" on="0"/>
        <pt x="867" y="50" on="0"/>
        <pt x="676" y="-31" on="0"/>
        <pt x="559" y="-31" on="1"/>
        <pt x="470" y="-31" on="0"/>
        <pt x="316" y="16" on="0"/>
        <pt x="192" y="101" on="0"/>
        <pt x="101" y="219" on="0"/>
        <pt x="74" y="289" on="1"/>
        <pt x="238" y="371" on="1"/>
        <pt x="254" y="320" on="0"/>
        <pt x="316" y="233" on="0"/>
        <pt x="400" y="170" on="0"/>
        <pt x="502" y="135" on="0"/>
        <pt x="559" y="135" on="1"/>
        <pt x="631" y="135" on="0"/>
        <pt x="754" y="188" on="0"/>
        <pt x="845" y="280" on="0"/>
        <pt x="897" y="403" on="0"/>
        <pt x="897" y="473" on="1"/>
        <pt x="897" y="544" on="0"/>
        <pt x="845" y="665" on="0"/>
        <pt x="753" y="754" on="0"/>
        <pt x="630" y="805" on="0"/>
        <pt x="559" y="805" on="1"/>
        <pt x="479" y="805" on="0"/>
        <pt x="344" y="748" on="0"/>
        <pt x="299" y="700" on="1"/>
        <pt x="152" y="723" on="1"/>
        <pt x="152" y="1516" on="1"/>
        <pt x="1006" y="1516" on="1"/>
        <pt x="1006" y="1350" on="1"/>
        <pt x="317" y="1350" on="1"/>
      </contour>
    </TTGlyph>
    <TTGlyph name="fl" xMin="41" yMin="0" xMax="1135" yMax="1556">
      <contour>
        <pt x="426" y="1036" on="1"/>
        <pt x="666" y="1036" on="1"/>
        <pt x="666" y="885" on="1"/>
        <pt x="426" y="885" on="1"/>
        <pt x="426" y="172" on="1"/>
        <pt x="588" y="172" on="1"/>
        <pt x="588" y="0" on="1"/>
        <pt x="96" y="0" on="1"/>
        <pt x="96" y="172" on="1"/>
        <pt x="242" y="172" on="1"/>
        <pt x="242" y="885" on="1"/>
        <pt x="41" y="885" on="1"/>
        <pt x="41" y="1036" on="1"/>
        <pt x="242" y="1036" on="1"/>
        <pt x="242" y="1198" on="1"/>
        <pt x="242" y="1288" on="0"/>
        <pt x="289" y="1423" on="0"/>
        <pt x="377" y="1511" on="0"/>
        <pt x="502" y="1556" on="0"/>
        <pt x="578" y="1556" on="1"/>
        <pt x="649" y="1556" on="0"/>
        <pt x="754" y="1538" on="0"/>
        <pt x="793" y="1524" on="1"/>
        <pt x="793" y="1556" on="1"/>
        <pt x="979" y="1556" on="1"/>
        <pt x="979" y="172" on="1"/>
        <pt x="1135" y="172" on="1"/>
        <pt x="1135" y="0" on="1"/>
        <pt x="793" y="0" on="1"/>
        <pt x="793" y="1366" on="1"/>
        <pt x="760" y="1382" on="0"/>
        <pt x="657" y="1407" on="0"/>
        <pt x="604" y="1407" on="1"/>
        <pt x="520" y="1407" on="0"/>
        <pt x="426" y="1305" on="0"/>
        <pt x="426" y="1204" on="1"/>
      </contour>
    </TTGlyph>
    <TTGlyph name="florin" xMin="-258" yMin="-471" xMax="1114" yMax="1556">
      <contour>
        <pt x="223" y="1036" on="1"/>
        <pt x="422" y="1036" on="1"/>
        <pt x="451" y="1198" on="1"/>
        <pt x="467" y="1288" on="0"/>
        <pt x="539" y="1423" on="0"/>
        <pt x="643" y="1511" on="0"/>
        <pt x="774" y="1556" on="0"/>
        <pt x="850" y="1556" on="1"/>
        <pt x="956" y="1556" on="0"/>
        <pt x="1077" y="1520" on="0"/>
        <pt x="1114" y="1499" on="1"/>
        <pt x="1032" y="1366" on="1"/>
        <pt x="1004" y="1382" on="0"/>
        <pt x="905" y="1407" on="0"/>
        <pt x="850" y="1407" on="1"/>
        <pt x="766" y="1407" on="0"/>
        <pt x="653" y="1305" on="0"/>
        <pt x="635" y="1204" on="1"/>
        <pt x="606" y="1036" on="1"/>
        <pt x="848" y="1036" on="1"/>
        <pt x="821" y="885" on="1"/>
        <pt x="580" y="885" on="1"/>
        <pt x="406" y="-113" on="1"/>
        <pt x="389" y="-203" on="0"/>
        <pt x="319" y="-338" on="0"/>
        <pt x="215" y="-426" on="0"/>
        <pt x="82" y="-471" on="0"/>
        <pt x="6" y="-471" on="1"/>
        <pt x="-100" y="-471" on="0"/>
        <pt x="-221" y="-434" on="0"/>
        <pt x="-258" y="-414" on="1"/>
        <pt x="-176" y="-281" on="1"/>
        <pt x="-147" y="-297" on="0"/>
        <pt x="-49" y="-322" on="0"/>
        <pt x="6" y="-322" on="1"/>
        <pt x="90" y="-322" on="0"/>
        <pt x="203" y="-219" on="0"/>
        <pt x="221" y="-119" on="1"/>
        <pt x="395" y="885" on="1"/>
        <pt x="197" y="885" on="1"/>
      </contour>
    </TTGlyph>
    <TTGlyph name="four" xMin="90" yMin="0" xMax="1141" yMax="1516">
      <contour>
        <pt x="92" y="596" on="1"/>
        <pt x="631" y="1516" on="1"/>
        <pt x="844" y="1516" on="1"/>
        <pt x="331" y="610" on="1"/>
        <pt x="719" y="610" on="1"/>
        <pt x="719" y="860" on="1"/>
        <pt x="915" y="874" on="1"/>
        <pt x="915" y="610" on="1"/>
        <pt x="1141" y="610" on="1"/>
        <pt x="1141" y="438" on="1"/>
        <pt x="915" y="438" on="1"/>
        <pt x="915" y="172" on="1"/>
        <pt x="1065" y="172" on="1"/>
        <pt x="1065" y="0" on="1"/>
        <pt x="573" y="0" on="1"/>
        <pt x="573" y="172" on="1"/>
        <pt x="719" y="172" on="1"/>
        <pt x="719" y="438" on="1"/>
        <pt x="90" y="438" on="1"/>
      </contour>
    </TTGlyph>
    <TTGlyph name="four.fract" xMin="135" yMin="0" xMax="720" yMax="760">
      <contour>
        <pt x="135" y="303" on="1"/>
        <pt x="415" y="760" on="1"/>
        <pt x="563" y="760" on="1"/>
        <pt x="290" y="305" on="1"/>
        <pt x="473" y="305" on="1"/>
        <pt x="473" y="469" on="1"/>
        <pt x="608" y="469" on="1"/>
        <pt x="608" y="305" on="1"/>
        <pt x="720" y="305" on="1"/>
        <pt x="720" y="195" on="1"/>
        <pt x="608" y="195" on="1"/>
        <pt x="608" y="0" on="1"/>
        <pt x="473" y="0" on="1"/>
        <pt x="473" y="195" on="1"/>
        <pt x="137" y="195" on="1"/>
      </contour>
    </TTGlyph>
    <TTGlyph name="foursuperior" xMin="115" yMin="846" xMax="680" yMax="1604">
      <contour>
        <pt x="115" y="1137" on="1"/>
        <pt x="393" y="1604" on="1"/>
        <pt x="524" y="1604" on="1"/>
        <pt x="256" y="1141" on="1"/>
        <pt x="446" y="1141" on="1"/>
        <pt x="446" y="1278" on="1"/>
        <pt x="565" y="1284" on="1"/>
        <pt x="565" y="1141" on="1"/>
        <pt x="680" y="1141" on="1"/>
        <pt x="680" y="1040" on="1"/>
        <pt x="565" y="1040" on="1"/>
        <pt x="565" y="846" on="1"/>
        <pt x="446" y="846" on="1"/>
        <pt x="446" y="1040" on="1"/>
        <pt x="115" y="1040" on="1"/>
      </contour>
    </TTGlyph>
    <TTGlyph name="fraction" xMin="-43" yMin="-61" xMax="1432" yMax="1577">
      <contour>
        <pt x="1233" y="1577" on="1"/>
        <pt x="1432" y="1577" on="1"/>
        <pt x="156" y="-61" on="1"/>
        <pt x="-43" y="-61" on="1"/>
      </contour>
    </TTGlyph>
    <TTGlyph name="g" xMin="92" yMin="-457" xMax="1044" yMax="1061">
      <contour>
        <pt x="858" y="91" on="1"/>
        <pt x="807" y="37" on="0"/>
        <pt x="672" y="-23" on="0"/>
        <pt x="586" y="-23" on="1"/>
        <pt x="481" y="-23" on="0"/>
        <pt x="300" y="50" on="0"/>
        <pt x="167" y="191" on="0"/>
        <pt x="92" y="396" on="0"/>
        <pt x="92" y="528" on="1"/>
        <pt x="92" y="648" on="0"/>
        <pt x="164" y="845" on="0"/>
        <pt x="296" y="984" on="0"/>
        <pt x="482" y="1061" on="0"/>
        <pt x="596" y="1061" on="1"/>
        <pt x="674" y="1061" on="0"/>
        <pt x="799" y="1026" on="0"/>
        <pt x="858" y="983" on="1"/>
        <pt x="858" y="1036" on="1"/>
        <pt x="1044" y="1036" on="1"/>
        <pt x="1044" y="41" on="1"/>
        <pt x="1044" y="-205" on="0"/>
        <pt x="811" y="-457" on="0"/>
        <pt x="565" y="-457" on="1"/>
        <pt x="511" y="-457" on="0"/>
        <pt x="393" y="-441" on="0"/>
        <pt x="278" y="-406" on="0"/>
        <pt x="169" y="-352" on="0"/>
        <pt x="123" y="-313" on="1"/>
        <pt x="223" y="-162" on="1"/>
        <pt x="253" y="-188" on="0"/>
        <pt x="330" y="-232" on="0"/>
        <pt x="418" y="-263" on="0"/>
        <pt x="512" y="-281" on="0"/>
        <pt x="559" y="-281" on="1"/>
        <pt x="636" y="-281" on="0"/>
        <pt x="749" y="-249" on="0"/>
        <pt x="822" y="-168" on="0"/>
        <pt x="858" y="-30" on="0"/>
        <pt x="858" y="76" on="1"/>
      </contour>
      <contour>
        <pt x="610" y="139" on="1"/>
        <pt x="656" y="139" on="0"/>
        <pt x="732" y="157" on="0"/>
        <pt x="794" y="186" on="0"/>
        <pt x="841" y="224" on="0"/>
        <pt x="858" y="245" on="1"/>
        <pt x="858" y="812" on="1"/>
        <pt x="807" y="857" on="0"/>
        <pt x="674" y="897" on="0"/>
        <pt x="604" y="897" on="1"/>
        <pt x="538" y="897" on="0"/>
        <pt x="422" y="848" on="0"/>
        <pt x="335" y="754" on="0"/>
        <pt x="285" y="618" on="0"/>
        <pt x="285" y="530" on="1"/>
        <pt x="285" y="434" on="0"/>
        <pt x="333" y="288" on="0"/>
        <pt x="419" y="189" on="0"/>
        <pt x="539" y="139" on="0"/>
      </contour>
    </TTGlyph>
    <TTGlyph name="gbreve" xMin="92" yMin="-457" xMax="1649" yMax="2437">
      <component glyphName="g" x="0" y="0" flags="0x204"/>
      <component glyphName="breve" x="117" y="0" flags="0x4"/>
    </TTGlyph>
    <TTGlyph name="gcommaaccent" xMin="92" yMin="-457" xMax="1044" yMax="1558">
      <component glyphName="g" x="0" y="0" flags="0x204"/>
      <component glyphName="commaaccent" x="481" y="-3" flags="0x4"/>
    </TTGlyph>
    <TTGlyph name="germandbls" xMin="16" yMin="-14" xMax="1168" yMax="1556">
      <contour>
        <pt x="588" y="964" on="1"/>
        <pt x="666" y="964" on="1"/>
        <pt x="730" y="967" on="0"/>
        <pt x="789" y="1001" on="0"/>
        <pt x="833" y="1049" on="0"/>
        <pt x="857" y="1108" on="0"/>
        <pt x="857" y="1138" on="1"/>
        <pt x="857" y="1188" on="0"/>
        <pt x="821" y="1276" on="0"/>
        <pt x="756" y="1338" on="0"/>
        <pt x="665" y="1370" on="0"/>
        <pt x="610" y="1370" on="1"/>
        <pt x="562" y="1370" on="0"/>
        <pt x="482" y="1335" on="0"/>
        <pt x="427" y="1273" on="0"/>
        <pt x="397" y="1187" on="0"/>
        <pt x="397" y="1136" on="1"/>
        <pt x="397" y="0" on="1"/>
        <pt x="16" y="0" on="1"/>
        <pt x="16" y="172" on="1"/>
        <pt x="201" y="172" on="1"/>
        <pt x="201" y="1159" on="1"/>
        <pt x="201" y="1229" on="0"/>
        <pt x="256" y="1371" on="0"/>
        <pt x="360" y="1485" on="0"/>
        <pt x="512" y="1556" on="0"/>
        <pt x="612" y="1556" on="1"/>
        <pt x="705" y="1556" on="0"/>
        <pt x="865" y="1492" on="0"/>
        <pt x="982" y="1379" on="0"/>
        <pt x="1049" y="1226" on="0"/>
        <pt x="1049" y="1142" on="1"/>
        <pt x="1049" y="1096" on="0"/>
        <pt x="1031" y="1019" on="0"/>
        <pt x="1001" y="954" on="0"/>
        <pt x="963" y="903" on="0"/>
        <pt x="943" y="883" on="1"/>
        <pt x="994" y="850" on="0"/>
        <pt x="1077" y="762" on="0"/>
        <pt x="1135" y="665" on="0"/>
        <pt x="1168" y="542" on="0"/>
        <pt x="1168" y="474" on="1"/>
        <pt x="1168" y="373" on="0"/>
        <pt x="1089" y="190" on="0"/>
        <pt x="952" y="58" on="0"/>
        <pt x="769" y="-14" on="0"/>
        <pt x="666" y="-14" on="1"/>
        <pt x="627" y="-14" on="0"/>
        <pt x="588" y="-8" on="1"/>
        <pt x="588" y="180" on="1"/>
        <pt x="608" y="175" on="0"/>
        <pt x="646" y="170" on="0"/>
        <pt x="666" y="170" on="1"/>
        <pt x="731" y="170" on="0"/>
        <pt x="844" y="219" on="0"/>
        <pt x="928" y="305" on="0"/>
        <pt x="976" y="419" on="0"/>
        <pt x="976" y="474" on="1"/>
        <pt x="976" y="539" on="0"/>
        <pt x="926" y="654" on="0"/>
        <pt x="842" y="729" on="0"/>
        <pt x="730" y="778" on="0"/>
        <pt x="668" y="778" on="1"/>
        <pt x="588" y="778" on="1"/>
      </contour>
    </TTGlyph>
    <TTGlyph name="grave" xMin="100" yMin="1178" xMax="532" yMax="1477">
      <contour>
        <pt x="387" y="1178" on="1"/>
        <pt x="100" y="1460" on="1"/>
        <pt x="100" y="1477" on="1"/>
        <pt x="348" y="1477" on="1"/>
        <pt x="532" y="1178" on="1"/>
      </contour>
    </TTGlyph>
    <TTGlyph name="greater" xMin="164" yMin="184" xMax="1007" yMax="1184">
      <contour>
        <pt x="1007" y="605" on="1"/>
        <pt x="164" y="184" on="1"/>
        <pt x="164" y="369" on="1"/>
        <pt x="842" y="684" on="1"/>
        <pt x="164" y="999" on="1"/>
        <pt x="164" y="1184" on="1"/>
        <pt x="1007" y="761" on="1"/>
      </contour>
    </TTGlyph>
    <TTGlyph name="greaterequal" xMin="73" yMin="305" xMax="866" yMax="1214">
      <contour>
        <pt x="866" y="797" on="1"/>
        <pt x="75" y="485" on="1"/>
        <pt x="75" y="627" on="1"/>
        <pt x="694" y="854" on="1"/>
        <pt x="75" y="1071" on="1"/>
        <pt x="75" y="1214" on="1"/>
        <pt x="866" y="909" on="1"/>
      </contour>
      <contour>
        <pt x="73" y="446" on="1"/>
        <pt x="866" y="446" on="1"/>
        <pt x="866" y="305" on="1"/>
        <pt x="73" y="305" on="1"/>
      </contour>
    </TTGlyph>
    <TTGlyph name="guillemotleft" xMin="102" yMin="172" xMax="938" yMax="958">
      <contour>
        <pt x="514" y="172" on="1"/>
        <pt x="322" y="172" on="1"/>
        <pt x="102" y="565" on="1"/>
        <pt x="322" y="958" on="1"/>
        <pt x="514" y="958" on="1"/>
        <pt x="285" y="565" on="1"/>
      </contour>
      <contour>
        <pt x="938" y="172" on="1"/>
        <pt x="745" y="172" on="1"/>
        <pt x="526" y="565" on="1"/>
        <pt x="745" y="958" on="1"/>
        <pt x="938" y="958" on="1"/>
        <pt x="709" y="565" on="1"/>
      </contour>
    </TTGlyph>
    <TTGlyph name="guillemotright" xMin="102" yMin="172" xMax="938" yMax="958">
      <contour>
        <pt x="332" y="565" on="1"/>
        <pt x="102" y="958" on="1"/>
        <pt x="295" y="958" on="1"/>
        <pt x="514" y="565" on="1"/>
        <pt x="295" y="172" on="1"/>
        <pt x="102" y="172" on="1"/>
      </contour>
      <contour>
        <pt x="756" y="565" on="1"/>
        <pt x="526" y="958" on="1"/>
        <pt x="719" y="958" on="1"/>
        <pt x="938" y="565" on="1"/>
        <pt x="719" y="172" on="1"/>
        <pt x="526" y="172" on="1"/>
      </contour>
    </TTGlyph>
    <TTGlyph name="guilsinglleft" xMin="102" yMin="172" xMax="514" yMax="958">
      <contour>
        <pt x="514" y="172" on="1"/>
        <pt x="322" y="172" on="1"/>
        <pt x="102" y="565" on="1"/>
        <pt x="322" y="958" on="1"/>
        <pt x="514" y="958" on="1"/>
        <pt x="285" y="565" on="1"/>
      </contour>
    </TTGlyph>
    <TTGlyph name="guilsinglright" xMin="102" yMin="172" xMax="514" yMax="958">
      <contour>
        <pt x="332" y="565" on="1"/>
        <pt x="102" y="958" on="1"/>
        <pt x="295" y="958" on="1"/>
        <pt x="514" y="565" on="1"/>
        <pt x="295" y="172" on="1"/>
        <pt x="102" y="172" on="1"/>
      </contour>
    </TTGlyph>
    <TTGlyph name="h" xMin="100" yMin="0" xMax="1280" yMax="1556">
      <contour>
        <pt x="114" y="1556" on="1"/>
        <pt x="442" y="1556" on="1"/>
        <pt x="442" y="922" on="1"/>
        <pt x="448" y="922" on="1"/>
        <pt x="476" y="950" on="0"/>
        <pt x="549" y="999" on="0"/>
        <pt x="629" y="1035" on="0"/>
        <pt x="715" y="1055" on="0"/>
        <pt x="762" y="1055" on="1"/>
        <pt x="845" y="1055" on="0"/>
        <pt x="979" y="1009" on="0"/>
        <pt x="1073" y="915" on="0"/>
        <pt x="1124" y="768" on="0"/>
        <pt x="1124" y="668" on="1"/>
        <pt x="1124" y="172" on="1"/>
        <pt x="1280" y="172" on="1"/>
        <pt x="1280" y="0" on="1"/>
        <pt x="788" y="0" on="1"/>
        <pt x="788" y="172" on="1"/>
        <pt x="930" y="172" on="1"/>
        <pt x="930" y="645" on="1"/>
        <pt x="930" y="764" on="0"/>
        <pt x="809" y="887" on="0"/>
        <pt x="696" y="887" on="1"/>
        <pt x="632" y="887" on="0"/>
        <pt x="500" y="826" on="0"/>
        <pt x="442" y="780" on="1"/>
        <pt x="442" y="172" on="1"/>
        <pt x="592" y="172" on="1"/>
        <pt x="592" y="0" on="1"/>
        <pt x="100" y="0" on="1"/>
        <pt x="100" y="172" on="1"/>
        <pt x="256" y="172" on="1"/>
        <pt x="256" y="1384" on="1"/>
        <pt x="114" y="1384" on="1"/>
      </contour>
    </TTGlyph>
    <TTGlyph name="hungarumlaut" xMin="370" yMin="1178" xMax="1064" yMax="1478">
      <contour>
        <pt x="1064" y="1478" on="1"/>
        <pt x="831" y="1178" on="1"/>
        <pt x="679" y="1178" on="1"/>
        <pt x="887" y="1478" on="1"/>
      </contour>
      <contour>
        <pt x="743" y="1478" on="1"/>
        <pt x="521" y="1178" on="1"/>
        <pt x="370" y="1178" on="1"/>
        <pt x="565" y="1478" on="1"/>
      </contour>
    </TTGlyph>
    <TTGlyph name="hyphen" xMin="94" yMin="496" xMax="645" yMax="668">
      <contour>
        <pt x="94" y="496" on="1"/>
        <pt x="94" y="668" on="1"/>
        <pt x="645" y="668" on="1"/>
        <pt x="645" y="496" on="1"/>
      </contour>
    </TTGlyph>
    <TTGlyph name="i" xMin="92" yMin="0" xMax="586" yMax="1532">
      <contour>
        <pt x="92" y="1036" on="1"/>
        <pt x="430" y="1036" on="1"/>
        <pt x="430" y="172" on="1"/>
        <pt x="586" y="172" on="1"/>
        <pt x="586" y="0" on="1"/>
        <pt x="94" y="0" on="1"/>
        <pt x="94" y="172" on="1"/>
        <pt x="242" y="172" on="1"/>
        <pt x="242" y="864" on="1"/>
        <pt x="92" y="864" on="1"/>
      </contour>
      <contour>
        <pt x="207" y="1403" on="1"/>
        <pt x="207" y="1429" on="0"/>
        <pt x="228" y="1476" on="0"/>
        <pt x="263" y="1511" on="0"/>
        <pt x="311" y="1532" on="0"/>
        <pt x="338" y="1532" on="1"/>
        <pt x="364" y="1532" on="0"/>
        <pt x="411" y="1511" on="0"/>
        <pt x="446" y="1476" on="0"/>
        <pt x="467" y="1429" on="0"/>
        <pt x="467" y="1403" on="1"/>
        <pt x="467" y="1376" on="0"/>
        <pt x="446" y="1328" on="0"/>
        <pt x="411" y="1291" on="0"/>
        <pt x="364" y="1270" on="0"/>
        <pt x="338" y="1270" on="1"/>
        <pt x="311" y="1270" on="0"/>
        <pt x="263" y="1291" on="0"/>
        <pt x="228" y="1328" on="0"/>
        <pt x="207" y="1376" on="0"/>
      </contour>
    </TTGlyph>
    <TTGlyph name="iacute" xMin="92" yMin="0" xMax="3427" yMax="3393">
      <component glyphName="dotlessi" x="0" y="0" flags="0x204"/>
      <component glyphName="acute" x="95" y="0" flags="0x4"/>
    </TTGlyph>
    <TTGlyph name="icircumflex" xMin="62" yMin="0" xMax="586" yMax="1489">
      <component glyphName="dotlessi" x="0" y="0" flags="0x204"/>
      <component glyphName="circumflex.i" x="-190" y="0" flags="0x4"/>
    </TTGlyph>
    <TTGlyph name="idieresis" xMin="-11" yMin="0" xMax="586" yMax="1968">
      <component glyphName="dotlessi" x="0" y="0" flags="0x204"/>
      <component glyphName="dieresis.i" x="-116" y="0" flags="0x4"/>
    </TTGlyph>
    <TTGlyph name="igrave" xMin="92" yMin="0" xMax="1059" yMax="2914">
      <component glyphName="dotlessi" x="0" y="0" flags="0x204"/>
      <component glyphName="grave" x="-135" y="0" flags="0x4"/>
    </TTGlyph>
    <TTGlyph name="imacron" xMin="92" yMin="0" xMax="1488" yMax="2783">
      <component glyphName="dotlessi" x="0" y="0" flags="0x204"/>
      <component glyphName="macron" x="-90" y="0" flags="0x4"/>
    </TTGlyph>
    <TTGlyph name="infinity" xMin="123" yMin="373" xMax="1704" yMax="1214">
      <contour>
        <pt x="535" y="373" on="1"/>
        <pt x="446" y="373" on="0"/>
        <pt x="297" y="438" on="0"/>
        <pt x="186" y="553" on="0"/>
        <pt x="123" y="707" on="0"/>
        <pt x="123" y="793" on="1"/>
        <pt x="123" y="881" on="0"/>
        <pt x="186" y="1034" on="0"/>
        <pt x="297" y="1149" on="0"/>
        <pt x="446" y="1214" on="0"/>
        <pt x="535" y="1214" on="1"/>
        <pt x="666" y="1214" on="0"/>
        <pt x="852" y="1085" on="0"/>
        <pt x="918" y="973" on="1"/>
        <pt x="985" y="1081" on="0"/>
        <pt x="1174" y="1214" on="0"/>
        <pt x="1296" y="1214" on="1"/>
        <pt x="1382" y="1214" on="0"/>
        <pt x="1532" y="1147" on="0"/>
        <pt x="1640" y="1032" on="0"/>
        <pt x="1704" y="879" on="0"/>
        <pt x="1704" y="793" on="1"/>
        <pt x="1704" y="707" on="0"/>
        <pt x="1640" y="553" on="0"/>
        <pt x="1532" y="440" on="0"/>
        <pt x="1382" y="373" on="0"/>
        <pt x="1296" y="373" on="1"/>
        <pt x="1165" y="373" on="0"/>
        <pt x="977" y="506" on="0"/>
        <pt x="911" y="623" on="1"/>
        <pt x="846" y="512" on="0"/>
        <pt x="664" y="373" on="0"/>
        <pt x="535" y="373" on="1"/>
      </contour>
      <contour>
        <pt x="1286" y="1053" on="1"/>
        <pt x="1178" y="1053" on="0"/>
        <pt x="1030" y="909" on="0"/>
        <pt x="993" y="803" on="1"/>
        <pt x="993" y="797" on="0"/>
        <pt x="997" y="793" on="1"/>
        <pt x="1034" y="680" on="0"/>
        <pt x="1180" y="535" on="0"/>
        <pt x="1286" y="535" on="1"/>
        <pt x="1337" y="535" on="0"/>
        <pt x="1430" y="575" on="0"/>
        <pt x="1499" y="647" on="0"/>
        <pt x="1538" y="739" on="0"/>
        <pt x="1538" y="793" on="1"/>
        <pt x="1538" y="848" on="0"/>
        <pt x="1499" y="942" on="0"/>
        <pt x="1430" y="1014" on="0"/>
        <pt x="1337" y="1053" on="0"/>
        <pt x="1286" y="1053" on="1"/>
      </contour>
      <contour>
        <pt x="537" y="535" on="1"/>
        <pt x="647" y="535" on="0"/>
        <pt x="791" y="682" on="0"/>
        <pt x="829" y="793" on="1"/>
        <pt x="834" y="807" on="1"/>
        <pt x="817" y="856" on="0"/>
        <pt x="758" y="944" on="0"/>
        <pt x="682" y="1012" on="0"/>
        <pt x="588" y="1053" on="0"/>
        <pt x="537" y="1053" on="1"/>
        <pt x="483" y="1053" on="0"/>
        <pt x="393" y="1014" on="0"/>
        <pt x="326" y="942" on="0"/>
        <pt x="287" y="848" on="0"/>
        <pt x="287" y="793" on="1"/>
        <pt x="287" y="739" on="0"/>
        <pt x="326" y="647" on="0"/>
        <pt x="393" y="575" on="0"/>
        <pt x="483" y="535" on="0"/>
        <pt x="537" y="535" on="1"/>
      </contour>
    </TTGlyph>
    <TTGlyph name="integral" xMin="-184" yMin="-471" xMax="852" yMax="1577">
      <contour>
        <pt x="426" y="-113" on="1"/>
        <pt x="426" y="-203" on="0"/>
        <pt x="379" y="-338" on="0"/>
        <pt x="291" y="-426" on="0"/>
        <pt x="166" y="-471" on="0"/>
        <pt x="90" y="-471" on="1"/>
        <pt x="-16" y="-471" on="0"/>
        <pt x="-143" y="-434" on="0"/>
        <pt x="-184" y="-414" on="1"/>
        <pt x="-127" y="-281" on="1"/>
        <pt x="-94" y="-297" on="0"/>
        <pt x="8" y="-322" on="0"/>
        <pt x="63" y="-322" on="1"/>
        <pt x="147" y="-322" on="0"/>
        <pt x="242" y="-219" on="0"/>
        <pt x="242" y="-119" on="1"/>
        <pt x="242" y="1219" on="1"/>
        <pt x="242" y="1309" on="0"/>
        <pt x="289" y="1444" on="0"/>
        <pt x="377" y="1532" on="0"/>
        <pt x="502" y="1577" on="0"/>
        <pt x="578" y="1577" on="1"/>
        <pt x="684" y="1577" on="0"/>
        <pt x="811" y="1540" on="0"/>
        <pt x="852" y="1520" on="1"/>
        <pt x="795" y="1386" on="1"/>
        <pt x="762" y="1403" on="0"/>
        <pt x="659" y="1427" on="0"/>
        <pt x="604" y="1427" on="1"/>
        <pt x="520" y="1427" on="0"/>
        <pt x="426" y="1325" on="0"/>
        <pt x="426" y="1225" on="1"/>
      </contour>
    </TTGlyph>
    <TTGlyph name="iogonek" xMin="59" yMin="-471" xMax="553" yMax="1036">
      <contour>
        <pt x="59" y="1036" on="1"/>
        <pt x="397" y="1036" on="1"/>
        <pt x="397" y="172" on="1"/>
        <pt x="553" y="172" on="1"/>
        <pt x="553" y="0" on="1"/>
        <pt x="481" y="0" on="1"/>
        <pt x="442" y="-2" on="0"/>
        <pt x="358" y="-31" on="0"/>
        <pt x="291" y="-82" on="0"/>
        <pt x="246" y="-160" on="0"/>
        <pt x="246" y="-211" on="1"/>
        <pt x="246" y="-264" on="0"/>
        <pt x="307" y="-324" on="0"/>
        <pt x="358" y="-324" on="1"/>
        <pt x="397" y="-324" on="0"/>
        <pt x="467" y="-311" on="0"/>
        <pt x="487" y="-301" on="1"/>
        <pt x="530" y="-428" on="1"/>
        <pt x="504" y="-444" on="0"/>
        <pt x="410" y="-471" on="0"/>
        <pt x="352" y="-471" on="1"/>
        <pt x="229" y="-471" on="0"/>
        <pt x="72" y="-362" on="0"/>
        <pt x="72" y="-260" on="1"/>
        <pt x="72" y="-170" on="0"/>
        <pt x="158" y="-43" on="0"/>
        <pt x="219" y="0" on="1"/>
        <pt x="61" y="0" on="1"/>
        <pt x="61" y="172" on="1"/>
        <pt x="209" y="172" on="1"/>
        <pt x="209" y="864" on="1"/>
        <pt x="59" y="864" on="1"/>
      </contour>
    </TTGlyph>
    <TTGlyph name="j" xMin="61" yMin="-471" xMax="444" yMax="1520">
      <contour>
        <pt x="84" y="1036" on="1"/>
        <pt x="420" y="1036" on="1"/>
        <pt x="420" y="-80" on="1"/>
        <pt x="420" y="-169" on="0"/>
        <pt x="374" y="-312" on="0"/>
        <pt x="287" y="-413" on="0"/>
        <pt x="161" y="-469" on="0"/>
        <pt x="80" y="-471" on="1"/>
        <pt x="61" y="-332" on="1"/>
        <pt x="150" y="-319" on="0"/>
        <pt x="231" y="-176" on="0"/>
        <pt x="231" y="-59" on="1"/>
        <pt x="231" y="864" on="1"/>
        <pt x="84" y="864" on="1"/>
      </contour>
      <contour>
        <pt x="207" y="1403" on="1"/>
        <pt x="207" y="1427" on="0"/>
        <pt x="226" y="1469" on="0"/>
        <pt x="258" y="1501" on="0"/>
        <pt x="301" y="1520" on="0"/>
        <pt x="326" y="1520" on="1"/>
        <pt x="350" y="1520" on="0"/>
        <pt x="393" y="1501" on="0"/>
        <pt x="425" y="1469" on="0"/>
        <pt x="444" y="1427" on="0"/>
        <pt x="444" y="1403" on="1"/>
        <pt x="444" y="1378" on="0"/>
        <pt x="425" y="1334" on="0"/>
        <pt x="393" y="1301" on="0"/>
        <pt x="350" y="1282" on="0"/>
        <pt x="326" y="1282" on="1"/>
        <pt x="301" y="1282" on="0"/>
        <pt x="258" y="1301" on="0"/>
        <pt x="226" y="1334" on="0"/>
        <pt x="207" y="1378" on="0"/>
      </contour>
    </TTGlyph>
    <TTGlyph name="k" xMin="92" yMin="0" xMax="1235" yMax="1556">
      <contour>
        <pt x="92" y="1556" on="1"/>
        <pt x="457" y="1556" on="1"/>
        <pt x="457" y="1384" on="1"/>
        <pt x="455" y="1384" on="1"/>
        <pt x="455" y="610" on="1"/>
        <pt x="635" y="610" on="1"/>
        <pt x="881" y="864" on="1"/>
        <pt x="819" y="864" on="1"/>
        <pt x="819" y="1036" on="1"/>
        <pt x="1212" y="1036" on="1"/>
        <pt x="1212" y="864" on="1"/>
        <pt x="1081" y="864" on="1"/>
        <pt x="766" y="539" on="1"/>
        <pt x="1110" y="172" on="1"/>
        <pt x="1235" y="172" on="1"/>
        <pt x="1235" y="0" on="1"/>
        <pt x="1016" y="0" on="1"/>
        <pt x="592" y="463" on="1"/>
        <pt x="455" y="463" on="1"/>
        <pt x="455" y="172" on="1"/>
        <pt x="541" y="172" on="1"/>
        <pt x="541" y="0" on="1"/>
        <pt x="98" y="0" on="1"/>
        <pt x="98" y="172" on="1"/>
        <pt x="268" y="172" on="1"/>
        <pt x="268" y="1384" on="1"/>
        <pt x="92" y="1384" on="1"/>
      </contour>
    </TTGlyph>
    <TTGlyph name="kcommaaccent" xMin="92" yMin="-473" xMax="2052" yMax="1556">
      <component glyphName="k" x="0" y="0" flags="0x204"/>
      <component glyphName="commabelow" x="455" y="0" flags="0x4"/>
    </TTGlyph>
    <TTGlyph name="l" xMin="92" yMin="0" xMax="584" yMax="1556">
      <contour>
        <pt x="92" y="1556" on="1"/>
        <pt x="428" y="1556" on="1"/>
        <pt x="428" y="172" on="1"/>
        <pt x="584" y="172" on="1"/>
        <pt x="584" y="0" on="1"/>
        <pt x="92" y="0" on="1"/>
        <pt x="92" y="172" on="1"/>
        <pt x="242" y="172" on="1"/>
        <pt x="242" y="1384" on="1"/>
        <pt x="92" y="1384" on="1"/>
      </contour>
    </TTGlyph>
    <TTGlyph name="lacute" xMin="92" yMin="0" xMax="3779" yMax="4232">
      <component glyphName="l" x="0" y="0" flags="0x204"/>
      <component glyphName="acute" x="125" y="442" flags="0x4"/>
    </TTGlyph>
    <TTGlyph name="lcaron" xMin="92" yMin="0" xMax="2802" yMax="1556">
      <component glyphName="l" x="0" y="0" flags="0x4"/>
      <component glyphName="quotesingle" x="528" y="0" flags="0x4"/>
    </TTGlyph>
    <TTGlyph name="lcommaaccent" xMin="92" yMin="-473" xMax="2667" yMax="1556">
      <component glyphName="l" x="0" y="0" flags="0x204"/>
      <component glyphName="commabelow" x="150" y="0" flags="0x4"/>
    </TTGlyph>
    <TTGlyph name="less" xMin="10" yMin="184" xMax="853" yMax="1184">
      <contour>
        <pt x="10" y="761" on="1"/>
        <pt x="853" y="1184" on="1"/>
        <pt x="853" y="999" on="1"/>
        <pt x="175" y="684" on="1"/>
        <pt x="853" y="369" on="1"/>
        <pt x="853" y="184" on="1"/>
        <pt x="10" y="605" on="1"/>
      </contour>
    </TTGlyph>
    <TTGlyph name="lessequal" xMin="30" yMin="305" xMax="821" yMax="1214">
      <contour>
        <pt x="30" y="909" on="1"/>
        <pt x="821" y="1214" on="1"/>
        <pt x="821" y="1071" on="1"/>
        <pt x="200" y="854" on="1"/>
        <pt x="821" y="627" on="1"/>
        <pt x="821" y="485" on="1"/>
        <pt x="30" y="797" on="1"/>
      </contour>
      <contour>
        <pt x="30" y="446" on="1"/>
        <pt x="780" y="446" on="1"/>
        <pt x="780" y="305" on="1"/>
        <pt x="30" y="305" on="1"/>
      </contour>
    </TTGlyph>
    <TTGlyph name="logicalnot" xMin="49" yMin="432" xMax="1143" yMax="999">
      <contour>
        <pt x="1143" y="999" on="1"/>
        <pt x="1143" y="432" on="1"/>
        <pt x="961" y="432" on="1"/>
        <pt x="961" y="815" on="1"/>
        <pt x="49" y="815" on="1"/>
        <pt x="49" y="999" on="1"/>
      </contour>
    </TTGlyph>
    <TTGlyph name="lozenge" xMin="102" yMin="0" xMax="1079" yMax="1563">
      <contour>
        <pt x="102" y="793" on="1"/>
        <pt x="541" y="1563" on="1"/>
        <pt x="641" y="1563" on="1"/>
        <pt x="1079" y="791" on="1"/>
        <pt x="631" y="0" on="1"/>
        <pt x="537" y="0" on="1"/>
      </contour>
      <contour>
        <pt x="584" y="240" on="1"/>
        <pt x="889" y="786" on="1"/>
        <pt x="584" y="1327" on="1"/>
        <pt x="291" y="791" on="1"/>
      </contour>
    </TTGlyph>
    <TTGlyph name="lslash" xMin="92" yMin="0" xMax="590" yMax="1556">
      <contour>
        <pt x="92" y="1556" on="1"/>
        <pt x="428" y="1556" on="1"/>
        <pt x="428" y="1325" on="1"/>
        <pt x="428" y="1171" on="1"/>
        <pt x="428" y="942" on="1"/>
        <pt x="590" y="1092" on="1"/>
        <pt x="590" y="844" on="1"/>
        <pt x="428" y="694" on="1"/>
        <pt x="428" y="172" on="1"/>
        <pt x="584" y="172" on="1"/>
        <pt x="584" y="0" on="1"/>
        <pt x="92" y="0" on="1"/>
        <pt x="92" y="172" on="1"/>
        <pt x="242" y="172" on="1"/>
        <pt x="242" y="520" on="1"/>
        <pt x="94" y="385" on="1"/>
        <pt x="94" y="633" on="1"/>
        <pt x="242" y="768" on="1"/>
        <pt x="242" y="1384" on="1"/>
        <pt x="92" y="1384" on="1"/>
      </contour>
    </TTGlyph>
    <TTGlyph name="m" xMin="100" yMin="0" xMax="1950" yMax="1055">
      <contour>
        <pt x="100" y="1036" on="1"/>
        <pt x="430" y="1036" on="1"/>
        <pt x="430" y="915" on="1"/>
        <pt x="432" y="915" on="1"/>
        <pt x="466" y="944" on="0"/>
        <pt x="541" y="995" on="0"/>
        <pt x="623" y="1033" on="0"/>
        <pt x="712" y="1055" on="0"/>
        <pt x="760" y="1055" on="1"/>
        <pt x="872" y="1055" on="0"/>
        <pt x="1034" y="972" on="0"/>
        <pt x="1078" y="884" on="1"/>
        <pt x="1116" y="918" on="0"/>
        <pt x="1200" y="981" on="0"/>
        <pt x="1291" y="1027" on="0"/>
        <pt x="1391" y="1055" on="0"/>
        <pt x="1445" y="1055" on="1"/>
        <pt x="1529" y="1055" on="0"/>
        <pt x="1663" y="1009" on="0"/>
        <pt x="1757" y="915" on="0"/>
        <pt x="1806" y="768" on="0"/>
        <pt x="1806" y="668" on="1"/>
        <pt x="1806" y="172" on="1"/>
        <pt x="1950" y="172" on="1"/>
        <pt x="1950" y="0" on="1"/>
        <pt x="1466" y="0" on="1"/>
        <pt x="1466" y="172" on="1"/>
        <pt x="1612" y="172" on="1"/>
        <pt x="1612" y="645" on="1"/>
        <pt x="1612" y="764" on="0"/>
        <pt x="1492" y="887" on="0"/>
        <pt x="1379" y="887" on="1"/>
        <pt x="1312" y="887" on="0"/>
        <pt x="1172" y="823" on="0"/>
        <pt x="1122" y="774" on="1"/>
        <pt x="1122" y="172" on="1"/>
        <pt x="1265" y="172" on="1"/>
        <pt x="1265" y="0" on="1"/>
        <pt x="782" y="0" on="1"/>
        <pt x="782" y="172" on="1"/>
        <pt x="928" y="172" on="1"/>
        <pt x="928" y="645" on="1"/>
        <pt x="928" y="764" on="0"/>
        <pt x="807" y="887" on="0"/>
        <pt x="694" y="887" on="1"/>
        <pt x="629" y="887" on="0"/>
        <pt x="497" y="825" on="0"/>
        <pt x="438" y="779" on="1"/>
        <pt x="438" y="172" on="1"/>
        <pt x="584" y="172" on="1"/>
        <pt x="584" y="0" on="1"/>
        <pt x="100" y="0" on="1"/>
        <pt x="100" y="172" on="1"/>
        <pt x="244" y="172" on="1"/>
        <pt x="244" y="864" on="1"/>
        <pt x="100" y="864" on="1"/>
      </contour>
    </TTGlyph>
    <TTGlyph name="macron" xMin="39" yMin="1229" xMax="797" yMax="1346">
      <contour>
        <pt x="797" y="1229" on="1"/>
        <pt x="39" y="1229" on="1"/>
        <pt x="39" y="1346" on="1"/>
        <pt x="797" y="1346" on="1"/>
      </contour>
    </TTGlyph>
    <TTGlyph name="macron#1" xMin="39" yMin="1229" xMax="797" yMax="1346">
      <component glyphName="macron" x="0" y="0" flags="0x204"/>
    </TTGlyph>
    <TTGlyph name="minus" xMin="51" yMin="485" xMax="1075" yMax="647">
      <contour>
        <pt x="51" y="647" on="1"/>
        <pt x="1075" y="647" on="1"/>
        <pt x="1075" y="485" on="1"/>
        <pt x="51" y="485" on="1"/>
      </contour>
    </TTGlyph>
    <TTGlyph name="mu" xMin="158" yMin="-471" xMax="1133" yMax="1036">
      <contour>
        <pt x="1018" y="172" on="1"/>
        <pt x="1133" y="172" on="1"/>
        <pt x="1133" y="0" on="1"/>
        <pt x="831" y="0" on="1"/>
        <pt x="831" y="96" on="1"/>
        <pt x="761" y="42" on="0"/>
        <pt x="596" y="-18" on="0"/>
        <pt x="502" y="-18" on="1"/>
        <pt x="417" y="-18" on="0"/>
        <pt x="354" y="7" on="1"/>
        <pt x="354" y="-471" on="1"/>
        <pt x="158" y="-471" on="1"/>
        <pt x="158" y="1036" on="1"/>
        <pt x="354" y="1036" on="1"/>
        <pt x="354" y="391" on="1"/>
        <pt x="354" y="272" on="0"/>
        <pt x="464" y="150" on="0"/>
        <pt x="567" y="150" on="1"/>
        <pt x="628" y="150" on="0"/>
        <pt x="763" y="194" on="0"/>
        <pt x="823" y="233" on="1"/>
        <pt x="823" y="1036" on="1"/>
        <pt x="1018" y="1036" on="1"/>
      </contour>
    </TTGlyph>
    <TTGlyph name="multiply" xMin="133" yMin="96" xMax="1155" yMax="1247">
      <contour>
        <pt x="525" y="676" on="1"/>
        <pt x="152" y="1124" on="1"/>
        <pt x="297" y="1247" on="1"/>
        <pt x="650" y="825" on="1"/>
        <pt x="991" y="1233" on="1"/>
        <pt x="1151" y="1118" on="1"/>
        <pt x="778" y="671" on="1"/>
        <pt x="1155" y="221" on="1"/>
        <pt x="1004" y="102" on="1"/>
        <pt x="654" y="522" on="1"/>
        <pt x="299" y="96" on="1"/>
        <pt x="133" y="207" on="1"/>
      </contour>
    </TTGlyph>
    <TTGlyph name="n" xMin="100" yMin="0" xMax="1266" yMax="1055">
      <contour>
        <pt x="782" y="172" on="1"/>
        <pt x="928" y="172" on="1"/>
        <pt x="928" y="645" on="1"/>
        <pt x="928" y="764" on="0"/>
        <pt x="807" y="887" on="0"/>
        <pt x="694" y="887" on="1"/>
        <pt x="629" y="887" on="0"/>
        <pt x="497" y="825" on="0"/>
        <pt x="438" y="779" on="1"/>
        <pt x="438" y="172" on="1"/>
        <pt x="584" y="172" on="1"/>
        <pt x="584" y="0" on="1"/>
        <pt x="100" y="0" on="1"/>
        <pt x="100" y="172" on="1"/>
        <pt x="244" y="172" on="1"/>
        <pt x="244" y="864" on="1"/>
        <pt x="100" y="864" on="1"/>
        <pt x="100" y="1036" on="1"/>
        <pt x="430" y="1036" on="1"/>
        <pt x="430" y="914" on="1"/>
        <pt x="432" y="914" on="1"/>
        <pt x="465" y="943" on="0"/>
        <pt x="540" y="995" on="0"/>
        <pt x="622" y="1033" on="0"/>
        <pt x="711" y="1055" on="0"/>
        <pt x="760" y="1055" on="1"/>
        <pt x="843" y="1055" on="0"/>
        <pt x="977" y="1009" on="0"/>
        <pt x="1071" y="915" on="0"/>
        <pt x="1122" y="768" on="0"/>
        <pt x="1122" y="668" on="1"/>
        <pt x="1122" y="172" on="1"/>
        <pt x="1266" y="172" on="1"/>
        <pt x="1266" y="0" on="1"/>
        <pt x="782" y="0" on="1"/>
      </contour>
    </TTGlyph>
    <TTGlyph name="nacute" xMin="100" yMin="0" xMax="4842" yMax="4711">
      <component glyphName="n" x="0" y="0" flags="0x204"/>
      <component glyphName="acute" x="461" y="0" flags="0x4"/>
    </TTGlyph>
    <TTGlyph name="napostrophe" xMin="100" yMin="0" xMax="1266" yMax="1553">
      <component glyphName="n" x="0" y="0" flags="0x204"/>
      <component glyphName="apostrophe" x="219" y="33" flags="0x4"/>
    </TTGlyph>
    <TTGlyph name="ncaron" xMin="100" yMin="0" xMax="2233" yMax="3322">
      <component glyphName="n" x="0" y="0" flags="0x204"/>
      <component glyphName="caron" x="201" y="0" flags="0x4"/>
    </TTGlyph>
    <TTGlyph name="ncommaaccent" xMin="100" yMin="-473" xMax="3796" yMax="1055">
      <component glyphName="n" x="0" y="0" flags="0x204"/>
      <component glyphName="commabelow" x="500" y="0" flags="0x4"/>
    </TTGlyph>
    <TTGlyph name="nine" xMin="103" yMin="0" xMax="1160" yMax="1541">
      <contour>
        <pt x="430" y="0" on="1"/>
        <pt x="779" y="572" on="1"/>
        <pt x="729" y="552" on="0"/>
        <pt x="647" y="538" on="0"/>
        <pt x="600" y="538" on="1"/>
        <pt x="512" y="538" on="0"/>
        <pt x="323" y="607" on="0"/>
        <pt x="190" y="732" on="0"/>
        <pt x="103" y="915" on="0"/>
        <pt x="103" y="1009" on="1"/>
        <pt x="103" y="1136" on="0"/>
        <pt x="189" y="1334" on="0"/>
        <pt x="335" y="1470" on="0"/>
        <pt x="528" y="1541" on="0"/>
        <pt x="636" y="1541" on="1"/>
        <pt x="744" y="1541" on="0"/>
        <pt x="931" y="1469" on="0"/>
        <pt x="1077" y="1334" on="0"/>
        <pt x="1160" y="1147" on="0"/>
        <pt x="1160" y="1033" on="1"/>
        <pt x="1160" y="945" on="0"/>
        <pt x="1093" y="773" on="0"/>
        <pt x="1043" y="679" on="1"/>
        <pt x="663" y="0" on="1"/>
      </contour>
      <contour>
        <pt x="631" y="1367" on="1"/>
        <pt x="563" y="1367" on="0"/>
        <pt x="439" y="1319" on="0"/>
        <pt x="345" y="1231" on="0"/>
        <pt x="289" y="1109" on="0"/>
        <pt x="289" y="1035" on="1"/>
        <pt x="289" y="953" on="0"/>
        <pt x="349" y="828" on="0"/>
        <pt x="450" y="744" on="0"/>
        <pt x="575" y="702" on="0"/>
        <pt x="638" y="702" on="1"/>
        <pt x="730" y="702" on="0"/>
        <pt x="831" y="747" on="0"/>
        <pt x="921" y="828" on="0"/>
        <pt x="973" y="953" on="0"/>
        <pt x="973" y="1035" on="1"/>
        <pt x="973" y="1113" on="0"/>
        <pt x="921" y="1237" on="0"/>
        <pt x="829" y="1322" on="0"/>
        <pt x="704" y="1367" on="0"/>
      </contour>
    </TTGlyph>
    <TTGlyph name="notequal" xMin="86" yMin="59" xMax="836" yMax="1049">
      <contour>
        <pt x="86" y="784" on="1"/>
        <pt x="463" y="784" on="1"/>
        <pt x="561" y="1049" on="1"/>
        <pt x="709" y="1049" on="1"/>
        <pt x="610" y="784" on="1"/>
        <pt x="836" y="784" on="1"/>
        <pt x="836" y="643" on="1"/>
        <pt x="557" y="643" on="1"/>
        <pt x="483" y="446" on="1"/>
        <pt x="836" y="446" on="1"/>
        <pt x="836" y="305" on="1"/>
        <pt x="430" y="305" on="1"/>
        <pt x="330" y="59" on="1"/>
        <pt x="182" y="59" on="1"/>
        <pt x="283" y="305" on="1"/>
        <pt x="86" y="305" on="1"/>
        <pt x="86" y="446" on="1"/>
        <pt x="336" y="446" on="1"/>
        <pt x="410" y="643" on="1"/>
        <pt x="86" y="643" on="1"/>
      </contour>
    </TTGlyph>
    <TTGlyph name="ntilde" xMin="100" yMin="0" xMax="1825" yMax="2373">
      <component glyphName="n" x="0" y="0" flags="0x204"/>
      <component glyphName="tilde" x="242" y="0" flags="0x4"/>
    </TTGlyph>
    <TTGlyph name="numbersign" xMin="20" yMin="0" xMax="1382" yMax="1516">
      <contour>
        <pt x="170" y="1198" on="1"/>
        <pt x="422" y="1198" on="1"/>
        <pt x="485" y="1516" on="1"/>
        <pt x="676" y="1516" on="1"/>
        <pt x="614" y="1198" on="1"/>
        <pt x="965" y="1198" on="1"/>
        <pt x="1028" y="1516" on="1"/>
        <pt x="1219" y="1516" on="1"/>
        <pt x="1157" y="1198" on="1"/>
        <pt x="1382" y="1198" on="1"/>
        <pt x="1343" y="999" on="1"/>
        <pt x="1118" y="999" on="1"/>
        <pt x="1037" y="584" on="1"/>
        <pt x="1276" y="584" on="1"/>
        <pt x="1239" y="389" on="1"/>
        <pt x="999" y="389" on="1"/>
        <pt x="924" y="0" on="1"/>
        <pt x="731" y="0" on="1"/>
        <pt x="807" y="389" on="1"/>
        <pt x="456" y="389" on="1"/>
        <pt x="381" y="0" on="1"/>
        <pt x="184" y="0" on="1"/>
        <pt x="261" y="389" on="1"/>
        <pt x="20" y="389" on="1"/>
        <pt x="61" y="584" on="1"/>
        <pt x="300" y="584" on="1"/>
        <pt x="382" y="999" on="1"/>
        <pt x="129" y="999" on="1"/>
      </contour>
      <contour>
        <pt x="494" y="584" on="1"/>
        <pt x="845" y="584" on="1"/>
        <pt x="926" y="999" on="1"/>
        <pt x="575" y="999" on="1"/>
      </contour>
    </TTGlyph>
    <TTGlyph name="o" xMin="86" yMin="-31" xMax="1124" yMax="1066">
      <contour>
        <pt x="86" y="518" on="1"/>
        <pt x="87" y="641" on="0"/>
        <pt x="164" y="843" on="0"/>
        <pt x="302" y="988" on="0"/>
        <pt x="492" y="1066" on="0"/>
        <pt x="606" y="1066" on="1"/>
        <pt x="721" y="1066" on="0"/>
        <pt x="912" y="988" on="0"/>
        <pt x="1048" y="845" on="0"/>
        <pt x="1124" y="643" on="0"/>
        <pt x="1124" y="520" on="1"/>
        <pt x="1124" y="399" on="0"/>
        <pt x="1048" y="196" on="0"/>
        <pt x="912" y="50" on="0"/>
        <pt x="721" y="-31" on="0"/>
        <pt x="606" y="-31" on="1"/>
        <pt x="489" y="-31" on="0"/>
        <pt x="299" y="49" on="0"/>
        <pt x="163" y="194" on="0"/>
        <pt x="87" y="396" on="0"/>
      </contour>
      <contour>
        <pt x="283" y="518" on="1"/>
        <pt x="283" y="429" on="0"/>
        <pt x="334" y="285" on="0"/>
        <pt x="423" y="184" on="0"/>
        <pt x="540" y="129" on="0"/>
        <pt x="606" y="129" on="1"/>
        <pt x="675" y="129" on="0"/>
        <pt x="794" y="183" on="0"/>
        <pt x="882" y="284" on="0"/>
        <pt x="932" y="428" on="0"/>
        <pt x="932" y="518" on="1"/>
        <pt x="932" y="612" on="0"/>
        <pt x="882" y="758" on="0"/>
        <pt x="795" y="856" on="0"/>
        <pt x="675" y="906" on="0"/>
        <pt x="606" y="906" on="1"/>
        <pt x="540" y="906" on="0"/>
        <pt x="423" y="856" on="0"/>
        <pt x="334" y="758" on="0"/>
        <pt x="283" y="612" on="0"/>
      </contour>
    </TTGlyph>
    <TTGlyph name="oacute" xMin="86" yMin="-31" xMax="5800" yMax="5190">
      <component glyphName="o" x="0" y="0" flags="0x204"/>
      <component glyphName="acute" x="385" y="0" flags="0x4"/>
    </TTGlyph>
    <TTGlyph name="ocircumflex" xMin="86" yMin="-31" xMax="1828" yMax="3405">
      <component glyphName="o" x="0" y="0" flags="0x204"/>
      <component glyphName="circumflex" x="133" y="0" flags="0x4"/>
    </TTGlyph>
</ttFont>
